<svg width="178" height="169" viewBox="0 0 178 169" fill="none" xmlns="http://www.w3.org/2000/svg">
<g clip-path="url(#clip0)">
<path d="M88.9938 95.4962L88.9883 95.5016L88.9937 95.5071L88.9992 95.5017L88.9938 95.4962Z" fill="white" stroke="white" stroke-miterlimit="10"/>
<path d="M90.6523 94.2683H90.1973V93.9897L90.6523 94.2683Z" fill="white" stroke="white" stroke-miterlimit="10"/>
<path d="M88.9938 95.4962L88.9883 95.5016L88.9937 95.5071L88.9992 95.5017L88.9938 95.4962Z" fill="white" stroke="white" stroke-miterlimit="10"/>
<path d="M90.6523 94.2683H90.1973V93.9897L90.6523 94.2683Z" fill="white" stroke="white" stroke-miterlimit="10"/>
<path d="M87.8022 71.977V75.9576C79.2284 75.6992 71.0125 72.4704 64.5664 66.8261C65.5861 65.9353 66.6519 65.0982 67.7592 64.3184C73.3934 69.0351 80.4504 71.7317 87.8022 71.977Z" fill="white" stroke="white" stroke-miterlimit="10"/>
<path d="M90.1973 93.9977V94.2764H90.6523L90.1973 93.9977ZM90.1973 93.9977V94.2764H90.6523L90.1973 93.9977ZM90.1973 93.9977V94.2764H90.6523L90.1973 93.9977ZM90.1973 93.9977V94.2764H90.6523L90.1973 93.9977ZM90.1973 93.9977V94.2764H90.6523L90.1973 93.9977ZM90.1973 93.9977V94.2764H90.6523L90.1973 93.9977ZM90.1973 93.9977V94.2764H90.6523L90.1973 93.9977ZM90.1973 93.9977V94.2764H90.6523L90.1973 93.9977ZM90.1973 93.9977V94.2764H90.6523L90.1973 93.9977ZM90.1973 93.9977V94.2764H90.6523L90.1973 93.9977ZM90.1973 93.9977V94.2764H90.6523L90.1973 93.9977ZM90.1973 93.9977V94.2764H90.6523L90.1973 93.9977ZM90.1973 93.9977V94.2764H90.6523L90.1973 93.9977ZM90.1973 93.9977V94.2764H90.6523L90.1973 93.9977ZM90.1973 93.9977V94.2764H90.6523L90.1973 93.9977ZM89 43.3407C78.2301 43.3228 67.7285 46.6907 58.9874 52.9658C57.8753 53.7513 56.811 54.5872 55.7946 55.4736C58.785 61.4471 63.3378 66.5039 68.9719 70.1095C74.606 73.7152 81.1122 75.7357 87.8027 75.9577V71.9771C80.4537 71.73 73.3997 69.0335 67.7677 64.3184C73.9977 59.9904 81.4077 57.6702 89 57.6702C96.5923 57.6702 104.002 59.9904 110.232 64.3184C113.955 61.2189 116.952 57.3439 119.013 52.9658C110.271 46.6907 99.7699 43.3228 89 43.3407ZM140.237 89.627C135.402 89.2176 130.536 89.8698 125.981 91.5377C126.069 92.5806 126.117 93.6315 126.117 94.7222C126.118 101.757 124.109 108.646 120.326 114.584C116.543 120.521 111.143 125.26 104.757 128.247C105.585 133.017 107.454 137.548 110.232 141.518C119.256 137.441 126.91 130.855 132.276 122.55C137.642 114.244 140.492 104.571 140.484 94.6903C140.487 92.9995 140.404 91.3096 140.237 89.627ZM51.8834 94.6903C51.8834 93.6315 51.9313 92.5806 52.0191 91.5059C47.4641 89.838 42.598 89.1858 37.7631 89.5952C37.5959 91.2778 37.5133 92.9677 37.5157 94.6585C37.5145 104.534 40.3675 114.2 45.7329 122.499C51.0983 130.799 58.7486 137.38 67.7677 141.454C70.546 137.484 72.4154 132.954 73.2434 128.183C66.8622 125.199 61.4647 120.465 57.6821 114.533C53.8996 108.602 51.8882 101.72 51.8834 94.6903ZM90.1973 93.9977V94.2764H90.6523L90.1973 93.9977ZM90.1973 93.9977V94.2764H90.6523L90.1973 93.9977ZM90.1973 93.9977V94.2764H90.6523L90.1973 93.9977ZM90.1973 93.9977V94.2764H90.6523L90.1973 93.9977ZM90.1973 93.9977V94.2764H90.6523L90.1973 93.9977ZM90.1973 93.9977V94.2764H90.6523L90.1973 93.9977ZM90.1973 93.9977V94.2764H90.6523L90.1973 93.9977ZM90.1973 93.9977V94.2764H90.6523L90.1973 93.9977ZM90.1973 93.9977V94.2764H90.6523L90.1973 93.9977ZM90.1973 93.9977V94.2764H90.6523L90.1973 93.9977ZM90.1973 93.9977V94.2764H90.6523L90.1973 93.9977ZM90.1973 93.9977V94.2764H90.6523L90.1973 93.9977ZM90.1973 93.9977V94.2764H90.6523L90.1973 93.9977ZM90.1973 93.9977V94.2764H90.6523L90.1973 93.9977Z" fill="white" stroke="white" stroke-miterlimit="10"/>
<path d="M90.6523 94.2683H90.1973V93.9897L90.6523 94.2683Z" fill="white" stroke="white" stroke-miterlimit="10"/>
<path d="M119.012 52.9657C116.951 57.3439 113.954 61.2189 110.232 64.3184C104.002 59.9904 96.5916 57.6701 88.9993 57.6701C81.407 57.6701 73.997 59.9904 67.767 64.3184C73.399 69.0335 80.453 71.73 87.802 71.9771V75.9576C78.386 75.6429 69.4425 71.7686 62.7846 65.1203C56.1267 58.472 52.2527 49.5473 51.9481 40.1557C51.6436 30.764 54.9312 21.6083 61.1444 14.5448C67.3576 7.48131 76.0315 3.03868 85.4073 2.11768V6.09827C80.1681 6.6707 75.1412 8.48088 70.7437 11.3786C66.3462 14.2764 62.7049 18.1782 60.1218 22.7604C57.5387 27.3426 56.0882 32.473 55.8908 37.7261C55.6934 42.9792 56.7547 48.2036 58.9867 52.9657C67.7358 46.7065 78.2321 43.3401 88.9993 43.3401C99.7664 43.3401 110.263 46.7065 119.012 52.9657Z" fill="white" stroke="white" stroke-miterlimit="10"/>
<path d="M172.077 137.92L169.331 136.327C171.76 130.986 172.852 125.136 172.513 119.281C172.174 113.425 170.414 107.74 167.385 102.713C164.356 97.6857 160.148 93.4677 155.122 90.4214C150.097 87.3751 144.406 85.5917 138.537 85.2245C133.81 84.9468 129.075 85.5849 124.592 87.1033C116.638 89.7727 109.865 95.1209 105.435 102.23L99.2888 98.6868C99.9376 97.2391 100.272 95.671 100.271 94.0853C100.27 93.5528 100.236 93.021 100.167 92.493C99.8015 90.0192 98.6253 87.7356 96.8218 85.9987C95.0182 84.2618 92.6889 83.1694 90.1973 82.8918V75.8064C99.4813 75.5189 108.301 71.6907 114.84 65.1105C121.378 58.5303 125.137 49.6994 125.341 40.4375C125.546 31.1755 122.181 22.188 115.94 15.3269C109.698 8.46581 101.056 4.25375 91.7937 3.55864V0.421936C118.318 1.73553 139.391 22.1002 139.391 47.0426C139.394 54.4891 137.493 61.8133 133.867 68.3229C141.33 68.4468 148.637 70.4662 155.099 74.1903C176.483 86.5381 183.707 114.49 172.077 137.92Z" fill="white" stroke="white" stroke-miterlimit="10"/>
<path d="M89 146.04H88.2018C88.4625 146.523 88.7286 147.001 89 147.473C89.298 147.001 89.564 146.523 89.7982 146.04H89ZM51.8834 94.6903C51.8834 93.6315 51.9313 92.5806 52.0191 91.5059C47.4641 89.838 42.598 89.1858 37.7631 89.5952C37.5959 91.2778 37.5133 92.9677 37.5157 94.6585C37.5145 104.534 40.3675 114.2 45.7329 122.499C51.0982 130.799 58.7486 137.38 67.7677 141.454C70.546 137.484 72.4154 132.954 73.2434 128.183C66.8622 125.199 61.4647 120.465 57.6821 114.533C53.8996 108.602 51.8882 101.72 51.8834 94.6903Z" fill="white" stroke="white" stroke-miterlimit="10"/>
<path d="M87.8022 75.8055V82.8909C85.2887 83.1587 82.9367 84.2556 81.1191 86.0079C79.3015 87.7601 78.1224 90.0673 77.7688 92.5638C77.6999 93.0917 77.6653 93.6236 77.665 94.156C77.6766 95.73 78.0192 97.2841 78.6707 98.7178L72.5245 102.26C68.0946 95.1519 61.3212 89.8036 53.3676 87.1342C48.8846 85.6158 44.1492 84.9777 39.4229 85.2554C33.488 85.6267 27.7354 87.4464 22.6708 90.5547C17.6062 93.6629 13.3847 97.9644 10.3774 103.081C7.37016 108.198 5.66917 113.973 5.42399 119.899C5.17882 125.825 6.39697 131.72 8.97137 137.067L6.24151 138.659C-5.89123 115.094 1.26868 86.7043 22.924 74.2371C29.3863 70.513 36.6939 68.4936 44.1563 68.3697C40.5308 61.8602 38.6297 54.5359 38.6327 47.0895C38.6327 22.4098 59.2983 2.18045 85.4475 0.508606V3.69308C76.3664 4.6928 67.9979 9.07308 62.0139 15.9588C56.0299 22.8445 52.871 31.7285 53.1684 40.836C53.4658 49.9435 57.1975 58.6038 63.6181 65.0865C70.0386 71.5693 78.6752 75.3972 87.8022 75.8055Z" fill="white" stroke="white" stroke-miterlimit="10"/>
<path d="M90.6523 94.2683H90.1973V93.9897L90.6523 94.2683Z" fill="white" stroke="white" stroke-miterlimit="10"/>
<path d="M169.259 144.838C154.812 167.129 126.491 175.21 104.772 162.703C98.2812 158.967 92.8547 153.64 89.0074 147.226C89.2947 146.764 89.5661 146.303 89.8056 145.825H88.1613C88.4167 146.303 88.6881 146.764 88.9595 147.226C85.1076 153.637 79.6822 158.963 73.1949 162.703C51.6832 175.09 23.7061 167.32 9.13086 145.499L11.8927 143.906C15.3238 148.693 19.8699 152.577 25.1397 155.223C30.4095 157.869 36.2451 159.197 42.144 159.095C48.0429 158.992 53.8285 157.461 59.0026 154.634C64.1767 151.806 68.5843 147.767 71.8459 142.863C74.4616 138.913 76.2808 134.491 77.2019 129.847C78.8386 121.613 77.5607 113.068 73.586 105.669L79.7562 102.118C80.8071 103.565 82.1869 104.743 83.7825 105.555C85.3781 106.368 87.1441 106.791 88.9355 106.791C90.727 106.791 92.4929 106.368 94.0885 105.555C95.6842 104.743 97.064 103.565 98.1149 102.118L104.293 105.669C100.311 113.065 99.0323 121.613 100.677 129.847C101.598 134.491 103.417 138.913 106.033 142.863C109.331 147.823 113.8 151.898 119.048 154.73C124.295 157.561 130.161 159.063 136.127 159.102C142.093 159.142 147.978 157.717 153.263 154.955C158.548 152.193 163.07 148.177 166.433 143.262L169.259 144.838Z" fill="white" stroke="white" stroke-miterlimit="10"/>
<path d="M89.8376 146.032C89.5769 146.515 89.3108 146.993 89.0394 147.465C88.7414 146.993 88.4754 146.515 88.2412 146.032H89.9174H89.8376Z" fill="white" stroke="white" stroke-miterlimit="10"/>
<path d="M140.484 94.6903C140.485 104.566 137.632 114.232 132.266 122.531C126.901 130.831 119.251 137.412 110.232 141.486C107.453 137.516 105.584 132.985 104.756 128.215C111.142 125.229 116.543 120.489 120.326 114.552C124.109 108.615 126.117 101.725 126.116 94.6903C126.116 93.6315 126.068 92.5806 125.98 91.5059C130.535 89.838 135.401 89.1858 140.236 89.5952C140.404 91.2883 140.487 92.9889 140.484 94.6903Z" fill="white" stroke="white" stroke-miterlimit="10"/>
<path d="M119.012 52.9657C116.951 57.3439 113.954 61.2189 110.232 64.3184C104.002 59.9904 96.5916 57.6701 88.9993 57.6701C81.407 57.6701 73.997 59.9904 67.767 64.3184C73.399 69.0335 80.453 71.73 87.802 71.9771V75.9576C78.386 75.6429 69.4425 71.7686 62.7846 65.1203C56.1267 58.472 52.2527 49.5473 51.9481 40.1557C51.6436 30.764 54.9312 21.6083 61.1444 14.5448C67.3576 7.48131 76.0315 3.03868 85.4073 2.11768V6.09827C80.1681 6.6707 75.1412 8.48088 70.7437 11.3786C66.3462 14.2764 62.7049 18.1782 60.1218 22.7604C57.5387 27.3426 56.0882 32.473 55.8908 37.7261C55.6934 42.9792 56.7547 48.2036 58.9867 52.9657C67.7358 46.7065 78.2321 43.3401 88.9993 43.3401C99.7664 43.3401 110.263 46.7065 119.012 52.9657Z" fill="white" stroke="white" stroke-miterlimit="10"/>
<path d="M126.117 38.962C126.115 48.5726 122.367 57.8061 115.664 64.7102C108.961 71.6142 99.8281 75.6476 90.1973 75.9577V71.9771C98.6256 71.6646 106.617 68.1574 112.542 62.1706C118.467 56.1838 121.879 48.1682 122.083 39.7586C122.287 31.3489 119.266 23.1784 113.638 16.9133C108.01 10.6482 100.197 6.76037 91.7937 6.04254V2.06195C101.124 2.76627 109.844 6.95889 116.208 13.8008C122.572 20.6427 126.111 29.6292 126.117 38.962Z" fill="white" stroke="white" stroke-miterlimit="10"/>
<path d="M119.012 52.9657C116.951 57.3439 113.954 61.2189 110.232 64.3184C104.002 59.9904 96.5916 57.6701 88.9993 57.6701C81.407 57.6701 73.997 59.9904 67.767 64.3184C73.399 69.0335 80.453 71.73 87.802 71.9771V75.9576C78.386 75.6429 69.4425 71.7686 62.7846 65.1203C56.1267 58.472 52.2527 49.5473 51.9481 40.1557C51.6436 30.764 54.9312 21.6083 61.1444 14.5448C67.3576 7.48131 76.0315 3.03868 85.4073 2.11768V6.09827C80.1681 6.6707 75.1412 8.48088 70.7437 11.3786C66.3462 14.2764 62.7049 18.1782 60.1218 22.7604C57.5387 27.3426 56.0882 32.473 55.8908 37.7261C55.6934 42.9792 56.7547 48.2036 58.9867 52.9657C67.7358 46.7065 78.2321 43.3401 88.9993 43.3401C99.7664 43.3401 110.263 46.7065 119.012 52.9657Z" fill="white" stroke="white" stroke-miterlimit="10"/>
<path d="M119.012 52.9657C116.952 57.3439 113.955 61.2188 110.232 64.3184C104.002 59.9903 96.5922 57.6701 88.9999 57.6701C81.4076 57.6701 73.9976 59.9903 67.7676 64.3184C64.045 61.2188 61.048 57.3439 58.9873 52.9657C67.7364 46.7065 78.2327 43.3401 88.9999 43.3401C99.767 43.3401 110.263 46.7065 119.012 52.9657Z" fill="white" stroke="white" stroke-miterlimit="10"/>
<path d="M73.2434 128.215C72.4154 132.985 70.546 137.516 67.7677 141.486C58.7486 137.412 51.0982 130.831 45.7329 122.531C40.3675 114.232 37.5145 104.565 37.5157 94.6903C37.5133 92.9995 37.5959 91.3096 37.7631 89.627C42.5992 89.2227 47.4653 89.8803 52.0191 91.5536C51.9313 92.5965 51.8834 93.6474 51.8834 94.7381C51.8913 101.765 53.904 108.644 57.6864 114.572C61.4688 120.5 66.8647 125.232 73.2434 128.215Z" fill="white" stroke="white" stroke-miterlimit="10"/>
<path d="M140.484 94.6903C140.485 104.566 137.632 114.232 132.266 122.531C126.901 130.831 119.251 137.412 110.232 141.486C107.453 137.516 105.584 132.985 104.756 128.215C111.142 125.229 116.543 120.489 120.326 114.552C124.109 108.615 126.117 101.725 126.116 94.6903C126.116 93.6315 126.068 92.5806 125.98 91.5059C130.535 89.838 135.401 89.1858 140.236 89.5952C140.404 91.2883 140.487 92.9889 140.484 94.6903Z" fill="white" stroke="white" stroke-miterlimit="10"/>
<path d="M73.2434 128.215C72.4154 132.985 70.546 137.516 67.7677 141.486C58.7486 137.412 51.0982 130.831 45.7329 122.531C40.3675 114.232 37.5145 104.565 37.5157 94.6903C37.5133 92.9995 37.5959 91.3096 37.7631 89.627C42.5992 89.2227 47.4653 89.8803 52.0191 91.5536C51.9313 92.5965 51.8834 93.6474 51.8834 94.7381C51.8913 101.765 53.904 108.644 57.6864 114.572C61.4688 120.5 66.8647 125.232 73.2434 128.215Z" fill="white" stroke="white" stroke-miterlimit="10"/>
<path d="M171.183 137.872C173.667 132.408 174.784 126.424 174.437 120.434C174.091 114.444 172.291 108.628 169.193 103.485C166.095 98.3427 161.79 94.0274 156.651 90.9103C151.511 87.7932 145.689 85.9677 139.685 85.5907C134.851 85.306 130.007 85.9575 125.421 87.5093C117.296 90.2595 110.383 95.742 105.865 103.018L99.5755 99.3953C100.24 97.9154 100.583 96.3119 100.581 94.6903C100.581 94.1576 100.543 93.6256 100.469 93.098C100.107 90.543 98.8994 88.1818 97.0384 86.3891C95.1773 84.5964 92.7694 83.4748 90.1966 83.2023V71.977C97.5455 71.7299 104.599 69.0335 110.232 64.3184C104.002 59.9903 96.5916 57.6701 88.9993 57.6701C81.407 57.6701 73.997 59.9903 67.767 64.3184C73.399 69.0335 80.453 71.7299 87.8019 71.977V83.2023C85.2305 83.4765 82.8244 84.5988 80.965 86.3913C79.1056 88.1839 77.8992 90.5442 77.537 93.098C77.4632 93.6256 77.4259 94.1576 77.4253 94.6903C77.4238 96.3119 77.7666 97.9154 78.431 99.3953L72.1411 103.018C67.6237 95.742 60.7102 90.2595 52.5851 87.5093C47.9966 85.9565 43.1501 85.305 38.3132 85.5907C32.2436 85.9744 26.3614 87.8389 21.1833 91.0204C16.0052 94.2018 11.6896 98.6029 8.61571 103.837C5.5418 109.071 3.8036 114.978 3.5538 121.038C3.30401 127.099 4.55028 133.128 7.18311 138.596L10.6553 136.598C7.86127 130.674 6.8964 124.054 7.88334 117.582C8.87028 111.109 11.7645 105.075 16.198 100.247C20.6316 95.4187 26.4043 92.0143 32.7825 90.4664C39.1607 88.9184 45.8563 89.2969 52.0184 91.5536C51.9306 92.5965 51.8827 93.6474 51.8827 94.738C51.8815 101.773 53.8899 108.662 57.6729 114.6C61.4558 120.537 66.8566 125.276 73.2427 128.263C72.1222 134.644 69.1457 140.555 64.6833 145.262C60.2209 149.969 54.4696 153.264 48.1447 154.737C41.8197 156.21 35.2002 155.795 29.1095 153.545C23.0187 151.296 17.7255 147.31 13.888 142.083L10.4158 144.097C13.915 148.978 18.551 152.938 23.9248 155.635C29.2985 158.333 35.2491 159.688 41.2641 159.583C47.2792 159.478 53.1786 157.916 58.4545 155.033C63.7304 152.15 68.2247 148.031 71.5505 143.031C74.2208 139.006 76.078 134.501 77.0182 129.767C78.6969 121.363 77.3932 112.638 73.3305 105.088L79.6283 101.465C80.7009 102.94 82.1085 104.141 83.736 104.969C85.3634 105.797 87.1644 106.229 88.9913 106.229C90.8182 106.229 92.6191 105.797 94.2466 104.969C95.874 104.141 97.2817 102.94 98.3542 101.465L104.652 105.088C100.589 112.638 99.2857 121.363 100.964 129.767C101.901 134.503 103.756 139.011 106.424 143.039C109.788 148.094 114.346 152.247 119.697 155.133C125.048 158.019 131.028 159.549 137.111 159.59C143.194 159.63 149.193 158.178 154.582 155.363C159.971 152.548 164.583 148.455 168.014 143.445L164.549 141.454C160.802 146.835 155.535 150.982 149.418 153.368C143.3 155.754 136.61 156.272 130.197 154.855C123.784 153.438 117.939 150.151 113.404 145.411C108.869 140.672 105.851 134.694 104.732 128.239C111.126 125.254 116.534 120.512 120.322 114.57C124.11 108.628 126.119 101.732 126.116 94.6903C126.116 93.6314 126.068 92.5806 125.98 91.5058C132.08 89.2735 138.703 88.88 145.025 90.3744C151.348 91.8688 157.089 95.185 161.536 99.9101C165.982 104.635 168.937 110.56 170.032 116.948C171.127 123.336 170.314 129.903 167.694 135.834L171.183 137.872ZM90.1966 94.2763V93.9977L90.6515 94.2683L90.1966 94.2763Z" fill="#121212"/>
<path d="M140.484 94.6903C140.485 104.566 137.632 114.232 132.266 122.531C126.901 130.831 119.251 137.412 110.232 141.486C107.453 137.516 105.584 132.985 104.756 128.215C111.142 125.229 116.543 120.489 120.326 114.552C124.109 108.615 126.117 101.725 126.116 94.6903C126.116 93.6315 126.068 92.5806 125.98 91.5059C130.535 89.838 135.401 89.1858 140.236 89.5952C140.404 91.2883 140.487 92.9889 140.484 94.6903Z" fill="white" stroke="white" stroke-miterlimit="10"/>
<path d="M88.9938 95.4962L88.9883 95.5016L88.9937 95.5071L88.9992 95.5017L88.9938 95.4962Z" fill="white" stroke="white" stroke-miterlimit="10"/>
<path d="M88.9938 95.4962L88.9883 95.5016L88.9937 95.5071L88.9992 95.5017L88.9938 95.4962Z" fill="white" stroke="white" stroke-miterlimit="10"/>
<path d="M90.6523 94.2683H90.1973V93.9897L90.6523 94.2683Z" fill="white" stroke="white" stroke-miterlimit="10"/>
<path d="M89.3989 99.0689C91.1622 99.0689 92.5917 96.9303 92.5917 94.2922C92.5917 91.6541 91.1622 89.5155 89.3989 89.5155C87.6355 89.5155 86.2061 91.6541 86.2061 94.2922C86.2061 96.9303 87.6355 99.0689 89.3989 99.0689Z" fill="#121212"/>
</g>
<defs>
<clipPath id="clip0">
<rect width="178" height="169" fill="white"/>
</clipPath>
</defs>
</svg>
