<svg xmlns="http://www.w3.org/2000/svg" xmlns:xlink="http://www.w3.org/1999/xlink" viewBox="0 0 1374.73 3265.74"><defs><style>.cls-1{fill:none;}.cls-2{fill:#ff0001;}.cls-3{clip-path:url(#clip-path);}</style><clipPath id="clip-path" transform="translate(-523.52 -167.25)"><ellipse class="cls-1" cx="1089.32" cy="1479.21" rx="1089.32" ry="1479.21"/></clipPath></defs><title>Asset 1</title><g id="Layer_2" data-name="Layer 2"><g id="Layer_1-2" data-name="Layer 1"><g id="Calque_2" data-name="Calque 2"><path d="M1672.87,1625.92q-207.13-231.39-606.28-231.4H647.34q-50.24,0-81.59,41.94T534.37,1550.7V3286.15q0,133.08,128,133.06h429.29q788.25,0,788.29-1064.42Q1880,1857.36,1672.87,1625.92Zm-328.76,1157q-64.41,63.34-160.78,92.83-49.9,25.74-114.23,25.75a115.47,115.47,0,0,1-22-1.84q-27.25,1.85-56.24,1.84-63.46,0-76.13-15.9T902,2808.93V1944.08h42.31q37.47,0,72.1,1.63v-1.63h25.1q82.29,0,141.84,22,95.61,21,156.53,61.85,124.79,83.92,124.83,360.11T1344.11,2782.89Z" transform="translate(-523.52 -167.25)"/><path class="cls-2" d="M703.15,3231.13c-48.95,0-86.85-15.66-112.64-46.54-24.44-29.27-36.84-71.83-36.84-126.5V1194.5c0-57.48,11.48-104.29,34.12-139.11,31.56-48.57,72.52-58.76,101.33-58.76h390.73c127.63,0,241.82,21.76,339.41,64.67,98.36,43.26,182.29,109,249.45,195.46,66.65,85.82,117.19,197.25,150.23,331.22,32.6,132.2,49.14,290.33,49.14,470,0,191.74-15.68,362.12-46.59,506.4-31.23,145.77-79,269.31-141.88,367.18-63.82,99.29-144.93,174.92-241.07,224.77-95.73,49.65-208.54,74.82-335.29,74.82Zm358.47-618.27a30.48,30.48,0,0,1,6.66.74,64.38,64.38,0,0,0,13.89,1.23c34.76,0,64.55-7.66,91-23.42a30.64,30.64,0,0,1,5.38-2.52c54.72-19.3,100.9-50,137.26-91.2,69.56-78.83,104.83-214.76,104.83-404,0-187-35.21-309.05-104.65-362.86-34.31-26.55-79.67-47.09-134.8-61a30.35,30.35,0,0,1-4.43-1.49c-33.12-14.1-73.63-21.25-120.38-21.25h-13.28a30.08,30.08,0,0,1-10.12,1.75c-.54,0-1.07,0-1.61,0-21.18-1.13-43.25-1.7-65.59-1.7h-9.27v898.55c0,43.5,4.15,59.09,5.92,63.77,3.63,1.61,15.56,5.46,46.71,5.46,17.13,0,34-.63,50.08-1.89C1060.06,2612.89,1060.84,2612.86,1061.62,2612.86Z" transform="translate(-523.52 -167.25)"/><path d="M1079.84,1026.78q372,0,565,248.48t193,782.7q0,1143.08-734.67,1143H703.15q-119.32,0-119.32-142.88V1194.5q0-77.6,29.24-122.68t76-45h390.73m-46.79,591.88q-32.31-1.73-67.2-1.75H926.42v928.7q0,65.22,11.85,82.3t71,17.08q27,0,52.41-2a93.8,93.8,0,0,0,20.55,2q60,0,106.46-27.65,89.8-31.68,149.85-99.69,112.37-127.32,112.38-424T1334.53,1707q-56.76-43.92-145.89-66.41-55.53-23.64-132.19-23.66h-23.4v1.75m46.79-652.2H689.11c-26.5,0-51.12,6.63-73.17,19.7-20.66,12.24-38.64,30-53.44,52.79-13.48,20.74-23.59,45-30,72.1-5.93,24.91-8.94,53-8.94,83.45V3058.09c0,29.17,3.25,55.65,9.67,78.69,7.26,26.08,18.76,48.67,34.18,67.14a152.34,152.34,0,0,0,61.23,44.15c22,8.78,47.08,13.22,74.56,13.22h400.09c65.33,0,127.66-6.49,185.27-19.29,58.42-13,113.57-32.8,163.91-58.91a629.59,629.59,0,0,0,139.66-98.75c41.74-39,79.72-84.88,112.9-136.49,32.68-50.83,61.58-108.58,85.9-171.64,24-62.19,44.21-131.34,60.1-205.52,15.74-73.45,27.69-154,35.53-239.3,7.79-84.78,11.73-176.78,11.73-273.42,0-90.69-4.17-176.65-12.39-255.49-8.29-79.51-20.95-154.11-37.62-221.71-16.89-68.49-38.4-131.82-63.93-188.24-26-57.39-56.84-109.28-91.76-154.25a685.85,685.85,0,0,0-118.14-119.18,667.45,667.45,0,0,0-143-85.39c-51-22.45-106.71-39.48-165.48-50.64-58-11-120.61-16.61-186.09-16.61Zm-32.38,710.77h9c42.67,0,79.2,6.34,108.57,18.84a60.17,60.17,0,0,0,8.85,3c51.08,12.9,92.72,31.62,123.74,55.63,28.44,22,50.79,59.53,66.4,111.41,17.61,58.52,26.53,135.09,26.53,227.59,0,181.69-32.73,310.91-97.28,384.06-33.39,37.84-74.17,64.9-124.68,82.72a60.91,60.91,0,0,0-10.76,5c-21.71,12.91-46.46,19.18-75.64,19.18a36.7,36.7,0,0,1-7.23-.49,60.3,60.3,0,0,0-13.32-1.49q-2.34,0-4.68.18c-15.32,1.19-31.38,1.8-47.74,1.8-8.89,0-15.73-.34-20.9-.79a381.37,381.37,0,0,1-1.58-38.27V1677.4c14.65.24,29.08.74,43.1,1.49,1.07.06,2.15.09,3.22.09a60.43,60.43,0,0,0,14.42-1.75Z" transform="translate(-523.52 -167.25)"/><g class="cls-3"><path d="M1843.47,3333.5a9.86,9.86,0,0,0-4.36-5.9s-2-13.57-14.88-17-38.06-5-67.16-17.07-82.91-67.38-90.78-77-17.5-34.09-21.87-77.85,10.5-320.28,10.5-329-9.63-7-9.63-7,5.25-28.87,4.38-49-3.51-17.5-3.51-37.64,7.89-42.86,6.14-77-31.51-85.74-42.88-110.25-24.51-82.26-38.51-125.12-87.5-183.75-105.87-204.77-14-26.26-21.88-36.76A96.3,96.3,0,0,1,1430,2139.3c-1.75-4.38-1.75-13.14-3.51-21s-8.74-12.25-15.75-28-17.06-51.65-17.06-51.65-3.94-31.07-8.76-43.31-9.19-16.19-11.37-16.65-3.49-3.92-7.88-19.67-3.06-15.32-9.19-33.68-9.63-129.09-14-165.84-10.5-52.49-16.62-84.89S1318,1626.5,1311,1588s-38.5-151.37-38.5-151.37,3.49-5.25,11.38-11.37,18.37-18.4,18.37-18.4,15.73,1.77,21-.85,49.87-23.64,56.87-30.64-1.75-32.36-1.75-32.36,77.88-50.75,102.39-80.51,127.75-206.08,129.51-209.14,7-3.94,16.62-8.75,36.74-40.27,36.74-40.27,0,.9,6.14,2.62,7,.88,15.32-5.69,15.3-17.92,15.75-28.86c.25-6.46.06-8.36-.16-8.8a.32.32,0,0,1-.28,0s.15-.36.28,0c.4-.21,1.18-1,2.34-3.89,1.76-4.38,1.76-12.25-1.31-20.11s-7.43-7-7.43-7,1.75-7.9-.44-15.32-13.12-9.19-13.12-9.19-.88-1.75-.88-7-.43-12.69-8.75-14-19.68-3.27-19.68-3.27-.44-.67-.88-7.67-4.37-11.81-10.5-12.9-51.4,7-51.4,7L1316.93,631.35a36.38,36.38,0,0,0,1.31-9.21c0-4.81-3.94-32.82-5-35.45s-3.7-9.61-10.71-12.46-13.14-3.71-14.23-4.58-2-6.34-5.69-10.52-14.86-8.54-14.86-8.54a50.25,50.25,0,0,0,.65-7.42c.22-5.48-6.56-10.31-11.37-12s-14.67-.44-14.67-.44a21.88,21.88,0,0,0-.22-11.8c-2-5.91-9.63-10.94-14.86-10.5s-12,5.69-12,5.69a15.62,15.62,0,0,0-9.41.21c-4.82,1.74-10.29,10.94-10.29,10.94l-257.7-228,35.89-56.45s1.74-2.18-.44-7.87-76.57-64.75-78.11-65.19a8.65,8.65,0,0,0-7.22.65c-2.85,1.75-42.44,45.72-42.44,45.72s-7-.87-11.37,1.31-26.7,30.61-29.33,35.45,0,8.76.44,10.93-37.61,59.94-37.85,62.78,43.1,40.68,46.61,43.31,34.79,21.9,34.79,21.9,5.68,2.62,7.87.87S903,344.74,903,344.74L1163.78,567s-10.07,20.57-11.83,25.82S1150.21,606.38,1162,616s43.76,62.56,43.76,62.56,14,62.12,20.11,96.25,5.25,108.49,5.25,108.49-19.69-23.62-56.45-33.27-87-6.53-104.56,1.33-34.13,17.5-34.13,17.5-48.13,23.64-63.88,53.38-14.88,97.57-14.88,97.57a23.67,23.67,0,0,0-4.37,8.32c-1.31,4.82.87,26.91.87,26.91s-12.92,10.5-15.76,14.88,2.42,12.24,11,13.33,30.62.24,31.94-.43,3.27,26.26,3.27,29.09,5.69,2.62,6.78,2.42,4.82,5.69,5.69,18.36,2.84,73.06.2,78.32c0,0-83.47,3.54-97.46,7.48s-4,8.76-4.38,18.39,4.81,28,7.87,31.51,6.56,7.86,7.43,13.54,1.74,32.39-1.75,36.74-42,51.65-48.13,73.53-7.87,56-6.12,91,42,120.75,56.87,145.25,16.63,94.52,32.37,133,30.62,63,32.38,75.24-1.75,20.14-4.38,45.5,22.31,74,22.31,74l-5.25,4.35c-2.64,2.2,0,4.82-.43,16.63s-12.7,45.5-15.76,52.07,2.18,14,2.18,14-1.74,3.49-5.68,10.94-18.83,65.63-18.83,65.63a49.3,49.3,0,0,1-6.55,1.31c-3.51.43-1.31,5.68-4.82,16.16s-10.5,132.16-10.5,132.16,3.5,26.26,1.75,35-3.49,14-1.75,31.5,5.25,22.75,3.5,47.24S905.43,2602,905.43,2616s-28,36.77-54.25,77-51.62,108.49-51.62,108.49-19.26,4.38-24.51,10.52-37.61,164.49-45.5,201.25-10.5,198.63-9.61,210.9-6.13,25.36-14,39.37-4.82,49-4.82,52.49v22.32c0,7.43-1.31,15.75,2.2,22.74s17.94,15.33,20.13,15.78,4.81,7.43,5.68,10.91,7.89,13.57,13.57,20.14,32.38,24.06,60.38,24.92,89-1.3,95.61-4.37,15.3-10.71,16.19-19a90.93,90.93,0,0,0-.44-18.16s1.74-15.54-8.76-24.3-31.5-48.54-35.88-54.68-1.75-23.62-3.5-42-7-15.72-13.12-28,.87-21.88,6.12-44.62-2.62-48.13,0-60.37,42-56,55.13-97.14,42-169.76,42-169.76,41.12-25.41,50.75-45.52,8.74-27.1,12.25-33.24,14-18.37,21-44.63,5.26-24.52,9.63-38.5,55.13-83.13,62.14-108.52,14.86-52.49,21-63.88,28-30.61,42.88-58.63,38.5-84.87,38.5-84.87,8.76,7.87,21.87,28,16.63,16.63,30.62,45.51,92.76,135.62,93.63,148.76,20.13,49,38.5,56,33.27,31.51,38.51,43.78,8.75,96.24,8.75,96.24-11.37,7-10.52,14,8.76,7.89,9.63,21.9,7,168.86,12.25,207.37,32.38,130.39,27.13,152.24-2.62,67.83-2.62,67.83a11.14,11.14,0,0,0-2.63,6.55c-.44,4.39,1.31,15.78-1.31,19.7s.43,24.06,4.81,27.57,76.13,20.14,80.93,19.47,18-3.72,25.17-5.69,33.47,6.13,39.37,10.29,26.26,17.49,41.13,20.11,142.42,10.73,150.94,5.25,22.53-25.8,22.1-30.2S1844.35,3337.46,1843.47,3333.5ZM1557,914s-3.07,8.29-5.26,28.86,3.07,44.62-1.31,52.06-14,24.95-30.18,34.13-27.13,23.62-49.44,48.57-134.33,100.19-142.2,105.43a201,201,0,0,0,14-40.23c5.23-22.75,18.37-53.39,18.37-53.39s10.48,0,16.62-12.25,13.12-35,7-49.87-14.88-8.76-14.88-8.76-.87-13.14,0-33.24,7-48.14,2.62-94.52-55.13-186.41-55.13-186.41Z" transform="translate(-523.52 -167.25)"/></g><path class="cls-2" d="M926.41,2303.71v241.91q0,65.22,11.85,82.3t71,17.08q216.84,0,329.27-127.34t112.38-424q0-43.17-2.47-82l273.12,209.31-32.16,258.14,32.16,214.31s-287.17,264.92-303.24,264.92-426.09,57.26-426.09,57.26-264.91-27-297.46-57.26-18.33-445.13-18.33-445.13L805,2264.89Z" transform="translate(-523.52 -167.25)"/></g></g></g></svg>