<svg id="Calque_2" data-name="Calque 2" xmlns="http://www.w3.org/2000/svg" xmlns:xlink="http://www.w3.org/1999/xlink" viewBox="0 0 6174.72 5000"><defs><style>.cls-1,.cls-17,.cls-19,.cls-20{fill:none;}.cls-2{clip-path:url(#clip-path);}.cls-3{fill:url(#Dégradé_sans_nom_32);}.cls-4{fill:url(#Dégradé_sans_nom_32-2);}.cls-5{fill:url(#Dégradé_sans_nom_32-4);}.cls-6{fill:url(#Dégradé_sans_nom_32-5);}.cls-7{fill:url(#Dégradé_sans_nom_32-6);}.cls-8{fill:url(#Dégradé_sans_nom_32-9);}.cls-9{fill:url(#Dégradé_sans_nom_32-10);}.cls-10{fill:url(#Dégradé_sans_nom_32-11);}.cls-11{fill:url(#Dégradé_sans_nom_32-12);}.cls-12{fill:url(#Dégradé_sans_nom_32-13);}.cls-13{fill:url(#Dégradé_sans_nom_32-16);}.cls-14{fill:url(#Dégradé_sans_nom_32-21);}.cls-15{fill:url(#Dégradé_sans_nom_32-32);}.cls-16{fill:#fff;}.cls-17,.cls-19,.cls-20{stroke:#000;stroke-linejoin:round;}.cls-17{stroke-width:92.62px;}.cls-18{fill:#ff0001;}.cls-19{stroke-width:111.15px;}.cls-20{stroke-width:79.57px;}.cls-21{clip-path:url(#clip-path-2);}</style><clipPath id="clip-path"><ellipse class="cls-1" cx="1416.89" cy="2107.92" rx="1251.21" ry="1699.04"/></clipPath><linearGradient id="Dégradé_sans_nom_32" x1="2701.53" y1="3013.08" x2="5613.66" y2="3013.08" gradientUnits="userSpaceOnUse"><stop offset="0"/><stop offset="0.89" stop-color="#bebebe" stop-opacity="0.26"/><stop offset="1" stop-color="#fff" stop-opacity="0"/></linearGradient><linearGradient id="Dégradé_sans_nom_32-2" x1="2701.53" y1="2308.86" x2="5613.66" y2="2308.86" xlink:href="#Dégradé_sans_nom_32"/><linearGradient id="Dégradé_sans_nom_32-4" x1="2701.53" y1="2777" x2="5613.66" y2="2777" xlink:href="#Dégradé_sans_nom_32"/><linearGradient id="Dégradé_sans_nom_32-5" x1="2701.53" y1="2649.48" x2="5613.66" y2="2649.48" xlink:href="#Dégradé_sans_nom_32"/><linearGradient id="Dégradé_sans_nom_32-6" x1="2701.53" y1="3224.46" x2="5613.66" y2="3224.46" xlink:href="#Dégradé_sans_nom_32"/><linearGradient id="Dégradé_sans_nom_32-9" x1="2701.53" y1="2963.1" x2="5613.66" y2="2963.1" xlink:href="#Dégradé_sans_nom_32"/><linearGradient id="Dégradé_sans_nom_32-10" x1="2701.53" y1="2532.3" x2="5613.66" y2="2532.3" xlink:href="#Dégradé_sans_nom_32"/><linearGradient id="Dégradé_sans_nom_32-11" x1="2701.53" y1="2172.15" x2="5613.66" y2="2172.15" xlink:href="#Dégradé_sans_nom_32"/><linearGradient id="Dégradé_sans_nom_32-12" x1="2701.53" y1="2683.08" x2="5613.66" y2="2683.08" xlink:href="#Dégradé_sans_nom_32"/><linearGradient id="Dégradé_sans_nom_32-13" x1="2701.53" y1="2434.27" x2="5613.66" y2="2434.27" xlink:href="#Dégradé_sans_nom_32"/><linearGradient id="Dégradé_sans_nom_32-16" x1="2701.53" y1="2689.11" x2="5613.66" y2="2689.11" xlink:href="#Dégradé_sans_nom_32"/><linearGradient id="Dégradé_sans_nom_32-21" x1="2701.53" y1="1898.73" x2="5613.66" y2="1898.73" xlink:href="#Dégradé_sans_nom_32"/><linearGradient id="Dégradé_sans_nom_32-32" x1="2701.53" y1="2963.29" x2="5613.66" y2="2963.29" xlink:href="#Dégradé_sans_nom_32"/><clipPath id="clip-path-2"><ellipse class="cls-1" cx="1470.77" cy="-3004.79" rx="1251.21" ry="1699.04"/></clipPath></defs><g class="cls-2"><path d="M2283.11,4237.79a11.31,11.31,0,0,0-5-6.78s-2.25-15.58-17.09-19.58-43.71-5.79-77.14-19.61-95.23-77.39-104.28-88.47-20.1-39.16-25.12-89.43,12.07-367.87,12.07-377.91-11.07-8.05-11.07-8.05,6-33.16,5-56.28-4-20.1-4-43.24,9.07-49.23,7.05-88.44-36.19-98.48-49.25-126.63-28.15-94.49-44.24-143.72-100.5-211.06-121.6-235.2-16.09-30.16-25.13-42.22-13.06-21.08-15.08-26.11-2-15.09-4-24.14-10-14.07-18.09-32.14-19.59-59.33-19.59-59.33-4.52-35.68-10.06-49.74-10.55-18.6-13.06-19.12-4-4.51-9.05-22.6-3.52-17.59-10.55-38.68-11-148.28-16.08-190.48-12.06-60.29-19.09-97.5-9.06-55.27-17.09-99.51S1627.3,2059,1627.3,2059s4-6,13.08-13.06,21.1-21.14,21.1-21.14,18.07,2,24.12-1,57.27-27.15,65.32-35.19-2-37.18-2-37.18,89.46-58.29,117.61-92.47,146.74-236.7,148.75-240.22,8-4.53,19.09-10,42.2-46.25,42.2-46.25,0,1,7,3,8,1,17.59-6.53,17.58-20.58,18.09-33.15c.29-7.42.07-9.6-.18-10.11-.21.12-.33,0-.33,0s.17-.41.33,0c.45-.24,1.35-1.12,2.69-4.47,2-5,2-14.08-1.51-23.1s-8.53-8.05-8.53-8.05,2-9.08-.51-17.59-15.08-10.55-15.08-10.55-1-2-1-8-.49-14.58-10.05-16.09-22.61-3.76-22.61-3.76-.5-.76-1-8.81-5-13.56-12.06-14.81-59,8-59,8l-312.09-274.37a41.73,41.73,0,0,0,1.51-10.58c0-5.52-4.52-37.71-5.79-40.72s-4.25-11-12.3-14.31-15.09-4.27-16.34-5.27-2.25-7.28-6.54-12.07-17.07-9.81-17.07-9.81a58.61,58.61,0,0,0,.75-8.52c.25-6.3-7.54-11.84-13.06-13.83s-16.85-.51-16.85-.51a25.08,25.08,0,0,0-.26-13.55c-2.25-6.79-11.06-12.57-17.07-12.06s-13.82,6.54-13.82,6.54a18,18,0,0,0-10.81.24c-5.53,2-11.82,12.56-11.82,12.56l-296-261.83,41.22-64.84s2-2.5-.51-9-88-74.37-89.71-74.87a10,10,0,0,0-8.3.74c-3.27,2-48.74,52.52-48.74,52.52s-8-1-13.06,1.51-30.67,35.15-33.69,40.71,0,10.06.51,12.55-43.2,68.85-43.47,72.11,49.5,46.73,53.53,49.75,40,25.15,40,25.15,6.52,3,9,1,53.27-52.76,53.27-52.76l299.51,255.27s-11.56,23.62-13.58,29.65-2,15.6,11.57,26.66,50.26,71.86,50.26,71.86,16.08,71.35,23.11,110.56,6,124.62,6,124.62-22.62-27.13-64.84-38.21-100-7.51-120.09,1.52-39.21,20.1-39.21,20.1-55.28,27.16-73.37,61.31-17.09,112.07-17.09,112.07a27.12,27.12,0,0,0-5,9.56c-1.51,5.53,1,30.9,1,30.9s-14.84,12.06-18.1,17.09,2.77,14.06,12.58,15.31,35.18.27,36.68-.49,3.76,30.16,3.76,33.42,6.54,3,7.79,2.78,5.54,6.53,6.54,21.08,3.27,83.92.24,90c0,0-95.88,4.07-112,8.59s-4.54,10.06-5,21.12,5.52,32.15,9,36.19,7.54,9,8.54,15.55,2,37.21-2,42.21S1161,1982.91,1154,2008s-9,64.29-7,104.51,48.23,138.69,65.32,166.84,19.1,108.57,37.17,152.79,35.18,72.35,37.19,86.42-2,23.13-5,52.27,25.62,85,25.62,85l-6,5c-3,2.52,0,5.53-.49,19.1s-14.58,52.27-18.11,59.8,2.51,16.09,2.51,16.09-2,4-6.52,12.57-21.63,75.38-21.63,75.38a56.86,56.86,0,0,1-7.52,1.51c-4,.49-1.5,6.52-5.54,18.56s-12.05,151.8-12.05,151.8,4,30.17,2,40.21-4,16.07-2,36.17,6,26.14,4,54.27-30.16,251.28-30.16,267.36-32.15,42.23-62.31,88.45-59.3,124.62-59.3,124.62-22.11,5-28.15,12.08-43.2,188.94-52.26,231.16-12.06,228.15-11,242.24-7,29.13-16.09,45.22-5.54,56.3-5.54,60.29v25.64c0,8.54-1.51,18.09,2.53,26.12s20.6,17.61,23.11,18.12,5.52,8.54,6.52,12.54,9.06,15.58,15.58,23.13,37.19,27.64,69.36,28.62,102.28-1.49,109.81-5,17.58-12.3,18.6-21.85-.51-20.86-.51-20.86,2-17.86-10.06-27.92-36.17-55.75-41.2-62.8-2-27.13-4-48.27-8-18.05-15.07-32.14,1-25.13,7-51.25-3-55.28,0-69.34,48.23-64.35,63.32-111.57,48.24-195,48.24-195,47.23-29.18,58.29-52.28,10-31.13,14.07-38.18,16.08-21.1,24.12-51.26,6-28.17,11.06-44.22,63.33-95.49,71.37-124.65,17.07-60.3,24.12-73.37,32.16-35.16,49.25-67.34,44.22-97.49,44.22-97.49,10.06,9.05,25.12,32.16,19.1,19.11,35.17,52.27,106.55,155.78,107.55,170.87,23.11,56.3,44.22,64.31S1811,3512.88,1817,3527s10,110.54,10,110.54-13.06,8.07-12.08,16.08,10.07,9.06,11.06,25.15,8,194,14.08,238.19,37.19,149.77,31.16,174.87-3,77.9-3,77.9a12.79,12.79,0,0,0-3,7.52c-.51,5.05,1.51,18.13-1.51,22.63s.49,27.64,5.53,31.67,87.44,23.14,93,22.36,20.61-4.27,28.91-6.54,38.44,7.05,45.22,11.82,30.16,20.09,47.24,23.1,163.58,12.33,173.37,6,25.88-29.63,25.39-34.68S2284.12,4242.33,2283.11,4237.79ZM1954,1458.76s-3.52,9.52-6,33.15,3.52,51.24-1.51,59.8-16.07,28.65-34.67,39.2-31.16,27.14-56.79,55.79-154.28,115.08-163.33,121.1a231.22,231.22,0,0,0,16.11-46.21c6-26.13,21.1-61.32,21.1-61.32s12,0,19.09-14.07,15.07-40.2,8-57.28-17.08-10.06-17.08-10.06-1-15.1,0-38.18,8-55.29,3-108.56S1678.63,1218,1678.63,1218Z"/></g><polygon class="cls-3" points="2146.12 3061.33 2136.34 2980.91 2106.99 2934.96 2080.9 2934.96 2061.33 2998.14 2061.33 3091.2 2124.92 3091.2 2146.12 3061.33"/><polygon class="cls-4" points="2542.97 2515.64 2428.02 2432.93 2562.54 2102.07 2601.67 2131.94 2584.55 2226.14 2601.67 2264.05 2601.67 2295.07 2552.76 2315.75 2564.98 2360.55 2586.99 2384.68 2542.97 2515.64"/><polygon class="cls-3" points="2498.57 3102.68 2469.22 3102.68 2469.22 3168.17 2430.09 3119.92 2366.5 3135.43 2354.27 3068.22 2339.6 3054.43 2293.13 3085.45 2217.31 2991.25 2307.8 2857.99 2498.57 3102.68"/><polygon class="cls-5" points="2466.78 2844.2 2466.78 2737.36 2425.2 2689.11 2357.94 2782.17 2357.94 2844.2 2412.36 2864.88 2466.78 2844.2"/><polygon class="cls-6" points="2217.31 2647.76 2217.31 2609.85 2192.86 2609.85 2174.92 2647.76 2196.12 2689.11 2217.31 2647.76"/><rect class="cls-7" x="3345.6" y="3123.36" width="384.79" height="202.19"/><rect class="cls-7" x="2907.82" y="3123.36" width="384.79" height="202.19"/><rect class="cls-7" x="3789.09" y="3123.36" width="384.79" height="202.19"/><polygon class="cls-8" points="2791.21 3061.33 2791.21 2864.88 2683.6 2864.88 2666.48 2899.35 2666.48 2934.96 2612.68 2934.96 2598 3013.08 2556.42 3013.08 2536.86 2982.06 2514.85 3013.08 2514.85 3061.33 2791.21 3061.33"/><polygon class="cls-9" points="2915.94 2599.51 2930.62 2540.92 2950.18 2516.79 2950.18 2475.44 2950.18 2375.49 2732.51 2530.58 2791.21 2689.11 2915.94 2599.51"/><polygon class="cls-10" points="2981.41 2268.65 2981.41 2075.65 2854.8 2075.65 2808.33 2141.13 2823.01 2203.17 2808.33 2268.65 2981.41 2268.65"/><polygon class="cls-11" points="2981.41 2649.48 2928.17 2649.48 2928.17 2689.11 2950.18 2716.68 2981.41 2689.11 2981.41 2649.48"/><polygon class="cls-12" points="3228.99 2527.51 3228.99 2341.03 3101.82 2341.03 3070.02 2375.49 3070.02 2420.29 3048.01 2451.31 3048.01 2478.88 2991.76 2516.79 3228.99 2527.51"/><rect class="cls-10" x="3036.6" y="2071.05" width="461.62" height="202.19"/><rect class="cls-10" x="3568.63" y="2071.05" width="461.62" height="202.19"/><rect class="cls-13" x="3036.6" y="2588.02" width="461.62" height="202.19"/><rect class="cls-13" x="3568.63" y="2588.02" width="461.62" height="202.19"/><rect class="cls-12" x="3328.04" y="2333.17" width="481.18" height="202.19"/><rect class="cls-8" x="3328.04" y="2862.01" width="481.18" height="202.19"/><rect class="cls-8" x="2833.06" y="2862.01" width="401.1" height="202.19"/><rect class="cls-14" x="3337.82" y="1797.64" width="461.62" height="202.19"/><rect class="cls-12" x="3865.94" y="2333.17" width="481.18" height="202.19"/><rect class="cls-8" x="3865.94" y="2862.01" width="481.18" height="202.19"/><rect class="cls-14" x="3936.64" y="1797.64" width="461.62" height="202.19"/><rect class="cls-10" x="4100.51" y="2071.05" width="461.62" height="202.19"/><rect class="cls-13" x="4100.51" y="2588.02" width="461.62" height="202.19"/><rect class="cls-10" x="4620.81" y="2071.05" width="258.19" height="202.19"/><rect class="cls-14" x="4970.7" y="1797.64" width="258.19" height="202.19"/><rect class="cls-12" x="4930.14" y="2333.17" width="258.19" height="202.19"/><rect class="cls-13" x="4620.81" y="2588.02" width="258.19" height="202.19"/><rect class="cls-13" x="5451.88" y="2588.02" width="258.19" height="202.19"/><rect class="cls-15" x="4930.14" y="2862.19" width="258.19" height="202.19"/><rect class="cls-7" x="4749.9" y="3123.36" width="258.19" height="202.19"/><rect class="cls-12" x="4397.82" y="2333.17" width="481.18" height="202.19"/><rect class="cls-13" x="4930.14" y="2588.02" width="481.18" height="202.19"/><rect class="cls-8" x="4397.82" y="2862.01" width="481.18" height="202.19"/><rect class="cls-8" x="5228.89" y="2862.01" width="481.18" height="202.19"/><rect class="cls-7" x="4227.94" y="3123.36" width="481.18" height="202.19"/><rect class="cls-7" x="5048.35" y="3123.36" width="481.18" height="202.19"/><rect class="cls-14" x="4468.53" y="1797.64" width="461.62" height="202.19"/><rect class="cls-10" x="5451.88" y="2071.05" width="258.19" height="202.19"/><rect class="cls-12" x="5228.89" y="2333.17" width="481.18" height="202.19"/><rect class="cls-14" x="5248.45" y="1797.64" width="461.62" height="202.19"/><rect class="cls-10" x="4937.68" y="2071.05" width="461.62" height="202.19"/><path class="cls-16" d="M340.77,3930.65V3395.92c0-14.84,2.52-26.75,7.6-35.64s11.65-13.53,19.76-14q50.79-2.73,101.59-5.36c64.49-3.28,113.43,16.89,146.68,58.49,33.26,41.77,49.62,108.28,49.14,201.32-1,198.18-64.92,310.41-191.07,339.95q-51.54,11.61-103,23.69Q340.77,3971.65,340.77,3930.65Zm116.47-425.34q-.25,128.83-.5,257.66c0,12.06.56,19.58,1.77,22.51s4.82,3.87,10.86,2.77c22.15-4,39-18.68,50.57-43.74s17.44-64.22,17.61-117.82-5.69-87.84-17.57-103-30.79-21.54-56.68-19Z"/><path class="cls-16" d="M908.8,3531.26q11.55-1.12,11.12,51.87a313.76,313.76,0,0,1-3,37.83q-2.93,21.93-10.2,22.9-38.58,5-77.13,10.23-.28,38.8-.56,77.6,55.82-8.71,111.68-17,10.32-1.51,13.68,31a232.08,232.08,0,0,1,1.56,30.08q-.13,16.14-4,42.25t-12.35,27.74q-103.72,19-207.2,39.93-23,4.68-22.84-20.19,1.46-257.82,2.93-515.63.12-20.86,14.12-21.51,109-5.09,218.06-9.7,12.79-.51,12.23,65.86t-13.36,67.39q-56.29,4.4-112.56,9-.29,39.2-.56,78.38Q869.58,3535.18,908.8,3531.26ZM791.89,3302.55c-3.66.14-8.3-4.89-13.91-15.2-7.22-14.44-10.8-26.74-10.73-36.75s1.32-16.62,3.78-19.82c66.56-48.49,100.53-70.88,101.74-71,4.06,0,9.1,6.15,15.11,18.35,9.2,17.81,13.75,34.47,13.62,50.21q-.06,8.39-3.14,12.25C828.14,3280.83,792.71,3302.64,791.89,3302.55Z"/><path class="cls-16" d="M1265.46,3314c22.46,8.64,33.59,20.86,33.41,36.9s-5.8,36.11-16.83,60.47-20.21,37-27.52,37.47q-3.06.22-7-3.33t-18.19-7.09c-9.52-2.37-17.73-3.34-24.63-2.86-23.57,1.62-42.66,12.6-57.27,33.26s-22.13,51.33-22.54,91.78,6.68,69.66,21.29,87.31,33.27,24.88,56,22q14-1.77,31.41-8.5t24.8-15.89c.82-1,2.46-1.67,4.89-2s7,4.37,13.53,13.92,12.62,22.33,18.12,38.32,8.19,28.52,8.09,37.66c-.21,17.84-12.55,33.73-37,48.07s-53.34,24.31-86.58,29.78c-53.53,8.83-97.25-5.67-131.25-45.64s-50.63-102.56-49.87-186.44,19.09-151.48,55.09-200.75,80.62-74,133.87-75.9C1216.94,3301.5,1243,3305.41,1265.46,3314Z"/><path class="cls-16" d="M1530.69,3759.07c-57.17,7.65-103.47-5.81-138.94-42.35s-52.75-95.41-51.82-175.54,19.82-142.22,56.7-184.6,84.08-63.78,141.65-65.43,103.79,16.34,138.73,52.6,51.94,91.71,51,167.22-19.77,133.16-56.48,174.42S1587.84,3751.43,1530.69,3759.07Zm4.52-343c-19.52,1.11-36,11.63-49.47,31.79s-20.39,47.89-20.81,82.93,5.55,61.33,17.93,78.68,28.84,24.83,49.39,22.66,37.35-13.17,50.39-32.84,19.79-46.48,20.21-80.67-5.87-60-18.86-77.62S1554.74,3415,1535.21,3416.12Z"/><path class="cls-16" d="M2109.8,3677.88c-.09,8.17-19.34,13.77-57.72,17.11s-59.17,2.34-62.36-3.32q-50.06-88.08-99.94-179.1l-2.28,188.2c-.09,7.27-19,12.76-56.73,16.76s-56.52,2.44-56.43-5q2.57-206.84,5.12-413.66.12-9.28,48.34-10.49a342.65,342.65,0,0,1,44.22,2.27q25.29,2.73,30.68,11.64,47.73,91.74,95.57,180.42,1.1-93.21,2.18-186.42.12-11.27,56.92-12.46t56.67,10Q2111.93,3485.85,2109.8,3677.88Z"/><path class="cls-16" d="M2355.6,3664.08c-.06,7.52-20.35,12.46-60.83,15.16s-60.67.41-60.59-7.25l2.91-287.31q-36.69,1.14-73.37,2.37c-6.93.23-11.73-8.47-14.38-26.17a181,181,0,0,1-1.55-26,184.22,184.22,0,0,1,2.11-26.13q4.56-26.74,14.95-26.93,132.84-2.41,265.71-4.11,10.38-.13,14.45,25.49a172.77,172.77,0,0,1-.41,50.22q-4.5,25.76-14.89,26-35.77.85-71.55,1.8Q2356.89,3522.65,2355.6,3664.08Z"/><path class="cls-16" d="M2767.41,3656.15c-35.62,1-54.85-3.5-57.66-13.61q-9.95-34.87-19.88-69.83-48.76,1.34-97.52,3-9.12,34.42-18.25,68.95c-2.53,11.5-22.21,18-59,19.75-19.64.93-34.16.66-43.55-.9s-14.09-2.9-14.08-4q55.82-191.4,111.17-378.44,0-4.41,83.73-5.19t83.69,3.72q52,184.29,104.5,366.73,0,3.79-28.27,6.56T2767.41,3656.15Zm-159.29-150.74q32.16-.88,64.34-1.66Q2659,3447.47,2645.55,3391l-3.67.06Q2625,3448.08,2608.12,3505.41Z"/><path class="cls-16" d="M3311.05,3653.74c-36.46-.71-54.68-4.54-54.7-11.76q-6.72-108.48-13.39-216.89-37.11,109.44-74.44,218.63c-1.63,4.32-15.55,6.34-41.76,6.24s-39.73-2.06-40.55-6q-38.7-110.82-77.17-221.49-4.39,107.63-8.82,215.28-.63,8.1-23.35,11.23a308.91,308.91,0,0,1-37.78,3.36,259.63,259.63,0,0,1-29.18-1.24q-29.47-3.35-28.83-13.07,7.55-176,15-351.72,0-13,74.58-13.19,22-.06,53.77,2.88t35.44,11.56q34.2,84.91,68.57,169.9,30-85.14,59.78-170.31,5.48-14,84.31-13.79,22.59.09,54.08,3.22t31.51,10.75q9.55,178.09,19.18,356.5,0,6-23.91,8.11A392.83,392.83,0,0,1,3311.05,3653.74Z"/><path class="cls-16" d="M3478.2,3563.64l-1-194.57q-21.72-.3-43.44-.58-10.41-.13-14.79-23.6a150.72,150.72,0,0,1-.22-46.83q4.15-23.37,14.56-23.31,102.66.72,205.29,1.85,10.39.12,14.23,24a117.71,117.71,0,0,1,2.63,23.88,115.14,115.14,0,0,1-2.27,23.81q-3.48,23.77-13.89,23.55-20.49-.4-41-.78l1.35,196.4q21.47.76,42.92,1.6,10.42.38,14.89,24.42a118.26,118.26,0,0,1,2.64,24,114.14,114.14,0,0,1-2.28,23.74q-4.12,23.66-14.55,23.14-103.42-4.92-206.9-8-10.46-.33-14.24-23.84a112,112,0,0,1-2.56-23.48,110.11,110.11,0,0,1,2.34-23.35q3.57-23.33,14-23.08Q3457,3563.06,3478.2,3563.64Z"/><path class="cls-16" d="M4037.46,3676.86c.1,8.16-19.06,10.63-57.47,7.69s-59.3-7.21-62.62-13.16q-52.1-92.73-104-182.71.8,87.74,1.6,175.47c.07,6.78-18.82,8.95-56.65,6.76s-56.78-6.45-56.84-13.14q-1.49-186.34-3-372.68-.08-8.36,48.19-7.75A371.8,371.8,0,0,1,3791,3281q25.38,3.47,31,12,49.68,87.79,99.52,177.93-.9-89.84-1.81-179.66-.1-10.85,56.69-9.89t56.92,12.09Q4035.37,3485.2,4037.46,3676.86Z"/><path class="cls-16" d="M4386.55,3724.35c-35.46-3.94-54.72-11.66-57.7-23.36q-10.58-40.48-21.15-80.66-48.61-4.2-97.25-8.07-8.43,36.4-16.87,72.59c-2.3,12.14-21.83,16.4-58.57,13.1q-29.4-2.62-43.53-7t-14.14-6.16q52-193.62,103.65-393.91c0-3.16,27.83-4.18,83.59-2.87s83.65,3.67,83.7,6.95q55.36,209.67,110.9,428.32,0,4.39-28,3.65T4386.55,3724.35Zm-161.72-187.09q32.1,2.16,64.2,4.43-14.52-63.81-29-127l-3.67-.18Q4240.61,3476.25,4224.83,3537.26Z"/><path class="cls-16" d="M4683.24,3749.27c.1,8.81-20,10.39-60.25,5.05s-60.49-12.07-60.6-20.63q-2-161-4-321.92-36.62-2-73.25-3.88-10.38-.54-15-29.71a219.24,219.24,0,0,1-2.18-28.4,213.3,213.3,0,0,1,1.48-28.25q3.9-28.82,14.28-28.56,132.75,3.69,265.42,8.07,10.36.35,15,31.39a247.51,247.51,0,0,1,2.19,30.32,242.25,242.25,0,0,1-1.47,30.15q-3.9,30.69-14.27,30-35.68-2.2-71.37-4.3Q4681.22,3583.94,4683.24,3749.27Z"/><path class="cls-16" d="M4844.77,3665.46q-1.41-121.82-2.8-243.62-21.65-1.37-43.29-2.7-10.38-.64-15-29.92a228.11,228.11,0,0,1-2.17-29.11,225.14,225.14,0,0,1,1.49-28.93q3.91-28.84,14.29-28.53,102.48,3.48,204.89,7.38,10.36.38,14.34,31.27a195.52,195.52,0,0,1,2.75,30.87,189.72,189.72,0,0,1-2.12,30.6c-2.22,20.35-6.79,30.24-13.69,29.76q-20.41-1.41-40.83-2.79l2.7,251q21.3,2.78,42.6,5.63,10.34,1.38,14.91,32.71a200.31,200.31,0,0,1,2.75,31.12,185.79,185.79,0,0,1-2.11,30.39c-2.63,20.06-7.39,29.48-14.28,28.34q-102.47-16.89-205.14-32-10.36-1.53-14.35-31.08a175.65,175.65,0,0,1-2.78-29.36,165.39,165.39,0,0,1,2.09-28.71c2.21-19,6.77-28.19,13.68-27.37Q4823.75,3662.9,4844.77,3665.46Z"/><path class="cls-16" d="M5247.63,3858.27c-56.8-10.73-103.35-42.05-139.62-92.51s-54.89-117.16-55.74-201.94,16.67-147.45,52.59-189.85,82.65-63.26,140.14-60.94,104.05,27.15,139.65,76.43,53.64,123.24,54.2,220.08-17,166.15-52.63,206S5304.41,3869,5247.63,3858.27Zm-3-399.67c-19.47-1.56-35.72,8.26-48.7,29.06s-19.31,50.8-19,90.26,6.9,70.48,19.65,93.41,29.33,36,49.77,39,36.94-5.37,49.52-25.6,18.73-51.07,18.42-92.3-7.12-73.63-20.47-96.85S5264.14,3460.15,5244.66,3458.6Z"/><path class="cls-16" d="M5819.37,3952c0,12.51-18.85,14.23-56.58,5.44s-58.25-17.69-61.48-27q-50.6-145.53-101.67-283,.45,130.09.92,260.18c0,10.06-18.56,11-55.8,3s-55.92-16.63-56-26.34q-1.41-271.12-2.81-542.24-.06-12.13,48-9.85,18.85.92,44.15,6.73t30.79,18.77q49.11,131.94,97.82,271.26l-.51-270.87q0-16.35,56.55-13.41t56.56,20Z"/><path class="cls-17" d="M340.77,4006.76V3472c0-14.85,2.52-26.76,7.6-35.65s11.65-13.53,19.76-14q50.79-2.73,101.59-5.37c64.49-3.27,113.43,16.9,146.68,58.5,33.26,41.76,49.62,108.27,49.14,201.32-1,198.18-64.92,310.41-191.07,339.95q-51.54,11.61-103,23.68Q340.77,4047.77,340.77,4006.76Zm116.47-425.33q-.25,128.82-.5,257.66,0,18.09,1.77,22.51c1.2,2.93,4.82,3.86,10.86,2.76,22.15-4,39-18.68,50.57-43.74s17.44-64.22,17.61-117.82-5.69-87.83-17.57-103-30.79-21.55-56.68-19Z"/><path class="cls-17" d="M908.8,3607.38q11.55-1.12,11.12,51.86a313.76,313.76,0,0,1-3,37.83Q914,3719,906.68,3720q-38.58,5-77.13,10.23-.28,38.81-.56,77.6,55.82-8.72,111.68-17c6.88-1,11.45,9.33,13.68,30.94a232.17,232.17,0,0,1,1.56,30.08c-.09,10.76-1.42,24.82-4,42.26s-6.69,26.69-12.35,27.73q-103.72,19-207.2,39.94-23,4.66-22.84-20.2,1.46-257.81,2.93-515.63.12-20.86,14.12-21.5,109-5.09,218.06-9.71,12.79-.51,12.23,65.87T943.5,3528q-56.29,4.38-112.56,9-.29,39.18-.56,78.38Q869.58,3611.29,908.8,3607.38ZM791.89,3378.66c-3.66.14-8.3-4.89-13.91-15.2-7.22-14.44-10.8-26.73-10.73-36.74s1.32-16.62,3.78-19.83c66.56-48.48,100.53-70.88,101.74-71,4.06,0,9.1,6.15,15.11,18.35,9.2,17.8,13.75,34.46,13.62,50.2q-.06,8.39-3.14,12.25C828.14,3356.94,792.71,3378.75,791.89,3378.66Z"/><path class="cls-17" d="M1265.46,3390.14c22.46,8.63,33.59,20.86,33.41,36.89s-5.8,36.12-16.83,60.47-20.21,36.95-27.52,37.48c-2,.14-4.36-1-7-3.33s-8.68-4.72-18.19-7.1-17.73-3.33-24.63-2.86c-23.57,1.63-42.66,12.6-57.27,33.26s-22.13,51.34-22.54,91.79,6.68,69.66,21.29,87.3,33.27,24.88,56,22q14-1.78,31.41-8.51t24.8-15.88c.82-1,2.46-1.68,4.89-2s7,4.38,13.53,13.92,12.62,22.34,18.12,38.32,8.19,28.52,8.09,37.67c-.21,17.84-12.55,33.73-37,48.06s-53.34,24.32-86.58,29.78c-53.53,8.83-97.25-5.67-131.25-45.63s-50.63-102.56-49.87-186.44,19.09-151.49,55.09-200.75,80.62-74,133.87-75.9C1216.94,3377.62,1243,3381.53,1265.46,3390.14Z"/><path class="cls-17" d="M1530.69,3835.19c-57.17,7.65-103.47-5.81-138.94-42.35s-52.75-95.41-51.82-175.55,19.82-142.22,56.7-184.6,84.08-63.78,141.65-65.43,103.79,16.34,138.73,52.61,51.94,91.71,51,167.21-19.77,133.16-56.48,174.42S1587.84,3827.54,1530.69,3835.19Zm4.52-343c-19.52,1.1-36,11.63-49.47,31.79s-20.39,47.89-20.81,82.92,5.55,61.34,17.93,78.69,28.84,24.82,49.39,22.66,37.35-13.17,50.39-32.85,19.79-46.48,20.21-80.66-5.87-60-18.86-77.63S1554.74,3491.13,1535.21,3492.24Z"/><path class="cls-17" d="M2109.8,3754c-.09,8.16-19.34,13.77-57.72,17.1s-59.17,2.35-62.36-3.32q-50.06-88.08-99.94-179.1l-2.28,188.21c-.09,7.26-19,12.76-56.73,16.75s-56.52,2.45-56.43-5q2.57-206.83,5.12-413.66.12-9.28,48.34-10.49a342.65,342.65,0,0,1,44.22,2.27q25.29,2.73,30.68,11.64,47.73,91.76,95.57,180.43,1.1-93.21,2.18-186.42.12-11.28,56.92-12.46t56.67,10Q2111.93,3562,2109.8,3754Z"/><path class="cls-17" d="M2355.6,3740.19c-.06,7.53-20.35,12.47-60.83,15.16s-60.67.42-60.59-7.24l2.91-287.32q-36.69,1.14-73.37,2.37-10.39.35-14.38-26.16a181.1,181.1,0,0,1-1.55-26,184.22,184.22,0,0,1,2.11-26.13q4.56-26.74,14.95-26.93,132.84-2.4,265.71-4.1,10.38-.14,14.45,25.48a172.76,172.76,0,0,1-.41,50.22q-4.5,25.77-14.89,26-35.77.86-71.55,1.8Q2356.89,3598.76,2355.6,3740.19Z"/><path class="cls-17" d="M2767.41,3732.27c-35.62.95-54.85-3.5-57.66-13.61q-9.95-34.87-19.88-69.84-48.76,1.33-97.52,3-9.12,34.43-18.25,69c-2.53,11.5-22.21,18-59,19.74-19.64.94-34.16.67-43.55-.9s-14.09-2.89-14.08-4q55.82-191.41,111.17-378.44,0-4.42,83.73-5.19t83.69,3.71q52,184.29,104.5,366.73c0,2.54-9.44,4.71-28.27,6.57S2778.46,3732,2767.41,3732.27Zm-159.29-150.75q32.16-.89,64.34-1.65-13.47-56.28-26.91-112.76l-3.67.07Q2625,3524.2,2608.12,3581.52Z"/><path class="cls-17" d="M3311.05,3729.85c-36.46-.7-54.68-4.53-54.7-11.75q-6.72-108.49-13.39-216.89-37.11,109.42-74.44,218.62c-1.63,4.32-15.55,6.35-41.76,6.24s-39.73-2.05-40.55-6q-38.7-110.82-77.17-221.49-4.39,107.63-8.82,215.28-.63,8.1-23.35,11.24a310.92,310.92,0,0,1-37.78,3.36,262,262,0,0,1-29.18-1.24c-19.65-2.24-29.26-6.57-28.83-13.08q7.55-175.95,15-351.72,0-13,74.58-13.19,22,0,53.77,2.88t35.44,11.57q34.2,84.9,68.57,169.89,30-85.12,59.78-170.31,5.48-14,84.31-13.78,22.59.09,54.08,3.21t31.51,10.75q9.55,178.1,19.18,356.5,0,6-23.91,8.12A390,390,0,0,1,3311.05,3729.85Z"/><path class="cls-17" d="M3478.2,3639.75l-1-194.56q-21.72-.32-43.44-.58-10.41-.14-14.79-23.6a150.72,150.72,0,0,1-.22-46.83q4.15-23.37,14.56-23.32,102.66.72,205.29,1.85,10.39.12,14.23,24a117.71,117.71,0,0,1,2.63,23.88,115.14,115.14,0,0,1-2.27,23.81q-3.48,23.78-13.89,23.56-20.49-.4-41-.79l1.35,196.41q21.47.77,42.92,1.59,10.42.39,14.89,24.43a118.09,118.09,0,0,1,2.64,24,114.14,114.14,0,0,1-2.28,23.74c-2.75,15.78-7.6,23.47-14.55,23.15q-103.42-4.92-206.9-8-10.46-.32-14.24-23.83a112,112,0,0,1-2.56-23.49,110.11,110.11,0,0,1,2.34-23.35q3.57-23.32,14-23.08Q3457,3639.17,3478.2,3639.75Z"/><path class="cls-17" d="M4037.46,3753c.1,8.17-19.06,10.64-57.47,7.7s-59.3-7.22-62.62-13.16q-52.1-92.75-104-182.72.8,87.74,1.6,175.47c.07,6.78-18.82,8.95-56.65,6.77s-56.78-6.46-56.84-13.15q-1.49-186.33-3-372.67-.08-8.36,48.19-7.75a371.57,371.57,0,0,1,44.32,3.69q25.38,3.48,31,12,49.68,87.79,99.52,177.92-.9-89.82-1.81-179.65-.1-10.85,56.69-9.9t56.92,12.09Q4035.37,3561.32,4037.46,3753Z"/><path class="cls-17" d="M4386.55,3800.47c-35.46-3.94-54.72-11.67-57.7-23.37q-10.58-40.48-21.15-80.65-48.61-4.22-97.25-8.08-8.43,36.4-16.87,72.59c-2.3,12.14-21.83,16.41-58.57,13.1q-29.4-2.62-43.53-7t-14.14-6.17q52-193.62,103.65-393.91c0-3.16,27.83-4.17,83.59-2.87s83.65,3.68,83.7,6.95q55.36,209.67,110.9,428.32,0,4.41-28,3.65T4386.55,3800.47Zm-161.72-187.09q32.1,2.14,64.2,4.43-14.52-63.82-29-127l-3.67-.17Q4240.61,3552.38,4224.83,3613.38Z"/><path class="cls-17" d="M4683.24,3825.38c.1,8.81-20,10.39-60.25,5.06s-60.49-12.07-60.6-20.64q-2-161-4-321.91-36.62-2-73.25-3.89-10.38-.54-15-29.71a219.24,219.24,0,0,1-2.18-28.4,213.3,213.3,0,0,1,1.48-28.25q3.9-28.8,14.28-28.55,132.75,3.69,265.42,8.06,10.36.34,15,31.4a247.36,247.36,0,0,1,2.19,30.32,242.44,242.44,0,0,1-1.47,30.15q-3.9,30.67-14.27,30-35.68-2.19-71.37-4.29Q4681.22,3660,4683.24,3825.38Z"/><path class="cls-17" d="M4844.77,3741.58q-1.41-121.82-2.8-243.62-21.65-1.36-43.29-2.71-10.38-.63-15-29.92a228.09,228.09,0,0,1-2.17-29.1,225.29,225.29,0,0,1,1.49-28.94q3.91-28.85,14.29-28.52,102.48,3.48,204.89,7.37,10.36.39,14.34,31.28a195.4,195.4,0,0,1,2.75,30.86,189.64,189.64,0,0,1-2.12,30.6c-2.22,20.36-6.79,30.24-13.69,29.77q-20.41-1.41-40.83-2.79l2.7,250.95q21.3,2.79,42.6,5.63,10.34,1.38,14.91,32.72a200.31,200.31,0,0,1,2.75,31.12,185.67,185.67,0,0,1-2.11,30.38c-2.63,20.06-7.39,29.48-14.28,28.34q-102.47-16.89-205.14-32-10.36-1.51-14.35-31.08a175.55,175.55,0,0,1-2.78-29.36,165.46,165.46,0,0,1,2.09-28.71c2.21-19,6.77-28.19,13.68-27.37Q4823.75,3739,4844.77,3741.58Z"/><path class="cls-17" d="M5247.63,3934.38c-56.8-10.72-103.35-42.05-139.62-92.51s-54.89-117.16-55.74-201.94,16.67-147.44,52.59-189.84,82.65-63.26,140.14-61,104.05,27.15,139.65,76.43,53.64,123.24,54.2,220.08-17,166.15-52.63,206S5304.41,3945.1,5247.63,3934.38Zm-3-399.67c-19.47-1.55-35.72,8.26-48.7,29.06s-19.31,50.81-19,90.26,6.9,70.48,19.65,93.41,29.33,36,49.77,39,36.94-5.37,49.52-25.6,18.73-51.08,18.42-92.31-7.12-73.63-20.47-96.85S5264.14,3536.26,5244.66,3534.71Z"/><path class="cls-17" d="M5819.37,4028.15c0,12.52-18.85,14.23-56.58,5.44s-58.25-17.68-61.48-27q-50.6-145.55-101.67-283,.45,130.08.92,260.18c0,10.06-18.56,11-55.8,3s-55.92-16.62-56-26.34q-1.41-271.11-2.81-542.24-.06-12.12,48-9.85,18.85.91,44.15,6.73t30.79,18.77q49.11,131.94,97.82,271.26l-.51-270.87q0-16.33,56.55-13.4t56.56,20Z"/><path class="cls-17" d="M340.77,3930.65V3395.92c0-14.84,2.52-26.75,7.6-35.64s11.65-13.53,19.76-14q50.79-2.73,101.59-5.36c64.49-3.28,113.43,16.89,146.68,58.49,33.26,41.77,49.62,108.28,49.14,201.32-1,198.18-64.92,310.41-191.07,339.95q-51.54,11.61-103,23.69Q340.77,3971.65,340.77,3930.65Zm116.47-425.34q-.25,128.83-.5,257.66c0,12.06.56,19.58,1.77,22.51s4.82,3.87,10.86,2.77c22.15-4,39-18.68,50.57-43.74s17.44-64.22,17.61-117.82-5.69-87.84-17.57-103-30.79-21.54-56.68-19Z"/><path class="cls-17" d="M908.8,3531.26q11.55-1.12,11.12,51.87a313.76,313.76,0,0,1-3,37.83q-2.93,21.93-10.2,22.9-38.58,5-77.13,10.23-.28,38.8-.56,77.6,55.82-8.71,111.68-17,10.32-1.51,13.68,31a232.08,232.08,0,0,1,1.56,30.08q-.13,16.14-4,42.25t-12.35,27.74q-103.72,19-207.2,39.93-23,4.68-22.84-20.19,1.46-257.82,2.93-515.63.12-20.86,14.12-21.51,109-5.09,218.06-9.7,12.79-.51,12.23,65.86t-13.36,67.39q-56.29,4.4-112.56,9-.29,39.2-.56,78.38Q869.58,3535.18,908.8,3531.26ZM791.89,3302.55c-3.66.14-8.3-4.89-13.91-15.2-7.22-14.44-10.8-26.74-10.73-36.75s1.32-16.62,3.78-19.82c66.56-48.49,100.53-70.88,101.74-71,4.06,0,9.1,6.15,15.11,18.35,9.2,17.81,13.75,34.47,13.62,50.21q-.06,8.39-3.14,12.25C828.14,3280.83,792.71,3302.64,791.89,3302.55Z"/><path class="cls-17" d="M1265.46,3314c22.46,8.64,33.59,20.86,33.41,36.9s-5.8,36.11-16.83,60.47-20.21,37-27.52,37.47q-3.06.22-7-3.33t-18.19-7.09c-9.52-2.37-17.73-3.34-24.63-2.86-23.57,1.62-42.66,12.6-57.27,33.26s-22.13,51.33-22.54,91.78,6.68,69.66,21.29,87.31,33.27,24.88,56,22q14-1.77,31.41-8.5t24.8-15.89c.82-1,2.46-1.67,4.89-2s7,4.37,13.53,13.92,12.62,22.33,18.12,38.32,8.19,28.52,8.09,37.66c-.21,17.84-12.55,33.73-37,48.07s-53.34,24.31-86.58,29.78c-53.53,8.83-97.25-5.67-131.25-45.64s-50.63-102.56-49.87-186.44,19.09-151.48,55.09-200.75,80.62-74,133.87-75.9C1216.94,3301.5,1243,3305.41,1265.46,3314Z"/><path class="cls-17" d="M1530.69,3759.07c-57.17,7.65-103.47-5.81-138.94-42.35s-52.75-95.41-51.82-175.54,19.82-142.22,56.7-184.6,84.08-63.78,141.65-65.43,103.79,16.34,138.73,52.6,51.94,91.71,51,167.22-19.77,133.16-56.48,174.42S1587.84,3751.43,1530.69,3759.07Zm4.52-343c-19.52,1.11-36,11.63-49.47,31.79s-20.39,47.89-20.81,82.93,5.55,61.33,17.93,78.68,28.84,24.83,49.39,22.66,37.35-13.17,50.39-32.84,19.79-46.48,20.21-80.67-5.87-60-18.86-77.62S1554.74,3415,1535.21,3416.12Z"/><path class="cls-17" d="M2109.8,3677.88c-.09,8.17-19.34,13.77-57.72,17.11s-59.17,2.34-62.36-3.32q-50.06-88.08-99.94-179.1l-2.28,188.2c-.09,7.27-19,12.76-56.73,16.76s-56.52,2.44-56.43-5q2.57-206.84,5.12-413.66.12-9.28,48.34-10.49a342.65,342.65,0,0,1,44.22,2.27q25.29,2.73,30.68,11.64,47.73,91.74,95.57,180.42,1.1-93.21,2.18-186.42.12-11.27,56.92-12.46t56.67,10Q2111.93,3485.85,2109.8,3677.88Z"/><path class="cls-17" d="M2355.6,3664.08c-.06,7.52-20.35,12.46-60.83,15.16s-60.67.41-60.59-7.25l2.91-287.31q-36.69,1.14-73.37,2.37c-6.93.23-11.73-8.47-14.38-26.17a181,181,0,0,1-1.55-26,184.22,184.22,0,0,1,2.11-26.13q4.56-26.74,14.95-26.93,132.84-2.41,265.71-4.11,10.38-.13,14.45,25.49a172.77,172.77,0,0,1-.41,50.22q-4.5,25.76-14.89,26-35.77.85-71.55,1.8Q2356.89,3522.65,2355.6,3664.08Z"/><path class="cls-17" d="M2767.41,3656.15c-35.62,1-54.85-3.5-57.66-13.61q-9.95-34.87-19.88-69.83-48.76,1.34-97.52,3-9.12,34.42-18.25,68.95c-2.53,11.5-22.21,18-59,19.75-19.64.93-34.16.66-43.55-.9s-14.09-2.9-14.08-4q55.82-191.4,111.17-378.44,0-4.41,83.73-5.19t83.69,3.72q52,184.29,104.5,366.73,0,3.79-28.27,6.56T2767.41,3656.15Zm-159.29-150.74q32.16-.88,64.34-1.66Q2659,3447.47,2645.55,3391l-3.67.06Q2625,3448.08,2608.12,3505.41Z"/><path class="cls-17" d="M3311.05,3653.74c-36.46-.71-54.68-4.54-54.7-11.76q-6.72-108.48-13.39-216.89-37.11,109.44-74.44,218.63c-1.63,4.32-15.55,6.34-41.76,6.24s-39.73-2.06-40.55-6q-38.7-110.82-77.17-221.49-4.39,107.63-8.82,215.28-.63,8.1-23.35,11.23a308.91,308.91,0,0,1-37.78,3.36,259.63,259.63,0,0,1-29.18-1.24q-29.47-3.35-28.83-13.07,7.55-176,15-351.72,0-13,74.58-13.19,22-.06,53.77,2.88t35.44,11.56q34.2,84.91,68.57,169.9,30-85.14,59.78-170.31,5.48-14,84.31-13.79,22.59.09,54.08,3.22t31.51,10.75q9.55,178.09,19.18,356.5,0,6-23.91,8.11A392.83,392.83,0,0,1,3311.05,3653.74Z"/><path class="cls-17" d="M3478.2,3563.64l-1-194.57q-21.72-.3-43.44-.58-10.41-.13-14.79-23.6a150.72,150.72,0,0,1-.22-46.83q4.15-23.37,14.56-23.31,102.66.72,205.29,1.85,10.39.12,14.23,24a117.71,117.71,0,0,1,2.63,23.88,115.14,115.14,0,0,1-2.27,23.81q-3.48,23.77-13.89,23.55-20.49-.4-41-.78l1.35,196.4q21.47.76,42.92,1.6,10.42.38,14.89,24.42a118.26,118.26,0,0,1,2.64,24,114.14,114.14,0,0,1-2.28,23.74q-4.12,23.66-14.55,23.14-103.42-4.92-206.9-8-10.46-.33-14.24-23.84a112,112,0,0,1-2.56-23.48,110.11,110.11,0,0,1,2.34-23.35q3.57-23.33,14-23.08Q3457,3563.06,3478.2,3563.64Z"/><path class="cls-17" d="M4037.46,3676.86c.1,8.16-19.06,10.63-57.47,7.69s-59.3-7.21-62.62-13.16q-52.1-92.73-104-182.71.8,87.74,1.6,175.47c.07,6.78-18.82,8.95-56.65,6.76s-56.78-6.45-56.84-13.14q-1.49-186.34-3-372.68-.08-8.36,48.19-7.75A371.8,371.8,0,0,1,3791,3281q25.38,3.47,31,12,49.68,87.79,99.52,177.93-.9-89.84-1.81-179.66-.1-10.85,56.69-9.89t56.92,12.09Q4035.37,3485.2,4037.46,3676.86Z"/><path class="cls-17" d="M4386.55,3724.35c-35.46-3.94-54.72-11.66-57.7-23.36q-10.58-40.48-21.15-80.66-48.61-4.2-97.25-8.07-8.43,36.4-16.87,72.59c-2.3,12.14-21.83,16.4-58.57,13.1q-29.4-2.62-43.53-7t-14.14-6.16q52-193.62,103.65-393.91c0-3.16,27.83-4.18,83.59-2.87s83.65,3.67,83.7,6.95q55.36,209.67,110.9,428.32,0,4.39-28,3.65T4386.55,3724.35Zm-161.72-187.09q32.1,2.16,64.2,4.43-14.52-63.81-29-127l-3.67-.18Q4240.61,3476.25,4224.83,3537.26Z"/><path class="cls-17" d="M4683.24,3749.27c.1,8.81-20,10.39-60.25,5.05s-60.49-12.07-60.6-20.63q-2-161-4-321.92-36.62-2-73.25-3.88-10.38-.54-15-29.71a219.24,219.24,0,0,1-2.18-28.4,213.3,213.3,0,0,1,1.48-28.25q3.9-28.82,14.28-28.56,132.75,3.69,265.42,8.07,10.36.35,15,31.39a247.51,247.51,0,0,1,2.19,30.32,242.25,242.25,0,0,1-1.47,30.15q-3.9,30.69-14.27,30-35.68-2.2-71.37-4.3Q4681.22,3583.94,4683.24,3749.27Z"/><path class="cls-17" d="M4844.77,3665.46q-1.41-121.82-2.8-243.62-21.65-1.37-43.29-2.7-10.38-.64-15-29.92a228.11,228.11,0,0,1-2.17-29.11,225.14,225.14,0,0,1,1.49-28.93q3.91-28.84,14.29-28.53,102.48,3.48,204.89,7.38,10.36.38,14.34,31.27a195.52,195.52,0,0,1,2.75,30.87,189.72,189.72,0,0,1-2.12,30.6c-2.22,20.35-6.79,30.24-13.69,29.76q-20.41-1.41-40.83-2.79l2.7,251q21.3,2.78,42.6,5.63,10.34,1.38,14.91,32.71a200.31,200.31,0,0,1,2.75,31.12,185.79,185.79,0,0,1-2.11,30.39c-2.63,20.06-7.39,29.48-14.28,28.34q-102.47-16.89-205.14-32-10.36-1.53-14.35-31.08a175.65,175.65,0,0,1-2.78-29.36,165.39,165.39,0,0,1,2.09-28.71c2.21-19,6.77-28.19,13.68-27.37Q4823.75,3662.9,4844.77,3665.46Z"/><path class="cls-17" d="M5247.63,3858.27c-56.8-10.73-103.35-42.05-139.62-92.51s-54.89-117.16-55.74-201.94,16.67-147.45,52.59-189.85,82.65-63.26,140.14-60.94,104.05,27.15,139.65,76.43,53.64,123.24,54.2,220.08-17,166.15-52.63,206S5304.41,3869,5247.63,3858.27Zm-3-399.67c-19.47-1.56-35.72,8.26-48.7,29.06s-19.31,50.8-19,90.26,6.9,70.48,19.65,93.41,29.33,36,49.77,39,36.94-5.37,49.52-25.6,18.73-51.07,18.42-92.3-7.12-73.63-20.47-96.85S5264.14,3460.15,5244.66,3458.6Z"/><path class="cls-17" d="M5819.37,3952c0,12.51-18.85,14.23-56.58,5.44s-58.25-17.69-61.48-27q-50.6-145.53-101.67-283,.45,130.09.92,260.18c0,10.06-18.56,11-55.8,3s-55.92-16.63-56-26.34q-1.41-271.12-2.81-542.24-.06-12.13,48-9.85,18.85.92,44.15,6.73t30.79,18.77q49.11,131.94,97.82,271.26l-.51-270.87q0-16.35,56.55-13.41t56.56,20Z"/><path class="cls-18" d="M340.77,3930.65V3395.92c0-14.84,2.52-26.75,7.6-35.64s11.65-13.53,19.76-14q50.79-2.73,101.59-5.36c64.49-3.28,113.43,16.89,146.68,58.49,33.26,41.77,49.62,108.28,49.14,201.32-1,198.18-64.92,310.41-191.07,339.95q-51.54,11.61-103,23.69Q340.77,3971.65,340.77,3930.65Zm116.47-425.34q-.25,128.83-.5,257.66c0,12.06.56,19.58,1.77,22.51s4.82,3.87,10.86,2.77c22.15-4,39-18.68,50.57-43.74s17.44-64.22,17.61-117.82-5.69-87.84-17.57-103-30.79-21.54-56.68-19Z"/><path class="cls-18" d="M908.8,3531.26q11.55-1.12,11.12,51.87a313.76,313.76,0,0,1-3,37.83q-2.93,21.93-10.2,22.9-38.58,5-77.13,10.23-.28,38.8-.56,77.6,55.82-8.71,111.68-17,10.32-1.51,13.68,31a232.08,232.08,0,0,1,1.56,30.08q-.13,16.14-4,42.25t-12.35,27.74q-103.72,19-207.2,39.93-23,4.68-22.84-20.19,1.46-257.82,2.93-515.63.12-20.86,14.12-21.51,109-5.09,218.06-9.7,12.79-.51,12.23,65.86t-13.36,67.39q-56.29,4.4-112.56,9-.29,39.2-.56,78.38Q869.58,3535.18,908.8,3531.26ZM791.89,3302.55c-3.66.14-8.3-4.89-13.91-15.2-7.22-14.44-10.8-26.74-10.73-36.75s1.32-16.62,3.78-19.82c66.56-48.49,100.53-70.88,101.74-71,4.06,0,9.1,6.15,15.11,18.35,9.2,17.81,13.75,34.47,13.62,50.21q-.06,8.39-3.14,12.25C828.14,3280.83,792.71,3302.64,791.89,3302.55Z"/><path class="cls-18" d="M1265.46,3314c22.46,8.64,33.59,20.86,33.41,36.9s-5.8,36.11-16.83,60.47-20.21,37-27.52,37.47q-3.06.22-7-3.33t-18.19-7.09c-9.52-2.37-17.73-3.34-24.63-2.86-23.57,1.62-42.66,12.6-57.27,33.26s-22.13,51.33-22.54,91.78,6.68,69.66,21.29,87.31,33.27,24.88,56,22q14-1.77,31.41-8.5t24.8-15.89c.82-1,2.46-1.67,4.89-2s7,4.37,13.53,13.92,12.62,22.33,18.12,38.32,8.19,28.52,8.09,37.66c-.21,17.84-12.55,33.73-37,48.07s-53.34,24.31-86.58,29.78c-53.53,8.83-97.25-5.67-131.25-45.64s-50.63-102.56-49.87-186.44,19.09-151.48,55.09-200.75,80.62-74,133.87-75.9C1216.94,3301.5,1243,3305.41,1265.46,3314Z"/><path class="cls-18" d="M1530.69,3759.07c-57.17,7.65-103.47-5.81-138.94-42.35s-52.75-95.41-51.82-175.54,19.82-142.22,56.7-184.6,84.08-63.78,141.65-65.43,103.79,16.34,138.73,52.6,51.94,91.71,51,167.22-19.77,133.16-56.48,174.42S1587.84,3751.43,1530.69,3759.07Zm4.52-343c-19.52,1.11-36,11.63-49.47,31.79s-20.39,47.89-20.81,82.93,5.55,61.33,17.93,78.68,28.84,24.83,49.39,22.66,37.35-13.17,50.39-32.84,19.79-46.48,20.21-80.67-5.87-60-18.86-77.62S1554.74,3415,1535.21,3416.12Z"/><path class="cls-18" d="M2109.8,3677.88c-.09,8.17-19.34,13.77-57.72,17.11s-59.17,2.34-62.36-3.32q-50.06-88.08-99.94-179.1l-2.28,188.2c-.09,7.27-19,12.76-56.73,16.76s-56.52,2.44-56.43-5q2.57-206.84,5.12-413.66.12-9.28,48.34-10.49a342.65,342.65,0,0,1,44.22,2.27q25.29,2.73,30.68,11.64,47.73,91.74,95.57,180.42,1.1-93.21,2.18-186.42.12-11.27,56.92-12.46t56.67,10Q2111.93,3485.85,2109.8,3677.88Z"/><path class="cls-18" d="M2355.6,3664.08c-.06,7.52-20.35,12.46-60.83,15.16s-60.67.41-60.59-7.25l2.91-287.31q-36.69,1.14-73.37,2.37c-6.93.23-11.73-8.47-14.38-26.17a181,181,0,0,1-1.55-26,184.22,184.22,0,0,1,2.11-26.13q4.56-26.74,14.95-26.93,132.84-2.41,265.71-4.11,10.38-.13,14.45,25.49a172.77,172.77,0,0,1-.41,50.22q-4.5,25.76-14.89,26-35.77.85-71.55,1.8Q2356.89,3522.65,2355.6,3664.08Z"/><path class="cls-18" d="M2767.41,3656.15c-35.62,1-54.85-3.5-57.66-13.61q-9.95-34.87-19.88-69.83-48.76,1.34-97.52,3-9.12,34.42-18.25,68.95c-2.53,11.5-22.21,18-59,19.75-19.64.93-34.16.66-43.55-.9s-14.09-2.9-14.08-4q55.82-191.4,111.17-378.44,0-4.41,83.73-5.19t83.69,3.72q52,184.29,104.5,366.73,0,3.79-28.27,6.56T2767.41,3656.15Zm-159.29-150.74q32.16-.88,64.34-1.66Q2659,3447.47,2645.55,3391l-3.67.06Q2625,3448.08,2608.12,3505.41Z"/><path class="cls-18" d="M3311.05,3653.74c-36.46-.71-54.68-4.54-54.7-11.76q-6.72-108.48-13.39-216.89-37.11,109.44-74.44,218.63c-1.63,4.32-15.55,6.34-41.76,6.24s-39.73-2.06-40.55-6q-38.7-110.82-77.17-221.49-4.39,107.63-8.82,215.28-.63,8.1-23.35,11.23a308.91,308.91,0,0,1-37.78,3.36,259.63,259.63,0,0,1-29.18-1.24q-29.47-3.35-28.83-13.07,7.55-176,15-351.72,0-13,74.58-13.19,22-.06,53.77,2.88t35.44,11.56q34.2,84.91,68.57,169.9,30-85.14,59.78-170.31,5.48-14,84.31-13.79,22.59.09,54.08,3.22t31.51,10.75q9.55,178.09,19.18,356.5,0,6-23.91,8.11A392.83,392.83,0,0,1,3311.05,3653.74Z"/><path class="cls-18" d="M3478.2,3563.64l-1-194.57q-21.72-.3-43.44-.58-10.41-.13-14.79-23.6a150.72,150.72,0,0,1-.22-46.83q4.15-23.37,14.56-23.31,102.66.72,205.29,1.85,10.39.12,14.23,24a117.71,117.71,0,0,1,2.63,23.88,115.14,115.14,0,0,1-2.27,23.81q-3.48,23.77-13.89,23.55-20.49-.4-41-.78l1.35,196.4q21.47.76,42.92,1.6,10.42.38,14.89,24.42a118.26,118.26,0,0,1,2.64,24,114.14,114.14,0,0,1-2.28,23.74q-4.12,23.66-14.55,23.14-103.42-4.92-206.9-8-10.46-.33-14.24-23.84a112,112,0,0,1-2.56-23.48,110.11,110.11,0,0,1,2.34-23.35q3.57-23.33,14-23.08Q3457,3563.06,3478.2,3563.64Z"/><path class="cls-18" d="M4037.46,3676.86c.1,8.16-19.06,10.63-57.47,7.69s-59.3-7.21-62.62-13.16q-52.1-92.73-104-182.71.8,87.74,1.6,175.47c.07,6.78-18.82,8.95-56.65,6.76s-56.78-6.45-56.84-13.14q-1.49-186.34-3-372.68-.08-8.36,48.19-7.75A371.8,371.8,0,0,1,3791,3281q25.38,3.47,31,12,49.68,87.79,99.52,177.93-.9-89.84-1.81-179.66-.1-10.85,56.69-9.89t56.92,12.09Q4035.37,3485.2,4037.46,3676.86Z"/><path class="cls-18" d="M4386.55,3724.35c-35.46-3.94-54.72-11.66-57.7-23.36q-10.58-40.48-21.15-80.66-48.61-4.2-97.25-8.07-8.43,36.4-16.87,72.59c-2.3,12.14-21.83,16.4-58.57,13.1q-29.4-2.62-43.53-7t-14.14-6.16q52-193.62,103.65-393.91c0-3.16,27.83-4.18,83.59-2.87s83.65,3.67,83.7,6.95q55.36,209.67,110.9,428.32,0,4.39-28,3.65T4386.55,3724.35Zm-161.72-187.09q32.1,2.16,64.2,4.43-14.52-63.81-29-127l-3.67-.18Q4240.61,3476.25,4224.83,3537.26Z"/><path class="cls-18" d="M4683.24,3749.27c.1,8.81-20,10.39-60.25,5.05s-60.49-12.07-60.6-20.63q-2-161-4-321.92-36.62-2-73.25-3.88-10.38-.54-15-29.71a219.24,219.24,0,0,1-2.18-28.4,213.3,213.3,0,0,1,1.48-28.25q3.9-28.82,14.28-28.56,132.75,3.69,265.42,8.07,10.36.35,15,31.39a247.51,247.51,0,0,1,2.19,30.32,242.25,242.25,0,0,1-1.47,30.15q-3.9,30.69-14.27,30-35.68-2.2-71.37-4.3Q4681.22,3583.94,4683.24,3749.27Z"/><path class="cls-18" d="M4844.77,3665.46q-1.41-121.82-2.8-243.62-21.65-1.37-43.29-2.7-10.38-.64-15-29.92a228.11,228.11,0,0,1-2.17-29.11,225.14,225.14,0,0,1,1.49-28.93q3.91-28.84,14.29-28.53,102.48,3.48,204.89,7.38,10.36.38,14.34,31.27a195.52,195.52,0,0,1,2.75,30.87,189.72,189.72,0,0,1-2.12,30.6c-2.22,20.35-6.79,30.24-13.69,29.76q-20.41-1.41-40.83-2.79l2.7,251q21.3,2.78,42.6,5.63,10.34,1.38,14.91,32.71a200.31,200.31,0,0,1,2.75,31.12,185.79,185.79,0,0,1-2.11,30.39c-2.63,20.06-7.39,29.48-14.28,28.34q-102.47-16.89-205.14-32-10.36-1.53-14.35-31.08a175.65,175.65,0,0,1-2.78-29.36,165.39,165.39,0,0,1,2.09-28.71c2.21-19,6.77-28.19,13.68-27.37Q4823.75,3662.9,4844.77,3665.46Z"/><path class="cls-18" d="M5247.63,3858.27c-56.8-10.73-103.35-42.05-139.62-92.51s-54.89-117.16-55.74-201.94,16.67-147.45,52.59-189.85,82.65-63.26,140.14-60.94,104.05,27.15,139.65,76.43,53.64,123.24,54.2,220.08-17,166.15-52.63,206S5304.41,3869,5247.63,3858.27Zm-3-399.67c-19.47-1.56-35.72,8.26-48.7,29.06s-19.31,50.8-19,90.26,6.9,70.48,19.65,93.41,29.33,36,49.77,39,36.94-5.37,49.52-25.6,18.73-51.07,18.42-92.3-7.12-73.63-20.47-96.85S5264.14,3460.15,5244.66,3458.6Z"/><path class="cls-18" d="M5819.37,3952c0,12.51-18.85,14.23-56.58,5.44s-58.25-17.69-61.48-27q-50.6-145.53-101.67-283,.45,130.09.92,260.18c0,10.06-18.56,11-55.8,3s-55.92-16.63-56-26.34q-1.41-271.12-2.81-542.24-.06-12.13,48-9.85,18.85.92,44.15,6.73t30.79,18.77q49.11,131.94,97.82,271.26l-.51-270.87q0-16.35,56.55-13.41t56.56,20Z"/><path class="cls-18" d="M876.23,4345.75q-37.26,2.88-37.25-5.29v-265.7q0-13.94,12.69-14.94,36-2.82,72.06-5.55,60.6-4.59,87.43,18.52t26.82,70.64q0,39.36-25.39,74-12.69,17.32-37.27,29T918,4260.54v73.4q0,4.92-15.36,7.93A233.55,233.55,0,0,1,876.23,4345.75ZM918,4126.05v64.78l5.32-.4a37.17,37.17,0,0,0,24.16-10.84q9.82-9.75,9.83-26.16t-6.76-22.86q-6.76-6.46-23.95-5.17Z"/><path class="cls-18" d="M1152.26,4319.14q0,6.57-38.92,9.23Q1074,4331.09,1074,4325V4057.62q0-14.35,15.15-15.41,39.12-2.74,78.24-5.38c71.82-4.82,107.75,21,107.75,77a110.58,110.58,0,0,1-9.83,46.76,89.38,89.38,0,0,1-27.86,34.8q25.8,41.37,51.62,82.8-3.28,10-21.31,23.9-24.58,19.21-40.56,20.25t-23.76-9.91q-19.24-43.64-38.51-87.23l-12.69.86Zm0-208.71v61.51l2-.14q38.91-2.64,38.92-35,0-14.76-7.58-21.43t-24.78-5.51Z"/><path class="cls-18" d="M1446.85,4133.34q7.79-.45,7.79,28.26a134.69,134.69,0,0,1-1.84,20.4c-1.23,7.87-3.49,11.88-6.77,12.08q-26,1.5-52,3.05v41q37.69-2.25,75.41-4.39,7-.39,9.42,17.51a105.2,105.2,0,0,1,1.23,16.53,138.94,138.94,0,0,1-2.46,22.9q-2.46,14.07-8.19,14.4-70.1,4-140.16,8.32-15.57,1-15.57-11.74V4038q0-10.65,9.43-11.25,73.34-4.55,146.7-8.72,8.61-.49,8.61,35.8t-8.61,36.78q-37.9,2.15-75.81,4.41v41.41Q1420.42,4134.87,1446.85,4133.34Zm-79.91-121.15q-3.69.22-9.42-7.63-7.38-11-7.38-18.82c0-5.19.82-8.67,2.46-10.4q66.78-41,68-41,4.08-.26,10.24,9.24,9.44,13.82,9.43,26.51c0,3-.69,5.23-2,6.68Q1367.75,4012.06,1366.94,4012.19Z"/><path class="cls-18" d="M1685.62,4011.27q22.76,7.28,22.75,21.64t-10.86,36q-10.87,21.66-18.25,22c-1.36.06-2.94-.61-4.71-2s-5.88-2.85-12.3-4.31a62.87,62.87,0,0,0-16.6-1.83q-23.79,1.21-38.33,18.79t-14.55,52.22q0,34.65,15,50.68t37.92,14.85a97.54,97.54,0,0,0,21.11-3.73q11.68-3.24,16.6-8.41a5,5,0,0,1,3.28-1q2.46-.13,9.23,8.77t12.5,23.58q5.73,14.69,5.74,22.89,0,16-24.6,26.62t-58.21,12.37q-54.12,2.78-89-33.43t-34.84-105.72q0-69.5,35.86-111.24t89.57-44.51Q1662.87,4004,1685.62,4011.27Z"/><path class="cls-18" d="M1772.74,4218.87v-146l-29.11,1.36q-7,.33-9.85-17.16a124.68,124.68,0,0,1-1.22-17.57,125.94,125.94,0,0,1,1.22-17.69q2.87-17.76,9.85-18.1,68.86-3.27,137.76-6.22c4.65-.2,7.79,5.56,9.44,17.23a95,95,0,0,1,1.64,17.56,96.17,96.17,0,0,1-1.64,17.7q-2.47,17.74-9.44,18l-27.47,1.19v146l28.71-1.25q7-.28,9.84,17.22a93.19,93.19,0,0,1,1.64,17.56,96.33,96.33,0,0,1-1.64,17.7q-2.88,17.75-9.84,18.05-69.11,3-138.19,6.23-7,.34-9.42-17.18a92.18,92.18,0,0,1-1.64-17.55,93.89,93.89,0,0,1,1.64-17.71q2.46-17.76,9.42-18.08Z"/><path class="cls-18" d="M1932.24,4182.36q7.79,5.84,26.86,15.72t36.5,9.22q17.42-.66,17.43-14.2a14.08,14.08,0,0,0-4.92-10.68q-4.92-4.52-18-10.16t-19.68-8.86a142.22,142.22,0,0,1-17.43-10.79q-10.87-7.56-16.61-15.93-16.41-22.69-16.4-58.78t26.86-62q26.85-25.9,70.33-27.57a217.4,217.4,0,0,1,54.55,4.33q25,5.45,25.83,15.68,0,1.23,0,2.46,0,14.34-9,36.61t-12.71,24.85q-26.27-12.58-47-11.8T2008.11,4076q0,9,15.17,15.41,3.29,1.53,9.43,4.16t14.15,6.24a161.3,161.3,0,0,1,17.23,9.2A141.69,141.69,0,0,1,2084,4126.1q21.73,19.74,21.74,53.35,0,43.88-24.2,72.62t-74.64,31.47a222,222,0,0,1-44.5-2.35,76.65,76.65,0,0,1-34.65-14.59q-14.76-11.28-14.77-28.08a98.2,98.2,0,0,1,6.15-33.68Q1925.28,4188,1932.24,4182.36Z"/><path class="cls-18" d="M2166.42,4203.22v-146l-29.12,1q-7,.24-9.85-17.29a123.58,123.58,0,0,1-1.23-17.59,125.44,125.44,0,0,1,1.23-17.67q2.87-17.73,9.85-18,68.89-2.34,137.82-4.36,7-.21,9.43,17.36a95,95,0,0,1,0,35.26q-2.46,17.72-9.43,17.91l-27.48.81v146l28.71-.85q7-.21,9.85,17.35a93.48,93.48,0,0,1,1.64,17.58,95.87,95.87,0,0,1-1.64,17.68q-2.88,17.72-9.85,17.92-69.12,2-138.23,4.36-7,.24-9.44-17.31a93.37,93.37,0,0,1-1.64-17.57,95.2,95.2,0,0,1,1.64-17.69c1.65-11.81,4.78-17.8,9.44-17.95Z"/><path class="cls-18" d="M2437.36,4270.17q-57.65,1.36-93.94-35.35t-36.31-109.09q0-72.34,36.72-110.7t94.76-39.7q58-1.36,93.75,34.63T2568,4120.37q0,74.43-36.51,111.43T2437.36,4270.17Zm.21-216.09q-19.7.47-33,18.84t-13.33,51q0,32.59,12.72,49.7t33.43,16.62q20.71-.49,33.64-18.41t12.93-50.72q0-32.8-13.34-50.14T2437.57,4054.08Z"/><path class="cls-18" d="M2825.71,4250.43q0,8.61-38.57,9t-41.86-5.63q-34.26-63.53-68.52-126.95v127.52q0,7.38-38,8t-37.95-6.72V3981.37q0-6.15,32.41-6.72a229.22,229.22,0,0,1,29.75,1.77q17,2,20.72,8.08,32.82,62.64,65.65,125.36V3981.11q0-7.79,38.16-8.26c25.44-.3,38.16,2.19,38.16,7.37Z"/><path class="cls-18" d="M2939.77,4234.3v-255c0-5.73,13.88-8.71,41.65-8.85s41.65,2.7,41.65,8.43v200.91q31.59-.1,63.19-.16,7.39,0,10.26,19.26a149,149,0,0,1,1.23,19.27,168.39,168.39,0,0,1-1.23,20.09q-3.29,19.7-10.67,19.7-63.2.09-126.38.46a16.7,16.7,0,0,1-14.36-7.29A27.81,27.81,0,0,1,2939.77,4234.3Z"/><path class="cls-18" d="M3315.23,4259.3q-35.7-.24-38.57-11.71-6.76-26.48-13.54-53-32.62-.14-65.25-.22-5.94,25.4-11.9,50.82-2.44,12.7-39.39,12.65-19.71,0-29.13-2.25t-9.44-3.48q36.31-138.82,72.63-277.55c0-2.19,18.73-3.27,56.22-3.13s56.21,1.36,56.21,3.54q35.5,139.2,71,278.49,0,2.88-18.87,4.36T3315.23,4259.3Zm-107.1-116.94q21.54.06,43.09.15-9.24-42.48-18.47-85h-2.46Q3219.22,4100,3208.13,4142.36Z"/><path class="cls-18" d="M3561.22,3978.78q22.77,8.76,22.77,23.11t-10.87,35.3q-10.87,21-18.26,20.84-2.06,0-4.72-2.32c-1.78-1.52-5.88-3.23-12.31-5.1a63.91,63.91,0,0,0-16.62-2.89q-23.79-.31-38.36,16.32t-14.57,51.28q0,34.65,15,51.64t37.95,17.3a96,96,0,0,0,21.14-2.38q11.68-2.51,16.61-7.34c.55-.54,1.64-.8,3.29-.77s4.71,3.14,9.23,9.36,8.68,14.35,12.51,24.39,5.75,17.79,5.75,23.25q0,16-24.62,25t-58.27,8.61q-54.17-.69-89-39.15t-34.87-108q0-69.49,35.9-108.93t89.65-38.75Q3538.45,3970,3561.22,3978.78Z"/><path class="cls-18" d="M3699.69,4257.73c0,4.39-13,6.3-39,5.82q-39.39-.71-39.39-6.84V3989.37q0-14.34,15.19-14.09,39.18.67,78.36,1.47c71.93,1.46,107.91,30.41,107.9,86.42q0,25.44-9.84,45.9a78.74,78.74,0,0,1-27.9,32.37q25.84,43.64,51.69,87.31-3.28,9.75-21.33,22-24.61,17.05-40.62,16.71t-23.79-12l-38.57-90.6-12.72-.25Zm0-208.71v61.51l2,0q39,.77,39-31.6,0-14.76-7.59-22.1t-24.82-7.68Z"/><path class="cls-18" d="M3985.43,4274.56q-57.63-1.7-93.94-40.33t-36.31-111q0-72.36,36.72-108.74t94.76-34.68q58,1.71,93.73,39.61t35.68,112.3q0,74.43-36.5,109.49T3985.43,4274.56Zm.2-216.08q-19.68-.57-33,17.09t-13.33,50.27q0,32.59,12.72,50.38t33.43,18.39q20.7.62,33.64-16.63t12.92-50q0-32.8-13.34-50.85T3985.63,4058.48Z"/><path class="cls-18" d="M4176,4206.16v-146l-29.13-1q-7-.24-9.84-18a125.44,125.44,0,0,1-1.23-17.67,123.68,123.68,0,0,1,1.23-17.59q2.86-17.53,9.84-17.29,68.91,2.41,137.81,5.14,7,.29,9.43,18a95.36,95.36,0,0,1,1.64,17.69,93.37,93.37,0,0,1-1.64,17.57q-2.46,17.53-9.43,17.25l-27.48-1.07v146l28.71,1.12q7,.28,9.84,18a95.36,95.36,0,0,1,1.64,17.69,93.29,93.29,0,0,1-1.64,17.57q-2.88,17.52-9.84,17.24-69.1-2.74-138.21-5.16-7-.24-9.44-18a94.36,94.36,0,0,1-1.64-17.69,93.37,93.37,0,0,1,1.64-17.57q2.46-17.55,9.44-17.3Z"/><path class="cls-18" d="M4477,4013.1c3.28-8,20.36-11.37,51.25-9.88a283.87,283.87,0,0,1,29.31,3.26q17.43,2.7,17.43,4.35-34.86,69.2-69.7,138.49,36.08,69.57,72.16,139.22,1.22,2.11-17.63,3t-32,.3q-52.08-2.49-57-16.63-15.37-39.85-30.75-79.71-13.95,39.76-27.89,79.54-4.09,11.29-52.48,9.21-11.91-.5-29.53-2.87t-16-5.17q32-69.63,64-139.19Q4344.92,4068,4311.7,3999q-1.23-2.1,17-3.21t31-.55q51.66,2.19,56.59,17.21,14.14,35.07,28.29,70.15Q4460.75,4047.82,4477,4013.1Z"/><path class="cls-18" d="M4709,4230.18v-146l-29.1-1.56q-7-.37-9.84-18.15a127,127,0,0,1,0-35.27q2.86-17.47,9.84-17.11,68.85,3.68,137.71,7.66,7,.41,9.43,18.18a96.74,96.74,0,0,1,1.64,17.73,93.54,93.54,0,0,1-1.64,17.53q-2.48,17.49-9.43,17.09l-27.46-1.58v146q14.34.81,28.69,1.65,7,.4,9.84,18.2a96.82,96.82,0,0,1,1.64,17.73,94.58,94.58,0,0,1-1.64,17.54q-2.88,17.46-9.84,17.05-69.06-4-138.13-7.68-7-.37-9.42-18.13a94,94,0,0,1-1.64-17.72,91.45,91.45,0,0,1,1.64-17.55q2.44-17.47,9.42-17.13Z"/><path class="cls-18" d="M5082.28,4314.34q0,8.61-38.51,6.05t-41.79-8.87q-34.21-66.17-68.42-132.25v127.52c0,4.93-12.65,6.58-37.91,5.05s-37.9-4.72-37.9-9.65V4027.88q0-6.15,32.37-4.21a234,234,0,0,1,29.71,4.07q17,3.3,20.69,9.68,32.79,65.19,65.56,130.44V4039.11c0-5.18,12.7-7,38.1-5.31s38.1,5.14,38.1,10.33Z"/><path class="cls-18" d="M5293,4056q22.74,10.1,22.73,24.45t-10.85,34.66q-10.86,20.31-18.23,19.76-2.06-.15-4.71-2.61t-12.28-5.82a66.1,66.1,0,0,0-16.59-3.88q-23.76-1.74-38.29,14T5200.24,4187q0,34.65,14.95,52.52t37.88,19.56a94.21,94.21,0,0,0,21.09-1.12q11.68-1.8,16.59-6.36c.54-.5,1.64-.7,3.27-.58s4.71,3.42,9.22,9.92,8.66,14.86,12.49,25.12,5.74,18.14,5.73,23.6q0,16-24.57,23.58t-58.15,5.16q-54-3.93-88.88-44.44t-34.81-110q0-69.49,35.84-106.81t89.49-33.41Q5270.28,4045.85,5293,4056Z"/><path class="cls-18" d="M5418.08,4349.07q0,2.85-38.69-.15t-38.69-5.43v-73.81c0-2.45,12.9-2.72,38.69-.72s38.68,3.71,38.69,5.07Z"/><path class="cls-19" d="M876.23,4402.34c-24.84,1.92-37.25.19-37.25-5.29v-265.7q0-13.93,12.69-14.94,36-2.81,72.06-5.55,60.6-4.57,87.43,18.52T1038,4200q0,39.38-25.39,74-12.69,17.32-37.27,29T918,4317.13v73.4q0,4.92-15.36,7.94A235.57,235.57,0,0,1,876.23,4402.34ZM918,4182.64v64.79l5.32-.41a37.16,37.16,0,0,0,24.16-10.83q9.82-9.76,9.83-26.16t-6.76-22.87q-6.76-6.46-23.95-5.17Z"/><path class="cls-19" d="M1152.26,4375.73q0,6.57-38.92,9.23-39.31,2.72-39.32-3.4V4114.22q0-14.36,15.15-15.42,39.12-2.73,78.24-5.37c71.82-4.83,107.75,21,107.75,77a110.58,110.58,0,0,1-9.83,46.76,89.38,89.38,0,0,1-27.86,34.8l51.62,82.8q-3.28,10.05-21.31,23.91-24.58,19.2-40.56,20.25t-23.76-9.92q-19.24-43.62-38.51-87.22l-12.69.85Zm0-208.7v61.5l2-.14q38.91-2.62,38.92-35,0-14.78-7.58-21.44t-24.78-5.51Z"/><path class="cls-19" d="M1446.85,4189.94q7.79-.45,7.79,28.25a134.48,134.48,0,0,1-1.84,20.4q-1.85,11.81-6.77,12.08-26,1.5-52,3.05v41q37.69-2.24,75.41-4.39,7-.39,9.42,17.51a105.24,105.24,0,0,1,1.23,16.54,138.84,138.84,0,0,1-2.46,22.89q-2.46,14.08-8.19,14.41-70.1,4-140.16,8.32-15.57,1-15.57-11.75V4094.6q0-10.65,9.43-11.24,73.34-4.55,146.7-8.73,8.61-.49,8.61,35.8t-8.61,36.78q-37.9,2.16-75.81,4.41V4193Q1420.42,4191.47,1446.85,4189.94Zm-79.91-121.16q-3.69.22-9.42-7.63-7.38-11-7.38-18.82t2.46-10.4q66.78-41,68-41,4.08-.24,10.24,9.24,9.44,13.82,9.43,26.52c0,3-.69,5.23-2,6.67Q1367.75,4068.67,1366.94,4068.78Z"/><path class="cls-19" d="M1685.62,4067.86q22.76,7.29,22.75,21.64t-10.86,36q-10.87,21.66-18.25,22c-1.36.07-2.94-.6-4.71-2s-5.88-2.85-12.3-4.31a62.82,62.82,0,0,0-16.6-1.82q-23.79,1.22-38.33,18.79t-14.55,52.22q0,34.65,15,50.67t37.92,14.86a98.15,98.15,0,0,0,21.11-3.73c7.79-2.16,13.32-5,16.6-8.41.55-.58,1.64-.91,3.28-1s4.72,2.84,9.23,8.77,8.67,13.8,12.5,23.58,5.74,17.43,5.74,22.89q0,16-24.6,26.63T1631.3,4357q-54.12,2.77-89-33.43t-34.84-105.71q0-69.49,35.86-111.25t89.57-44.51Q1662.87,4060.58,1685.62,4067.86Z"/><path class="cls-19" d="M1772.74,4275.46v-146l-29.11,1.37q-7,.33-9.85-17.16a128,128,0,0,1,0-35.26q2.87-17.76,9.85-18.11,68.86-3.27,137.76-6.22,7-.3,9.44,17.24a94.87,94.87,0,0,1,1.64,17.56,96.33,96.33,0,0,1-1.64,17.7q-2.47,17.73-9.44,18l-27.47,1.19v146l28.71-1.24q7-.3,9.84,17.21a93.26,93.26,0,0,1,1.64,17.56,96.17,96.17,0,0,1-1.64,17.7q-2.88,17.76-9.84,18.05-69.11,3-138.19,6.24-7,.35-9.42-17.19a92.11,92.11,0,0,1-1.64-17.55,94,94,0,0,1,1.64-17.71q2.46-17.74,9.42-18.08Z"/><path class="cls-19" d="M1932.24,4239q7.79,5.84,26.86,15.72t36.5,9.22q17.42-.67,17.43-14.2a14.07,14.07,0,0,0-4.92-10.68q-4.92-4.52-18-10.17t-19.68-8.86a141.9,141.9,0,0,1-17.43-10.78q-10.87-7.57-16.61-15.93-16.41-22.7-16.4-58.78t26.86-62q26.85-25.91,70.33-27.57a217,217,0,0,1,54.55,4.32q25,5.46,25.83,15.68c0,.82,0,1.65,0,2.46q0,14.35-9,36.61t-12.71,24.85q-26.27-12.58-47-11.79t-20.71,15.55q0,9,15.17,15.41,3.29,1.52,9.43,4.15t14.15,6.24a159.72,159.72,0,0,1,17.23,9.21,141.55,141.55,0,0,1,19.89,15.06q21.73,19.74,21.74,53.36,0,43.88-24.2,72.61t-74.64,31.48a221.18,221.18,0,0,1-44.5-2.36,76.64,76.64,0,0,1-34.65-14.58q-14.76-11.28-14.77-28.09a98.15,98.15,0,0,1,6.15-33.67Q1925.28,4244.56,1932.24,4239Z"/><path class="cls-19" d="M2166.42,4259.81v-146l-29.12,1q-7,.23-9.85-17.3a123.58,123.58,0,0,1-1.23-17.59,125.44,125.44,0,0,1,1.23-17.67q2.87-17.72,9.85-18,68.89-2.34,137.82-4.35,7-.21,9.43,17.35a95,95,0,0,1,0,35.26q-2.46,17.71-9.43,17.91l-27.48.82v146l28.71-.86q7-.2,9.85,17.35a93.55,93.55,0,0,1,1.64,17.58,95.87,95.87,0,0,1-1.64,17.68q-2.88,17.72-9.85,17.92-69.12,2-138.23,4.37-7,.24-9.44-17.31a93.4,93.4,0,0,1-1.64-17.58,95.36,95.36,0,0,1,1.64-17.69c1.65-11.8,4.78-17.8,9.44-17.95Z"/><path class="cls-19" d="M2437.36,4326.76q-57.65,1.36-93.94-35.35t-36.31-109.09q0-72.34,36.72-110.69t94.76-39.71q58-1.36,93.75,34.63T2568,4177q0,74.43-36.51,111.43T2437.36,4326.76Zm.21-216.09q-19.7.46-33,18.84t-13.33,51q0,32.6,12.72,49.7t33.43,16.62q20.71-.51,33.64-18.41t12.93-50.73q0-32.79-13.34-50.13T2437.57,4110.67Z"/><path class="cls-19" d="M2825.71,4307c0,5.75-12.86,8.73-38.57,9s-39.67-1.55-41.86-5.63q-34.26-63.51-68.52-127V4311q0,7.4-38,8t-37.95-6.72V4038q0-6.15,32.41-6.72A229,229,0,0,1,2663,4033q17,2,20.72,8.08,32.82,62.65,65.65,125.37V4037.71c0-5.19,12.72-8,38.16-8.26s38.16,2.18,38.16,7.37Z"/><path class="cls-19" d="M2939.77,4290.89v-255q0-8.61,41.65-8.86t41.65,8.44v200.91q31.59-.12,63.19-.16,7.39,0,10.26,19.26a148.89,148.89,0,0,1,1.23,19.27,168.51,168.51,0,0,1-1.23,20.09q-3.29,19.68-10.67,19.69-63.2.1-126.38.46a16.68,16.68,0,0,1-14.36-7.29A27.81,27.81,0,0,1,2939.77,4290.89Z"/><path class="cls-19" d="M3315.23,4315.89q-35.7-.24-38.57-11.7-6.76-26.49-13.54-53-32.62-.15-65.25-.23-5.94,25.41-11.9,50.82-2.44,12.72-39.39,12.66-19.71,0-29.13-2.26t-9.44-3.48q36.31-138.83,72.63-277.55c0-2.18,18.73-3.26,56.22-3.13s56.21,1.36,56.21,3.55q35.5,139.2,71,278.48,0,2.88-18.87,4.37T3315.23,4315.89ZM3208.13,4199q21.54.06,43.09.15-9.24-42.47-18.47-85h-2.46Q3219.22,4156.54,3208.13,4199Z"/><path class="cls-19" d="M3561.22,4035.38q22.77,8.74,22.77,23.1t-10.87,35.3q-10.87,21-18.26,20.84-2.06,0-4.72-2.32t-12.31-5.1a64.34,64.34,0,0,0-16.62-2.89q-23.79-.31-38.36,16.32t-14.57,51.29q0,34.64,15,51.63t37.95,17.3a96,96,0,0,0,21.14-2.37q11.68-2.5,16.61-7.35c.55-.53,1.64-.8,3.29-.77s4.71,3.15,9.23,9.36,8.68,14.35,12.51,24.39,5.75,17.79,5.75,23.26q0,16-24.62,25t-58.27,8.62q-54.17-.7-89-39.15t-34.87-108q0-69.51,35.9-108.94t89.65-38.74Q3538.45,4026.63,3561.22,4035.38Z"/><path class="cls-19" d="M3699.69,4314.32c0,4.39-13,6.3-39,5.83q-39.39-.72-39.39-6.84V4046q0-14.35,15.19-14.09,39.18.67,78.36,1.46c71.93,1.47,107.91,30.42,107.9,86.43q0,25.44-9.84,45.89A78.67,78.67,0,0,1,3785,4198q25.84,43.64,51.69,87.32-3.28,9.75-21.33,22-24.61,17-40.62,16.7t-23.79-12l-38.57-90.59-12.72-.25Zm0-208.7v61.5l2,0q39,.78,39-31.6,0-14.76-7.59-22.09t-24.82-7.68Z"/><path class="cls-19" d="M3985.43,4331.16q-57.63-1.69-93.94-40.33t-36.31-111q0-72.36,36.72-108.75t94.76-34.68q58,1.71,93.73,39.61t35.68,112.3q0,74.43-36.5,109.5T3985.43,4331.16Zm.2-216.08q-19.68-.59-33,17.09t-13.33,50.26q0,32.61,12.72,50.38t33.43,18.39q20.7.61,33.64-16.62t12.92-50q0-32.79-13.34-50.84T3985.63,4115.08Z"/><path class="cls-19" d="M4176,4262.75v-146l-29.13-1q-7-.24-9.84-18a125.48,125.48,0,0,1-1.23-17.68,123.54,123.54,0,0,1,1.23-17.58q2.86-17.54,9.84-17.29,68.91,2.4,137.81,5.13,7,.29,9.43,18a95.39,95.39,0,0,1,1.64,17.7,93.19,93.19,0,0,1-1.64,17.56q-2.46,17.53-9.43,17.26l-27.48-1.08v146l28.71,1.13c4.65.19,7.93,6.18,9.84,18a95.47,95.47,0,0,1,1.64,17.7,93.19,93.19,0,0,1-1.64,17.56q-2.88,17.54-9.84,17.24-69.1-2.74-138.21-5.16-7-.24-9.44-18a94.43,94.43,0,0,1-1.64-17.69,93.48,93.48,0,0,1,1.64-17.58q2.46-17.54,9.44-17.3Z"/><path class="cls-19" d="M4477,4069.69c3.28-8,20.36-11.37,51.25-9.88a287.07,287.07,0,0,1,29.31,3.27c11.62,1.79,17.42,3.26,17.43,4.34q-34.86,69.21-69.7,138.5,36.08,69.56,72.16,139.21,1.22,2.11-17.63,3t-32,.29q-52.08-2.49-57-16.62l-30.75-79.72q-13.95,39.77-27.89,79.54-4.09,11.3-52.48,9.22-11.91-.51-29.53-2.88t-16-5.16q32-69.63,64-139.2-33.21-69.07-66.43-138.08-1.23-2.1,17-3.2a306.68,306.68,0,0,1,31-.55q51.66,2.19,56.59,17.2,14.14,35.07,28.29,70.15Q4460.75,4104.41,4477,4069.69Z"/><path class="cls-19" d="M4709,4286.78v-146l-29.1-1.57q-7-.37-9.84-18.15a127,127,0,0,1,0-35.26q2.86-17.48,9.84-17.11,68.85,3.66,137.71,7.66,7,.4,9.43,18.18a96.63,96.63,0,0,1,1.64,17.72,93.65,93.65,0,0,1-1.64,17.54q-2.48,17.49-9.43,17.08l-27.46-1.58v146l28.69,1.65q7,.41,9.84,18.21a96.63,96.63,0,0,1,1.64,17.72,94.41,94.41,0,0,1-1.64,17.54q-2.88,17.46-9.84,17.06-69.06-4-138.13-7.69-7-.36-9.42-18.13a93.84,93.84,0,0,1-1.64-17.72,91.28,91.28,0,0,1,1.64-17.54q2.44-17.49,9.42-17.13Z"/><path class="cls-19" d="M5082.28,4370.93q0,8.63-38.51,6t-41.79-8.87q-34.21-66.16-68.42-132.25v127.52c0,4.93-12.65,6.59-37.91,5.06s-37.9-4.73-37.9-9.66V4084.47q0-6.13,32.37-4.21a234,234,0,0,1,29.71,4.07q17,3.3,20.69,9.69,32.79,65.18,65.56,130.44V4095.71q0-7.78,38.1-5.31c25.4,1.67,38.1,5.14,38.1,10.32Z"/><path class="cls-19" d="M5293,4112.55q22.74,10.11,22.73,24.46t-10.85,34.65q-10.86,20.31-18.23,19.76c-1.37-.1-2.94-1-4.71-2.6s-5.87-3.58-12.28-5.83a66.1,66.1,0,0,0-16.59-3.88q-23.76-1.72-38.29,14t-14.54,50.42q0,34.67,14.95,52.53t37.88,19.55a94.21,94.21,0,0,0,21.09-1.12q11.68-1.8,16.59-6.36c.54-.5,1.64-.69,3.27-.57s4.71,3.42,9.22,9.91,8.66,14.86,12.49,25.13,5.74,18.13,5.73,23.6q0,16-24.57,23.58t-58.15,5.15q-54-3.92-88.88-44.44t-34.81-110q0-69.49,35.84-106.8t89.49-33.42Q5270.28,4102.46,5293,4112.55Z"/><path class="cls-19" d="M5418.08,4405.66q0,2.86-38.69-.15t-38.69-5.43v-73.8q0-3.69,38.69-.72t38.69,5.07Z"/><path class="cls-20" d="M876.23,4345.75q-37.26,2.88-37.25-5.29v-265.7q0-13.94,12.69-14.94,36-2.82,72.06-5.55,60.6-4.59,87.43,18.52t26.82,70.64q0,39.36-25.39,74-12.69,17.32-37.27,29T918,4260.54v73.4q0,4.92-15.36,7.93A233.55,233.55,0,0,1,876.23,4345.75ZM918,4126.05v64.78l5.32-.4a37.17,37.17,0,0,0,24.16-10.84q9.82-9.75,9.83-26.16t-6.76-22.86q-6.76-6.46-23.95-5.17Z"/><path class="cls-20" d="M1152.26,4319.14q0,6.57-38.92,9.23Q1074,4331.09,1074,4325V4057.62q0-14.35,15.15-15.41,39.12-2.74,78.24-5.38c71.82-4.82,107.75,21,107.75,77a110.58,110.58,0,0,1-9.83,46.76,89.38,89.38,0,0,1-27.86,34.8q25.8,41.37,51.62,82.8-3.28,10-21.31,23.9-24.58,19.21-40.56,20.25t-23.76-9.91q-19.24-43.64-38.51-87.23l-12.69.86Zm0-208.71v61.51l2-.14q38.91-2.64,38.92-35,0-14.76-7.58-21.43t-24.78-5.51Z"/><path class="cls-20" d="M1446.85,4133.34q7.79-.45,7.79,28.26a134.69,134.69,0,0,1-1.84,20.4c-1.23,7.87-3.49,11.88-6.77,12.08q-26,1.5-52,3.05v41q37.69-2.25,75.41-4.39,7-.39,9.42,17.51a105.2,105.2,0,0,1,1.23,16.53,138.94,138.94,0,0,1-2.46,22.9q-2.46,14.07-8.19,14.4-70.1,4-140.16,8.32-15.57,1-15.57-11.74V4038q0-10.65,9.43-11.25,73.34-4.55,146.7-8.72,8.61-.49,8.61,35.8t-8.61,36.78q-37.9,2.15-75.81,4.41v41.41Q1420.42,4134.87,1446.85,4133.34Zm-79.91-121.15q-3.69.22-9.42-7.63-7.38-11-7.38-18.82c0-5.19.82-8.67,2.46-10.4q66.78-41,68-41,4.08-.26,10.24,9.24,9.44,13.82,9.43,26.51c0,3-.69,5.23-2,6.68Q1367.75,4012.06,1366.94,4012.19Z"/><path class="cls-20" d="M1685.62,4011.27q22.76,7.28,22.75,21.64t-10.86,36q-10.87,21.66-18.25,22c-1.36.06-2.94-.61-4.71-2s-5.88-2.85-12.3-4.31a62.87,62.87,0,0,0-16.6-1.83q-23.79,1.21-38.33,18.79t-14.55,52.22q0,34.65,15,50.68t37.92,14.85a97.54,97.54,0,0,0,21.11-3.73q11.68-3.24,16.6-8.41a5,5,0,0,1,3.28-1q2.46-.13,9.23,8.77t12.5,23.58q5.73,14.69,5.74,22.89,0,16-24.6,26.62t-58.21,12.37q-54.12,2.78-89-33.43t-34.84-105.72q0-69.5,35.86-111.24t89.57-44.51Q1662.87,4004,1685.62,4011.27Z"/><path class="cls-20" d="M1772.74,4218.87v-146l-29.11,1.36q-7,.33-9.85-17.16a124.68,124.68,0,0,1-1.22-17.57,125.94,125.94,0,0,1,1.22-17.69q2.87-17.76,9.85-18.1,68.86-3.27,137.76-6.22c4.65-.2,7.79,5.56,9.44,17.23a95,95,0,0,1,1.64,17.56,96.17,96.17,0,0,1-1.64,17.7q-2.47,17.74-9.44,18l-27.47,1.19v146l28.71-1.25q7-.28,9.84,17.22a93.19,93.19,0,0,1,1.64,17.56,96.33,96.33,0,0,1-1.64,17.7q-2.88,17.75-9.84,18.05-69.11,3-138.19,6.23-7,.34-9.42-17.18a92.18,92.18,0,0,1-1.64-17.55,93.89,93.89,0,0,1,1.64-17.71q2.46-17.76,9.42-18.08Z"/><path class="cls-20" d="M1932.24,4182.36q7.79,5.84,26.86,15.72t36.5,9.22q17.42-.66,17.43-14.2a14.08,14.08,0,0,0-4.92-10.68q-4.92-4.52-18-10.16t-19.68-8.86a142.22,142.22,0,0,1-17.43-10.79q-10.87-7.56-16.61-15.93-16.41-22.69-16.4-58.78t26.86-62q26.85-25.9,70.33-27.57a217.4,217.4,0,0,1,54.55,4.33q25,5.45,25.83,15.68,0,1.23,0,2.46,0,14.34-9,36.61t-12.71,24.85q-26.27-12.58-47-11.8T2008.11,4076q0,9,15.17,15.41,3.29,1.53,9.43,4.16t14.15,6.24a161.3,161.3,0,0,1,17.23,9.2A141.69,141.69,0,0,1,2084,4126.1q21.73,19.74,21.74,53.35,0,43.88-24.2,72.62t-74.64,31.47a222,222,0,0,1-44.5-2.35,76.65,76.65,0,0,1-34.65-14.59q-14.76-11.28-14.77-28.08a98.2,98.2,0,0,1,6.15-33.68Q1925.28,4188,1932.24,4182.36Z"/><path class="cls-20" d="M2166.42,4203.22v-146l-29.12,1q-7,.24-9.85-17.29a123.58,123.58,0,0,1-1.23-17.59,125.44,125.44,0,0,1,1.23-17.67q2.87-17.73,9.85-18,68.89-2.34,137.82-4.36,7-.21,9.43,17.36a95,95,0,0,1,0,35.26q-2.46,17.72-9.43,17.91l-27.48.81v146l28.71-.85q7-.21,9.85,17.35a93.48,93.48,0,0,1,1.64,17.58,95.87,95.87,0,0,1-1.64,17.68q-2.88,17.72-9.85,17.92-69.12,2-138.23,4.36-7,.24-9.44-17.31a93.37,93.37,0,0,1-1.64-17.57,95.2,95.2,0,0,1,1.64-17.69c1.65-11.81,4.78-17.8,9.44-17.95Z"/><path class="cls-20" d="M2437.36,4270.17q-57.65,1.36-93.94-35.35t-36.31-109.09q0-72.34,36.72-110.7t94.76-39.7q58-1.36,93.75,34.63T2568,4120.37q0,74.43-36.51,111.43T2437.36,4270.17Zm.21-216.09q-19.7.47-33,18.84t-13.33,51q0,32.59,12.72,49.7t33.43,16.62q20.71-.49,33.64-18.41t12.93-50.72q0-32.8-13.34-50.14T2437.57,4054.08Z"/><path class="cls-20" d="M2825.71,4250.43q0,8.61-38.57,9t-41.86-5.63q-34.26-63.53-68.52-126.95v127.52q0,7.38-38,8t-37.95-6.72V3981.37q0-6.15,32.41-6.72a229.22,229.22,0,0,1,29.75,1.77q17,2,20.72,8.08,32.82,62.64,65.65,125.36V3981.11q0-7.79,38.16-8.26c25.44-.3,38.16,2.19,38.16,7.37Z"/><path class="cls-20" d="M2939.77,4234.3v-255c0-5.73,13.88-8.71,41.65-8.85s41.65,2.7,41.65,8.43v200.91q31.59-.1,63.19-.16,7.39,0,10.26,19.26a149,149,0,0,1,1.23,19.27,168.39,168.39,0,0,1-1.23,20.09q-3.29,19.7-10.67,19.7-63.2.09-126.38.46a16.7,16.7,0,0,1-14.36-7.29A27.81,27.81,0,0,1,2939.77,4234.3Z"/><path class="cls-20" d="M3315.23,4259.3q-35.7-.24-38.57-11.71-6.76-26.48-13.54-53-32.62-.14-65.25-.22-5.94,25.4-11.9,50.82-2.44,12.7-39.39,12.65-19.71,0-29.13-2.25t-9.44-3.48q36.31-138.82,72.63-277.55c0-2.19,18.73-3.27,56.22-3.13s56.21,1.36,56.21,3.54q35.5,139.2,71,278.49,0,2.88-18.87,4.36T3315.23,4259.3Zm-107.1-116.94q21.54.06,43.09.15-9.24-42.48-18.47-85h-2.46Q3219.22,4100,3208.13,4142.36Z"/><path class="cls-20" d="M3561.22,3978.78q22.77,8.76,22.77,23.11t-10.87,35.3q-10.87,21-18.26,20.84-2.06,0-4.72-2.32c-1.78-1.52-5.88-3.23-12.31-5.1a63.91,63.91,0,0,0-16.62-2.89q-23.79-.31-38.36,16.32t-14.57,51.28q0,34.65,15,51.64t37.95,17.3a96,96,0,0,0,21.14-2.38q11.68-2.51,16.61-7.34c.55-.54,1.64-.8,3.29-.77s4.71,3.14,9.23,9.36,8.68,14.35,12.51,24.39,5.75,17.79,5.75,23.25q0,16-24.62,25t-58.27,8.61q-54.17-.69-89-39.15t-34.87-108q0-69.49,35.9-108.93t89.65-38.75Q3538.45,3970,3561.22,3978.78Z"/><path class="cls-20" d="M3699.69,4257.73c0,4.39-13,6.3-39,5.82q-39.39-.71-39.39-6.84V3989.37q0-14.34,15.19-14.09,39.18.67,78.36,1.47c71.93,1.46,107.91,30.41,107.9,86.42q0,25.44-9.84,45.9a78.74,78.74,0,0,1-27.9,32.37q25.84,43.64,51.69,87.31-3.28,9.75-21.33,22-24.61,17.05-40.62,16.71t-23.79-12l-38.57-90.6-12.72-.25Zm0-208.71v61.51l2,0q39,.77,39-31.6,0-14.76-7.59-22.1t-24.82-7.68Z"/><path class="cls-20" d="M3985.43,4274.56q-57.63-1.7-93.94-40.33t-36.31-111q0-72.36,36.72-108.74t94.76-34.68q58,1.71,93.73,39.61t35.68,112.3q0,74.43-36.5,109.49T3985.43,4274.56Zm.2-216.08q-19.68-.57-33,17.09t-13.33,50.27q0,32.59,12.72,50.38t33.43,18.39q20.7.62,33.64-16.63t12.92-50q0-32.8-13.34-50.85T3985.63,4058.48Z"/><path class="cls-20" d="M4176,4206.16v-146l-29.13-1q-7-.24-9.84-18a125.44,125.44,0,0,1-1.23-17.67,123.68,123.68,0,0,1,1.23-17.59q2.86-17.53,9.84-17.29,68.91,2.41,137.81,5.14,7,.29,9.43,18a95.36,95.36,0,0,1,1.64,17.69,93.37,93.37,0,0,1-1.64,17.57q-2.46,17.53-9.43,17.25l-27.48-1.07v146l28.71,1.12q7,.28,9.84,18a95.36,95.36,0,0,1,1.64,17.69,93.29,93.29,0,0,1-1.64,17.57q-2.88,17.52-9.84,17.24-69.1-2.74-138.21-5.16-7-.24-9.44-18a94.36,94.36,0,0,1-1.64-17.69,93.37,93.37,0,0,1,1.64-17.57q2.46-17.55,9.44-17.3Z"/><path class="cls-20" d="M4477,4013.1c3.28-8,20.36-11.37,51.25-9.88a283.87,283.87,0,0,1,29.31,3.26q17.43,2.7,17.43,4.35-34.86,69.2-69.7,138.49,36.08,69.57,72.16,139.22,1.22,2.11-17.63,3t-32,.3q-52.08-2.49-57-16.63-15.37-39.85-30.75-79.71-13.95,39.76-27.89,79.54-4.09,11.29-52.48,9.21-11.91-.5-29.53-2.87t-16-5.17q32-69.63,64-139.19Q4344.92,4068,4311.7,3999q-1.23-2.1,17-3.21t31-.55q51.66,2.19,56.59,17.21,14.14,35.07,28.29,70.15Q4460.75,4047.82,4477,4013.1Z"/><path class="cls-20" d="M4709,4230.18v-146l-29.1-1.56q-7-.37-9.84-18.15a127,127,0,0,1,0-35.27q2.86-17.47,9.84-17.11,68.85,3.68,137.71,7.66,7,.41,9.43,18.18a96.74,96.74,0,0,1,1.64,17.73,93.54,93.54,0,0,1-1.64,17.53q-2.48,17.49-9.43,17.09l-27.46-1.58v146q14.34.81,28.69,1.65,7,.4,9.84,18.2a96.82,96.82,0,0,1,1.64,17.73,94.58,94.58,0,0,1-1.64,17.54q-2.88,17.46-9.84,17.05-69.06-4-138.13-7.68-7-.37-9.42-18.13a94,94,0,0,1-1.64-17.72,91.45,91.45,0,0,1,1.64-17.55q2.44-17.47,9.42-17.13Z"/><path class="cls-20" d="M5082.28,4314.34q0,8.61-38.51,6.05t-41.79-8.87q-34.21-66.17-68.42-132.25v127.52c0,4.93-12.65,6.58-37.91,5.05s-37.9-4.72-37.9-9.65V4027.88q0-6.15,32.37-4.21a234,234,0,0,1,29.71,4.07q17,3.3,20.69,9.68,32.79,65.19,65.56,130.44V4039.11c0-5.18,12.7-7,38.1-5.31s38.1,5.14,38.1,10.33Z"/><path class="cls-20" d="M5293,4056q22.74,10.1,22.73,24.45t-10.85,34.66q-10.86,20.31-18.23,19.76-2.06-.15-4.71-2.61t-12.28-5.82a66.1,66.1,0,0,0-16.59-3.88q-23.76-1.74-38.29,14T5200.24,4187q0,34.65,14.95,52.52t37.88,19.56a94.21,94.21,0,0,0,21.09-1.12q11.68-1.8,16.59-6.36c.54-.5,1.64-.7,3.27-.58s4.71,3.42,9.22,9.92,8.66,14.86,12.49,25.12,5.74,18.14,5.73,23.6q0,16-24.57,23.58t-58.15,5.16q-54-3.93-88.88-44.44t-34.81-110q0-69.49,35.84-106.81t89.49-33.41Q5270.28,4045.85,5293,4056Z"/><path class="cls-20" d="M5418.08,4349.07q0,2.85-38.69-.15t-38.69-5.43v-73.81c0-2.45,12.9-2.72,38.69-.72s38.68,3.71,38.69,5.07Z"/><path class="cls-18" d="M876.23,4345.75q-37.26,2.88-37.25-5.29v-265.7q0-13.94,12.69-14.94,36-2.82,72.06-5.55,60.6-4.59,87.43,18.52t26.82,70.64q0,39.36-25.39,74-12.69,17.32-37.27,29T918,4260.54v73.4q0,4.92-15.36,7.93A233.55,233.55,0,0,1,876.23,4345.75ZM918,4126.05v64.78l5.32-.4a37.17,37.17,0,0,0,24.16-10.84q9.82-9.75,9.83-26.16t-6.76-22.86q-6.76-6.46-23.95-5.17Z"/><path class="cls-18" d="M1152.26,4319.14q0,6.57-38.92,9.23Q1074,4331.09,1074,4325V4057.62q0-14.35,15.15-15.41,39.12-2.74,78.24-5.38c71.82-4.82,107.75,21,107.75,77a110.58,110.58,0,0,1-9.83,46.76,89.38,89.38,0,0,1-27.86,34.8q25.8,41.37,51.62,82.8-3.28,10-21.31,23.9-24.58,19.21-40.56,20.25t-23.76-9.91q-19.24-43.64-38.51-87.23l-12.69.86Zm0-208.71v61.51l2-.14q38.91-2.64,38.92-35,0-14.76-7.58-21.43t-24.78-5.51Z"/><path class="cls-18" d="M1446.85,4133.34q7.79-.45,7.79,28.26a134.69,134.69,0,0,1-1.84,20.4c-1.23,7.87-3.49,11.88-6.77,12.08q-26,1.5-52,3.05v41q37.69-2.25,75.41-4.39,7-.39,9.42,17.51a105.2,105.2,0,0,1,1.23,16.53,138.94,138.94,0,0,1-2.46,22.9q-2.46,14.07-8.19,14.4-70.1,4-140.16,8.32-15.57,1-15.57-11.74V4038q0-10.65,9.43-11.25,73.34-4.55,146.7-8.72,8.61-.49,8.61,35.8t-8.61,36.78q-37.9,2.15-75.81,4.41v41.41Q1420.42,4134.87,1446.85,4133.34Zm-79.91-121.15q-3.69.22-9.42-7.63-7.38-11-7.38-18.82c0-5.19.82-8.67,2.46-10.4q66.78-41,68-41,4.08-.26,10.24,9.24,9.44,13.82,9.43,26.51c0,3-.69,5.23-2,6.68Q1367.75,4012.06,1366.94,4012.19Z"/><path class="cls-18" d="M1685.62,4011.27q22.76,7.28,22.75,21.64t-10.86,36q-10.87,21.66-18.25,22c-1.36.06-2.94-.61-4.71-2s-5.88-2.85-12.3-4.31a62.87,62.87,0,0,0-16.6-1.83q-23.79,1.21-38.33,18.79t-14.55,52.22q0,34.65,15,50.68t37.92,14.85a97.54,97.54,0,0,0,21.11-3.73q11.68-3.24,16.6-8.41a5,5,0,0,1,3.28-1q2.46-.13,9.23,8.77t12.5,23.58q5.73,14.69,5.74,22.89,0,16-24.6,26.62t-58.21,12.37q-54.12,2.78-89-33.43t-34.84-105.72q0-69.5,35.86-111.24t89.57-44.51Q1662.87,4004,1685.62,4011.27Z"/><path class="cls-18" d="M1772.74,4218.87v-146l-29.11,1.36q-7,.33-9.85-17.16a124.68,124.68,0,0,1-1.22-17.57,125.94,125.94,0,0,1,1.22-17.69q2.87-17.76,9.85-18.1,68.86-3.27,137.76-6.22c4.65-.2,7.79,5.56,9.44,17.23a95,95,0,0,1,1.64,17.56,96.17,96.17,0,0,1-1.64,17.7q-2.47,17.74-9.44,18l-27.47,1.19v146l28.71-1.25q7-.28,9.84,17.22a93.19,93.19,0,0,1,1.64,17.56,96.33,96.33,0,0,1-1.64,17.7q-2.88,17.75-9.84,18.05-69.11,3-138.19,6.23-7,.34-9.42-17.18a92.18,92.18,0,0,1-1.64-17.55,93.89,93.89,0,0,1,1.64-17.71q2.46-17.76,9.42-18.08Z"/><path class="cls-18" d="M1932.24,4182.36q7.79,5.84,26.86,15.72t36.5,9.22q17.42-.66,17.43-14.2a14.08,14.08,0,0,0-4.92-10.68q-4.92-4.52-18-10.16t-19.68-8.86a142.22,142.22,0,0,1-17.43-10.79q-10.87-7.56-16.61-15.93-16.41-22.69-16.4-58.78t26.86-62q26.85-25.9,70.33-27.57a217.4,217.4,0,0,1,54.55,4.33q25,5.45,25.83,15.68,0,1.23,0,2.46,0,14.34-9,36.61t-12.71,24.85q-26.27-12.58-47-11.8T2008.11,4076q0,9,15.17,15.41,3.29,1.53,9.43,4.16t14.15,6.24a161.3,161.3,0,0,1,17.23,9.2A141.69,141.69,0,0,1,2084,4126.1q21.73,19.74,21.74,53.35,0,43.88-24.2,72.62t-74.64,31.47a222,222,0,0,1-44.5-2.35,76.65,76.65,0,0,1-34.65-14.59q-14.76-11.28-14.77-28.08a98.2,98.2,0,0,1,6.15-33.68Q1925.28,4188,1932.24,4182.36Z"/><path class="cls-18" d="M2166.42,4203.22v-146l-29.12,1q-7,.24-9.85-17.29a123.58,123.58,0,0,1-1.23-17.59,125.44,125.44,0,0,1,1.23-17.67q2.87-17.73,9.85-18,68.89-2.34,137.82-4.36,7-.21,9.43,17.36a95,95,0,0,1,0,35.26q-2.46,17.72-9.43,17.91l-27.48.81v146l28.71-.85q7-.21,9.85,17.35a93.48,93.48,0,0,1,1.64,17.58,95.87,95.87,0,0,1-1.64,17.68q-2.88,17.72-9.85,17.92-69.12,2-138.23,4.36-7,.24-9.44-17.31a93.37,93.37,0,0,1-1.64-17.57,95.2,95.2,0,0,1,1.64-17.69c1.65-11.81,4.78-17.8,9.44-17.95Z"/><path class="cls-18" d="M2437.36,4270.17q-57.65,1.36-93.94-35.35t-36.31-109.09q0-72.34,36.72-110.7t94.76-39.7q58-1.36,93.75,34.63T2568,4120.37q0,74.43-36.51,111.43T2437.36,4270.17Zm.21-216.09q-19.7.47-33,18.84t-13.33,51q0,32.59,12.72,49.7t33.43,16.62q20.71-.49,33.64-18.41t12.93-50.72q0-32.8-13.34-50.14T2437.57,4054.08Z"/><path class="cls-18" d="M2825.71,4250.43q0,8.61-38.57,9t-41.86-5.63q-34.26-63.53-68.52-126.95v127.52q0,7.38-38,8t-37.95-6.72V3981.37q0-6.15,32.41-6.72a229.22,229.22,0,0,1,29.75,1.77q17,2,20.72,8.08,32.82,62.64,65.65,125.36V3981.11q0-7.79,38.16-8.26c25.44-.3,38.16,2.19,38.16,7.37Z"/><path class="cls-18" d="M2939.77,4234.3v-255c0-5.73,13.88-8.71,41.65-8.85s41.65,2.7,41.65,8.43v200.91q31.59-.1,63.19-.16,7.39,0,10.26,19.26a149,149,0,0,1,1.23,19.27,168.39,168.39,0,0,1-1.23,20.09q-3.29,19.7-10.67,19.7-63.2.09-126.38.46a16.7,16.7,0,0,1-14.36-7.29A27.81,27.81,0,0,1,2939.77,4234.3Z"/><path class="cls-18" d="M3315.23,4259.3q-35.7-.24-38.57-11.71-6.76-26.48-13.54-53-32.62-.14-65.25-.22-5.94,25.4-11.9,50.82-2.44,12.7-39.39,12.65-19.71,0-29.13-2.25t-9.44-3.48q36.31-138.82,72.63-277.55c0-2.19,18.73-3.27,56.22-3.13s56.21,1.36,56.21,3.54q35.5,139.2,71,278.49,0,2.88-18.87,4.36T3315.23,4259.3Zm-107.1-116.94q21.54.06,43.09.15-9.24-42.48-18.47-85h-2.46Q3219.22,4100,3208.13,4142.36Z"/><path class="cls-18" d="M3561.22,3978.78q22.77,8.76,22.77,23.11t-10.87,35.3q-10.87,21-18.26,20.84-2.06,0-4.72-2.32c-1.78-1.52-5.88-3.23-12.31-5.1a63.91,63.91,0,0,0-16.62-2.89q-23.79-.31-38.36,16.32t-14.57,51.28q0,34.65,15,51.64t37.95,17.3a96,96,0,0,0,21.14-2.38q11.68-2.51,16.61-7.34c.55-.54,1.64-.8,3.29-.77s4.71,3.14,9.23,9.36,8.68,14.35,12.51,24.39,5.75,17.79,5.75,23.25q0,16-24.62,25t-58.27,8.61q-54.17-.69-89-39.15t-34.87-108q0-69.49,35.9-108.93t89.65-38.75Q3538.45,3970,3561.22,3978.78Z"/><path class="cls-18" d="M3699.69,4257.73c0,4.39-13,6.3-39,5.82q-39.39-.71-39.39-6.84V3989.37q0-14.34,15.19-14.09,39.18.67,78.36,1.47c71.93,1.46,107.91,30.41,107.9,86.42q0,25.44-9.84,45.9a78.74,78.74,0,0,1-27.9,32.37q25.84,43.64,51.69,87.31-3.28,9.75-21.33,22-24.61,17.05-40.62,16.71t-23.79-12l-38.57-90.6-12.72-.25Zm0-208.71v61.51l2,0q39,.77,39-31.6,0-14.76-7.59-22.1t-24.82-7.68Z"/><path class="cls-18" d="M3985.43,4274.56q-57.63-1.7-93.94-40.33t-36.31-111q0-72.36,36.72-108.74t94.76-34.68q58,1.71,93.73,39.61t35.68,112.3q0,74.43-36.5,109.49T3985.43,4274.56Zm.2-216.08q-19.68-.57-33,17.09t-13.33,50.27q0,32.59,12.72,50.38t33.43,18.39q20.7.62,33.64-16.63t12.92-50q0-32.8-13.34-50.85T3985.63,4058.48Z"/><path class="cls-18" d="M4176,4206.16v-146l-29.13-1q-7-.24-9.84-18a125.44,125.44,0,0,1-1.23-17.67,123.68,123.68,0,0,1,1.23-17.59q2.86-17.53,9.84-17.29,68.91,2.41,137.81,5.14,7,.29,9.43,18a95.36,95.36,0,0,1,1.64,17.69,93.37,93.37,0,0,1-1.64,17.57q-2.46,17.53-9.43,17.25l-27.48-1.07v146l28.71,1.12q7,.28,9.84,18a95.36,95.36,0,0,1,1.64,17.69,93.29,93.29,0,0,1-1.64,17.57q-2.88,17.52-9.84,17.24-69.1-2.74-138.21-5.16-7-.24-9.44-18a94.36,94.36,0,0,1-1.64-17.69,93.37,93.37,0,0,1,1.64-17.57q2.46-17.55,9.44-17.3Z"/><path class="cls-18" d="M4477,4013.1c3.28-8,20.36-11.37,51.25-9.88a283.87,283.87,0,0,1,29.31,3.26q17.43,2.7,17.43,4.35-34.86,69.2-69.7,138.49,36.08,69.57,72.16,139.22,1.22,2.11-17.63,3t-32,.3q-52.08-2.49-57-16.63-15.37-39.85-30.75-79.71-13.95,39.76-27.89,79.54-4.09,11.29-52.48,9.21-11.91-.5-29.53-2.87t-16-5.17q32-69.63,64-139.19Q4344.92,4068,4311.7,3999q-1.23-2.1,17-3.21t31-.55q51.66,2.19,56.59,17.21,14.14,35.07,28.29,70.15Q4460.75,4047.82,4477,4013.1Z"/><path class="cls-18" d="M4709,4230.18v-146l-29.1-1.56q-7-.37-9.84-18.15a127,127,0,0,1,0-35.27q2.86-17.47,9.84-17.11,68.85,3.68,137.71,7.66,7,.41,9.43,18.18a96.74,96.74,0,0,1,1.64,17.73,93.54,93.54,0,0,1-1.64,17.53q-2.48,17.49-9.43,17.09l-27.46-1.58v146q14.34.81,28.69,1.65,7,.4,9.84,18.2a96.82,96.82,0,0,1,1.64,17.73,94.58,94.58,0,0,1-1.64,17.54q-2.88,17.46-9.84,17.05-69.06-4-138.13-7.68-7-.37-9.42-18.13a94,94,0,0,1-1.64-17.72,91.45,91.45,0,0,1,1.64-17.55q2.44-17.47,9.42-17.13Z"/><path class="cls-18" d="M5082.28,4314.34q0,8.61-38.51,6.05t-41.79-8.87q-34.21-66.17-68.42-132.25v127.52c0,4.93-12.65,6.58-37.91,5.05s-37.9-4.72-37.9-9.65V4027.88q0-6.15,32.37-4.21a234,234,0,0,1,29.71,4.07q17,3.3,20.69,9.68,32.79,65.19,65.56,130.44V4039.11c0-5.18,12.7-7,38.1-5.31s38.1,5.14,38.1,10.33Z"/><path class="cls-18" d="M5293,4056q22.74,10.1,22.73,24.45t-10.85,34.66q-10.86,20.31-18.23,19.76-2.06-.15-4.71-2.61t-12.28-5.82a66.1,66.1,0,0,0-16.59-3.88q-23.76-1.74-38.29,14T5200.24,4187q0,34.65,14.95,52.52t37.88,19.56a94.21,94.21,0,0,0,21.09-1.12q11.68-1.8,16.59-6.36c.54-.5,1.64-.7,3.27-.58s4.71,3.42,9.22,9.92,8.66,14.86,12.49,25.12,5.74,18.14,5.73,23.6q0,16-24.57,23.58t-58.15,5.16q-54-3.93-88.88-44.44t-34.81-110q0-69.49,35.84-106.81t89.49-33.41Q5270.28,4045.85,5293,4056Z"/><path class="cls-18" d="M5418.08,4349.07q0,2.85-38.69-.15t-38.69-5.43v-73.81c0-2.45,12.9-2.72,38.69-.72s38.68,3.71,38.69,5.07Z"/><g class="cls-21"><path d="M3727.91,86.72l-15.69,9.18q2.63,39.81,5.27,79.61L3738.4,180c8.75-18,24.75-36.26,23.93-53.77C3761.68,112.56,3740.15,99.86,3727.91,86.72Z"/></g></svg>