<svg id="Calque_2" data-name="Calque 2" xmlns="http://www.w3.org/2000/svg" xmlns:xlink="http://www.w3.org/1999/xlink" viewBox="0 0 6174.72 5000"><defs><style>.cls-1,.cls-17,.cls-18,.cls-20,.cls-21,.cls-22{fill:none;}.cls-2{clip-path:url(#clip-path);}.cls-3{fill:#fff;}.cls-4{fill:url(#Dégradé_sans_nom_3);}.cls-5{fill:url(#Dégradé_sans_nom_3-2);}.cls-6{fill:url(#Dégradé_sans_nom_3-4);}.cls-7{fill:url(#Dégradé_sans_nom_3-5);}.cls-8{fill:url(#Dégradé_sans_nom_3-6);}.cls-9{fill:url(#Dégradé_sans_nom_3-9);}.cls-10{fill:url(#Dégradé_sans_nom_3-10);}.cls-11{fill:url(#Dégradé_sans_nom_3-11);}.cls-12{fill:url(#Dégradé_sans_nom_3-12);}.cls-13{fill:url(#Dégradé_sans_nom_3-13);}.cls-14{fill:url(#Dégradé_sans_nom_3-16);}.cls-15{fill:url(#Dégradé_sans_nom_3-21);}.cls-16{fill:url(#Dégradé_sans_nom_3-32);}.cls-17,.cls-20,.cls-21{stroke:#fff;}.cls-17,.cls-18,.cls-20,.cls-21,.cls-22{stroke-linejoin:round;}.cls-17{stroke-width:92.62px;}.cls-18,.cls-22{stroke:#000;}.cls-18{stroke-width:77px;}.cls-19{fill:#ff0001;}.cls-20{stroke-width:111.15px;}.cls-21,.cls-22{stroke-width:79.57px;}</style><clipPath id="clip-path"><ellipse class="cls-1" cx="1470.77" cy="2156.17" rx="1251.21" ry="1699.04"/></clipPath><linearGradient id="Dégradé_sans_nom_3" x1="2755.42" y1="3061.33" x2="5667.54" y2="3061.33" gradientUnits="userSpaceOnUse"><stop offset="0" stop-color="#fff"/><stop offset="0.18" stop-color="#fff" stop-opacity="0.99"/><stop offset="0.31" stop-color="#fff" stop-opacity="0.95"/><stop offset="0.43" stop-color="#fff" stop-opacity="0.89"/><stop offset="0.54" stop-color="#fff" stop-opacity="0.8"/><stop offset="0.64" stop-color="#fff" stop-opacity="0.68"/><stop offset="0.74" stop-color="#fff" stop-opacity="0.54"/><stop offset="0.83" stop-color="#fff" stop-opacity="0.38"/><stop offset="0.92" stop-color="#fff" stop-opacity="0.19"/><stop offset="1" stop-color="#fff" stop-opacity="0"/></linearGradient><linearGradient id="Dégradé_sans_nom_3-2" x1="2755.42" y1="2357.11" x2="5667.54" y2="2357.11" xlink:href="#Dégradé_sans_nom_3"/><linearGradient id="Dégradé_sans_nom_3-4" x1="2755.42" y1="2825.25" x2="5667.54" y2="2825.25" xlink:href="#Dégradé_sans_nom_3"/><linearGradient id="Dégradé_sans_nom_3-5" x1="2755.42" y1="2697.73" x2="5667.54" y2="2697.73" xlink:href="#Dégradé_sans_nom_3"/><linearGradient id="Dégradé_sans_nom_3-6" x1="2755.42" y1="3272.71" x2="5667.54" y2="3272.71" xlink:href="#Dégradé_sans_nom_3"/><linearGradient id="Dégradé_sans_nom_3-9" x1="2755.42" y1="3011.36" x2="5667.54" y2="3011.36" xlink:href="#Dégradé_sans_nom_3"/><linearGradient id="Dégradé_sans_nom_3-10" x1="2755.42" y1="2580.55" x2="5667.54" y2="2580.55" xlink:href="#Dégradé_sans_nom_3"/><linearGradient id="Dégradé_sans_nom_3-11" x1="2755.42" y1="2220.4" x2="5667.54" y2="2220.4" xlink:href="#Dégradé_sans_nom_3"/><linearGradient id="Dégradé_sans_nom_3-12" x1="2755.42" y1="2731.33" x2="5667.54" y2="2731.33" xlink:href="#Dégradé_sans_nom_3"/><linearGradient id="Dégradé_sans_nom_3-13" x1="2755.42" y1="2482.52" x2="5667.54" y2="2482.52" xlink:href="#Dégradé_sans_nom_3"/><linearGradient id="Dégradé_sans_nom_3-16" x1="2755.42" y1="2737.37" x2="5667.54" y2="2737.37" xlink:href="#Dégradé_sans_nom_3"/><linearGradient id="Dégradé_sans_nom_3-21" x1="2755.42" y1="1946.98" x2="5667.54" y2="1946.98" xlink:href="#Dégradé_sans_nom_3"/><linearGradient id="Dégradé_sans_nom_3-32" x1="2755.42" y1="3011.54" x2="5667.54" y2="3011.54" xlink:href="#Dégradé_sans_nom_3"/></defs><rect x="-7.26" width="6389.34" height="5000"/><g class="cls-2"><path class="cls-3" d="M2337,4286a11.27,11.27,0,0,0-5-6.77s-2.25-15.58-17.09-19.58-43.71-5.8-77.14-19.62-95.23-77.39-104.28-88.47-20.1-39.16-25.12-89.42,12.06-367.88,12.06-377.92-11.06-8-11.06-8,6-33.17,5-56.28-4-20.11-4-43.24,9.06-49.24,7.05-88.44-36.19-98.49-49.25-126.64-28.15-94.49-44.24-143.72-100.5-211.06-121.6-235.19-16.09-30.17-25.14-42.23-13.06-21.08-15.07-26.11-2-15.09-4-24.14-10-14.07-18.09-32.14-19.59-59.33-19.59-59.33-4.53-35.68-10.07-49.74-10.55-18.6-13-19.12-4-4.51-9-22.59-3.52-17.6-10.55-38.69-11.06-148.28-16.09-190.48-12.06-60.29-19.08-97.5-9.07-55.27-17.09-99.5-44.22-173.87-44.22-173.87,4-6,13.07-13.06,21.11-21.14,21.11-21.14,18.06,2,24.11-1,57.28-27.15,65.33-35.19-2-37.18-2-37.18,89.46-58.29,117.61-92.47,146.73-236.7,148.75-240.22,8-4.53,19.09-10,42.2-46.25,42.2-46.25,0,1,7,3,8,1,17.59-6.53,17.58-20.58,18.09-33.15c.29-7.42.07-9.6-.19-10.11a.33.33,0,0,1-.32,0s.17-.41.32,0c.46-.23,1.36-1.11,2.69-4.47,2-5,2-14.07-1.5-23.1s-8.54-8.05-8.54-8.05,2-9.07-.51-17.59-15.07-10.55-15.07-10.55-1-2-1-8-.5-14.58-10.05-16.09-22.61-3.76-22.61-3.76-.51-.76-1-8.8-5-13.57-12.06-14.82-59,8-59,8l-312.09-274.37a41.63,41.63,0,0,0,1.51-10.58c0-5.52-4.52-37.7-5.79-40.72s-4.25-11-12.3-14.31-15.09-4.27-16.34-5.26-2.25-7.29-6.54-12.08-17.07-9.81-17.07-9.81a58.07,58.07,0,0,0,.74-8.52c.26-6.3-7.53-11.83-13.05-13.83s-16.86-.51-16.86-.51a25,25,0,0,0-.25-13.55c-2.25-6.79-11.06-12.57-17.07-12.06s-13.82,6.54-13.82,6.54a18,18,0,0,0-10.81.24c-5.53,2-11.82,12.56-11.82,12.56l-296-261.83,41.23-64.84s2-2.5-.51-9-88-74.37-89.71-74.87a10,10,0,0,0-8.3.74c-3.27,2-48.74,52.52-48.74,52.52s-8-1-13.06,1.51-30.67,35.16-33.69,40.71,0,10.06.51,12.55S1101.24,826.75,1101,830s49.5,46.72,53.53,49.74,40,25.15,40,25.15,6.52,3,9,1,53.26-52.76,53.26-52.76l299.52,255.27s-11.57,23.62-13.58,29.65-2,15.6,11.57,26.66,50.26,71.86,50.26,71.86,16.08,71.35,23.11,110.56,6,124.62,6,124.62-22.61-27.13-64.83-38.21-100-7.5-120.1,1.53-39.2,20.1-39.2,20.1-55.28,27.15-73.37,61.31-17.09,112.06-17.09,112.06a27.23,27.23,0,0,0-5,9.56c-1.51,5.53,1,30.91,1,30.91s-14.84,12-18.11,17.09,2.78,14.05,12.59,15.31,35.17.27,36.68-.5,3.76,30.17,3.76,33.42,6.54,3,7.79,2.78,5.54,6.53,6.54,21.08,3.27,83.92.24,90c0,0-95.88,4.06-112,8.58s-4.54,10.06-5,21.12,5.52,32.15,9,36.2,7.54,9,8.54,15.55,2,37.2-2,42.2-48.25,59.33-55.28,84.46-9,64.29-7,104.51,48.24,138.69,65.33,166.85,19.1,108.56,37.17,152.78,35.18,72.35,37.19,86.42-2,23.14-5,52.27,25.63,85,25.63,85l-6,5c-3,2.52,0,5.53-.49,19.1s-14.58,52.27-18.11,59.8,2.51,16.09,2.51,16.09-2,4-6.52,12.57-21.63,75.38-21.63,75.38a56.86,56.86,0,0,1-7.52,1.51c-4,.49-1.51,6.52-5.54,18.56s-12.06,151.8-12.06,151.8,4,30.17,2,40.21-4,16.07-2,36.18,6,26.13,4,54.26-30.17,251.28-30.17,267.36-32.14,42.23-62.31,88.45S1138,3675,1138,3675s-22.12,5-28.15,12.08-43.2,188.94-52.26,231.16-12.06,228.15-11,242.24-7,29.13-16.08,45.22-5.54,56.3-5.54,60.29v25.65c0,8.53-1.51,18.08,2.52,26.11s20.61,17.62,23.12,18.12,5.52,8.54,6.52,12.54,9.06,15.58,15.58,23.13,37.19,27.64,69.36,28.62,102.27-1.49,109.81-5,17.58-12.3,18.6-21.85-.51-20.86-.51-20.86,2-17.86-10.06-27.91-36.18-55.76-41.21-62.81-2-27.13-4-48.26-8-18.06-15.07-32.15,1-25.13,7-51.25-3-55.28,0-69.33,48.24-64.36,63.33-111.58,48.23-195,48.23-195,47.24-29.18,58.3-52.28,10-31.13,14.07-38.18,16.07-21.1,24.12-51.26,6.05-28.17,11.06-44.22,63.32-95.49,71.37-124.65,17.07-60.3,24.11-73.37,32.17-35.16,49.26-67.34,44.22-97.48,44.22-97.48,10.06,9,25.12,32.16,19.1,19.1,35.17,52.26,106.55,155.78,107.55,170.87,23.11,56.3,44.22,64.31,38.21,36.19,44.23,50.28,10,110.54,10,110.54-13.06,8.07-12.08,16.08S1879,3710.9,1880,3727s8,194,14.07,238.19,37.2,149.77,31.17,174.87-3,77.91-3,77.91a12.75,12.75,0,0,0-3,7.52c-.51,5,1.51,18.12-1.51,22.62s.49,27.64,5.52,31.67,87.45,23.14,93,22.36,20.61-4.27,28.91-6.54,38.44,7.05,45.21,11.82,30.17,20.09,47.24,23.1,163.59,12.33,173.38,6,25.88-29.64,25.39-34.69S2338,4290.58,2337,4286ZM2007.92,1507s-3.52,9.52-6,33.15,3.52,51.25-1.51,59.8-16.07,28.65-34.67,39.2-31.16,27.14-56.79,55.79-154.29,115.09-163.33,121.1a230.9,230.9,0,0,0,16.1-46.2c6-26.14,21.11-61.33,21.11-61.33s12,0,19.09-14.07,15.07-40.19,8-57.28-17.09-10.06-17.09-10.06-1-15.09,0-38.18,8-55.29,3-108.56-63.33-214.11-63.33-214.11Z"/></g><polygon class="cls-4" points="2200.01 3109.58 2190.22 3029.16 2160.88 2983.21 2134.79 2983.21 2115.22 3046.39 2115.22 3139.45 2178.81 3139.45 2200.01 3109.58"/><polygon class="cls-5" points="2596.86 2563.89 2481.91 2481.18 2616.43 2150.32 2655.56 2180.19 2638.44 2274.39 2655.56 2312.31 2655.56 2343.32 2606.64 2364 2618.87 2408.81 2640.88 2432.93 2596.86 2563.89"/><polygon class="cls-4" points="2552.46 3150.94 2523.11 3150.94 2523.11 3216.42 2483.98 3168.17 2420.39 3183.68 2408.16 3116.47 2393.49 3102.69 2347.02 3133.7 2271.2 3039.5 2361.69 2906.24 2552.46 3150.94"/><polygon class="cls-6" points="2520.66 2892.45 2520.66 2785.61 2479.09 2737.36 2411.83 2830.42 2411.83 2892.45 2466.25 2913.13 2520.66 2892.45"/><polygon class="cls-7" points="2271.2 2696.01 2271.2 2658.1 2246.74 2658.1 2228.81 2696.01 2250.01 2737.36 2271.2 2696.01"/><rect class="cls-8" x="3399.49" y="3171.62" width="384.79" height="202.19"/><rect class="cls-8" x="2961.71" y="3171.62" width="384.79" height="202.19"/><rect class="cls-8" x="3842.98" y="3171.62" width="384.79" height="202.19"/><polygon class="cls-9" points="2845.1 3109.58 2845.1 2913.13 2737.49 2913.13 2720.37 2947.6 2720.37 2983.21 2666.56 2983.21 2651.89 3061.33 2610.31 3061.33 2590.75 3030.31 2568.73 3061.33 2568.73 3109.58 2845.1 3109.58"/><polygon class="cls-10" points="2969.83 2647.76 2984.51 2589.17 3004.07 2565.04 3004.07 2523.69 3004.07 2423.74 2786.4 2578.83 2845.1 2737.36 2969.83 2647.76"/><polygon class="cls-11" points="3035.3 2316.9 3035.3 2123.9 2908.69 2123.9 2862.22 2189.38 2876.89 2251.42 2862.22 2316.9 3035.3 2316.9"/><polygon class="cls-12" points="3035.3 2697.73 2982.06 2697.73 2982.06 2737.36 3004.07 2764.94 3035.3 2737.36 3035.3 2697.73"/><polygon class="cls-13" points="3282.88 2575.77 3282.88 2389.28 3155.7 2389.28 3123.91 2423.74 3123.91 2468.54 3101.9 2499.56 3101.9 2527.13 3045.65 2565.04 3282.88 2575.77"/><rect class="cls-11" x="3090.49" y="2119.31" width="461.62" height="202.19"/><rect class="cls-11" x="3622.52" y="2119.31" width="461.62" height="202.19"/><rect class="cls-14" x="3090.49" y="2636.27" width="461.62" height="202.19"/><rect class="cls-14" x="3622.52" y="2636.27" width="461.62" height="202.19"/><rect class="cls-13" x="3381.93" y="2381.43" width="481.18" height="202.19"/><rect class="cls-9" x="3381.93" y="2910.26" width="481.18" height="202.19"/><rect class="cls-9" x="2886.95" y="2910.26" width="401.1" height="202.19"/><rect class="cls-15" x="3391.71" y="1845.89" width="461.62" height="202.19"/><rect class="cls-13" x="3919.83" y="2381.43" width="481.18" height="202.19"/><rect class="cls-9" x="3919.83" y="2910.26" width="481.18" height="202.19"/><rect class="cls-15" x="3990.53" y="1845.89" width="461.62" height="202.19"/><rect class="cls-11" x="4154.4" y="2119.31" width="461.62" height="202.19"/><rect class="cls-14" x="4154.4" y="2636.27" width="461.62" height="202.19"/><rect class="cls-11" x="4674.7" y="2119.31" width="258.19" height="202.19"/><rect class="cls-15" x="5024.59" y="1845.89" width="258.19" height="202.19"/><rect class="cls-13" x="4984.03" y="2381.43" width="258.19" height="202.19"/><rect class="cls-14" x="4674.7" y="2636.27" width="258.19" height="202.19"/><rect class="cls-14" x="5505.77" y="2636.27" width="258.19" height="202.19"/><rect class="cls-16" x="4984.03" y="2910.44" width="258.19" height="202.19"/><rect class="cls-8" x="4803.79" y="3171.62" width="258.19" height="202.19"/><rect class="cls-13" x="4451.71" y="2381.43" width="481.18" height="202.19"/><rect class="cls-14" x="4984.03" y="2636.27" width="481.18" height="202.19"/><rect class="cls-9" x="4451.71" y="2910.26" width="481.18" height="202.19"/><rect class="cls-9" x="5282.78" y="2910.26" width="481.18" height="202.19"/><rect class="cls-8" x="4281.83" y="3171.62" width="481.18" height="202.19"/><rect class="cls-8" x="5102.24" y="3171.62" width="481.18" height="202.19"/><rect class="cls-15" x="4522.42" y="1845.89" width="461.62" height="202.19"/><rect class="cls-11" x="5505.77" y="2119.31" width="258.19" height="202.19"/><rect class="cls-13" x="5282.78" y="2381.43" width="481.18" height="202.19"/><rect class="cls-15" x="5302.34" y="1845.89" width="461.62" height="202.19"/><rect class="cls-11" x="4991.57" y="2119.31" width="461.62" height="202.19"/><path class="cls-3" d="M394.65,3978.9V3444.17c0-14.84,2.53-26.75,7.6-35.64s11.66-13.53,19.77-14q50.79-2.75,101.59-5.37c64.49-3.26,113.42,16.91,146.68,58.5C703.55,3489.45,719.9,3556,719.43,3649c-1,198.19-64.92,310.41-191.07,340q-51.56,11.61-103,23.68Q394.65,4019.9,394.65,3978.9Zm116.47-425.34q-.24,128.83-.5,257.66c0,12.06.57,19.58,1.77,22.51s4.83,3.87,10.87,2.77c22.15-4,39-18.68,50.57-43.74s17.44-64.22,17.61-117.82-5.69-87.82-17.57-103-30.79-21.54-56.68-19Z"/><path class="cls-3" d="M962.69,3579.51q11.55-1.12,11.12,51.87a311.8,311.8,0,0,1-3,37.83q-2.89,21.95-10.2,22.9-38.58,5-77.12,10.23-.29,38.8-.56,77.6,55.8-8.71,111.68-17c6.88-1,11.44,9.32,13.68,30.94a234,234,0,0,1,1.56,30.08q-.13,16.14-4,42.25T993.45,3894q-103.74,19-207.2,39.93c-15.33,3.11-22.94-3.59-22.85-20.19l2.94-515.63q.12-20.85,14.12-21.51,109-5.09,218.06-9.7,12.79-.49,12.22,65.86t-13.35,67.39q-56.29,4.4-112.56,9l-.57,78.38Q923.47,3583.43,962.69,3579.51ZM845.77,3350.8c-3.65.13-8.29-4.89-13.9-15.2-7.22-14.44-10.79-26.74-10.73-36.75s1.32-16.62,3.78-19.82c66.55-48.49,100.52-70.89,101.73-71,4.06,0,9.11,6.15,15.11,18.35,9.21,17.81,13.76,34.47,13.63,50.21q-.06,8.39-3.14,12.25C882,3329.07,846.58,3350.9,845.77,3350.8Z"/><path class="cls-3" d="M1319.35,3362.28c22.46,8.62,33.6,20.86,33.41,36.89s-5.8,36.11-16.83,60.47-20.21,37-27.53,37.47c-2,.14-4.35-1-7-3.33s-8.69-4.72-18.19-7.09-17.73-3.34-24.63-2.86c-23.57,1.62-42.66,12.61-57.27,33.26s-22.13,51.33-22.54,91.78,6.67,69.66,21.29,87.31,33.26,24.88,56,22q14-1.79,31.4-8.51t24.81-15.88q1.23-1.53,4.89-2t13.53,13.92q9.87,14.31,18.12,38.32t8.08,37.66c-.2,17.85-12.55,33.74-37,48.07s-53.35,24.31-86.59,29.78c-53.52,8.81-97.25-5.67-131.24-45.64s-50.63-102.55-49.88-186.44,19.1-151.48,55.09-200.75,80.62-74,133.88-75.9C1270.82,3349.76,1296.9,3353.67,1319.35,3362.28Z"/><path class="cls-3" d="M1584.57,3807.32c-57.16,7.66-103.46-5.81-138.94-42.35s-52.74-95.4-51.81-175.54,19.82-142.21,56.69-184.6,84.09-63.77,141.65-65.43,103.8,16.33,138.73,52.61,51.94,91.71,51,167.21-19.77,133.17-56.48,174.42S1641.73,3799.68,1584.57,3807.32Zm4.53-343c-19.53,1.1-36,11.63-49.47,31.79s-20.39,47.89-20.82,82.93,5.55,61.33,17.94,78.68,28.84,24.83,49.38,22.66,37.35-13.17,50.4-32.84,19.78-46.49,20.21-80.66-5.87-60-18.86-77.63S1608.63,3463.26,1589.1,3464.37Z"/><path class="cls-3" d="M2163.69,3726.14c-.08,8.16-19.35,13.77-57.72,17.1s-59.17,2.34-62.37-3.32q-50-88.08-99.93-179.1l-2.28,188.2c-.09,7.27-19,12.76-56.73,16.76s-56.53,2.45-56.43-5q2.55-206.84,5.12-413.66.12-9.3,48.34-10.49a342.65,342.65,0,0,1,44.22,2.27q25.29,2.73,30.68,11.64,47.73,91.75,95.57,180.42,1.08-93.19,2.17-186.42.14-11.27,56.92-12.46t56.68,10Q2165.8,3534.1,2163.69,3726.14Z"/><path class="cls-3" d="M2409.49,3712.33c-.07,7.52-20.35,12.46-60.83,15.16s-60.67.41-60.59-7.25q1.45-143.65,2.9-287.31-36.67,1.14-73.36,2.37-10.4.35-14.38-26.17a180.79,180.79,0,0,1-1.55-26,182.88,182.88,0,0,1,2.11-26.13q4.56-26.74,14.95-26.93,132.83-2.4,265.71-4.11,10.38-.13,14.45,25.49a169.51,169.51,0,0,1,1.63,25.07,171.93,171.93,0,0,1-2,25.15q-4.5,25.76-14.89,26-35.78.85-71.55,1.81Q2410.76,3570.9,2409.49,3712.33Z"/><path class="cls-3" d="M2821.29,3704.4c-35.62,1-54.84-3.5-57.65-13.6q-9.94-34.89-19.89-69.84-48.77,1.34-97.52,3L2628,3692.91c-2.53,11.5-22.21,18-59,19.75-19.64.94-34.17.67-43.55-.9s-14.09-2.89-14.08-4q55.82-191.4,111.17-378.44c0-2.93,27.91-4.71,83.73-5.19s83.7.83,83.69,3.72q52,184.29,104.5,366.73c0,2.54-9.44,4.7-28.27,6.57S2832.35,3704.11,2821.29,3704.4ZM2662,3553.66q32.16-.88,64.34-1.66-13.48-56.27-26.91-112.75l-3.67.06Q2678.91,3496.33,2662,3553.66Z"/><path class="cls-3" d="M3364.93,3702c-36.45-.71-54.68-4.53-54.69-11.76q-6.72-108.48-13.39-216.88-37.11,109.43-74.44,218.62c-1.64,4.31-15.56,6.34-41.76,6.24s-39.73-2.05-40.55-6q-38.71-110.82-77.17-221.49-4.39,107.63-8.82,215.28-.63,8.1-23.35,11.24t-37.79,3.35a262,262,0,0,1-29.17-1.23q-29.48-3.35-28.83-13.08,7.55-176,15-351.72c0-8.64,24.87-13.09,74.58-13.19q22-.06,53.77,2.88t35.44,11.56q34.2,84.91,68.57,169.9,30-85.14,59.78-170.31,5.47-14,84.3-13.79,22.61.09,54.09,3.22t31.51,10.75q9.55,178.09,19.18,356.5c0,4-7.95,6.67-23.92,8.12A392.4,392.4,0,0,1,3364.93,3702Z"/><path class="cls-3" d="M3532.09,3611.89,3531,3417.33q-21.72-.32-43.44-.59-10.41-.13-14.79-23.59a150.73,150.73,0,0,1-.22-46.83q4.17-23.37,14.56-23.32,102.64.72,205.29,1.85,10.39.11,14.23,24a117.08,117.08,0,0,1,2.63,23.88,115.14,115.14,0,0,1-2.27,23.81q-3.5,23.76-13.89,23.56-20.49-.42-41-.79l1.35,196.4q21.45.76,42.92,1.6,10.41.41,14.89,24.42a118.25,118.25,0,0,1,2.63,24,113.46,113.46,0,0,1-2.27,23.74q-4.12,23.66-14.55,23.14-103.43-4.91-206.91-8-10.44-.32-14.23-23.84a112.68,112.68,0,0,1-.22-46.83q3.57-23.31,14-23.08Q3510.92,3611.31,3532.09,3611.89Z"/><path class="cls-3" d="M4091.35,3725.11c.1,8.16-19.07,10.63-57.47,7.7s-59.3-7.23-62.62-13.17q-52.1-92.73-104-182.71.8,87.74,1.6,175.47c.07,6.79-18.82,8.95-56.65,6.76s-56.79-6.45-56.84-13.14q-1.48-186.34-3-372.68-.07-8.33,48.19-7.74a367.43,367.43,0,0,1,44.32,3.69q25.36,3.47,30.95,12,49.68,87.79,99.53,177.93-.9-89.82-1.81-179.65-.12-10.86,56.69-9.9t56.92,12.09Q4089.26,3533.45,4091.35,3725.11Z"/><path class="cls-3" d="M4440.44,3772.6c-35.47-3.94-54.71-11.66-57.7-23.36q-10.58-40.48-21.15-80.66-48.61-4.2-97.26-8.07-8.43,36.4-16.86,72.59c-2.32,12.14-21.82,16.4-58.57,13.1q-29.38-2.62-43.53-7c-9.43-2.94-14.13-5-14.14-6.16q52-193.62,103.65-393.91c0-3.17,27.82-4.18,83.59-2.87s83.66,3.67,83.7,6.95q55.36,209.67,110.9,428.32c0,2.94-9.31,4.13-28,3.65S4451.44,3773.82,4440.44,3772.6Zm-161.72-187.09q32.1,2.16,64.2,4.44-14.52-63.82-29-127l-3.67-.17Q4294.5,3524.5,4278.72,3585.51Z"/><path class="cls-3" d="M4737.13,3797.52c.1,8.81-20,10.39-60.25,5.05s-60.5-12.08-60.6-20.63q-2-161-4-321.92-36.61-2-73.25-3.88-10.38-.55-15-29.71a220.88,220.88,0,0,1-.71-56.65q3.91-28.82,14.29-28.55,132.73,3.67,265.42,8.06,10.36.35,15,31.39a247.67,247.67,0,0,1,2.19,30.33,242.08,242.08,0,0,1-1.47,30.14c-2.61,20.46-7.36,30.43-14.27,30q-35.69-2.2-71.37-4.3Q4735.11,3632.19,4737.13,3797.52Z"/><path class="cls-3" d="M4898.66,3713.71q-1.41-121.8-2.8-243.61-21.64-1.38-43.3-2.71-10.38-.64-15-29.92a228.11,228.11,0,0,1-2.17-29.11,223.46,223.46,0,0,1,1.48-28.93c2.62-19.22,7.38-28.76,14.3-28.53q102.47,3.48,204.89,7.38,10.35.39,14.34,31.27a195.74,195.74,0,0,1,2.75,30.87,188.43,188.43,0,0,1-2.12,30.6q-3.35,30.51-13.69,29.76-20.41-1.41-40.83-2.79,1.35,125.49,2.69,251,21.32,2.79,42.6,5.63,10.35,1.38,14.92,32.71a199.42,199.42,0,0,1,2.75,31.12,185.71,185.71,0,0,1-2.11,30.39c-2.64,20.06-7.38,29.48-14.28,28.34q-102.46-16.89-205.14-32-10.36-1.53-14.36-31.08a176.71,176.71,0,0,1-2.78-29.36,165.46,165.46,0,0,1,2.1-28.71q3.33-28.58,13.68-27.37Q4877.64,3711.15,4898.66,3713.71Z"/><path class="cls-3" d="M5301.52,3906.52c-56.81-10.72-103.34-42.05-139.63-92.51s-54.87-117.16-55.73-201.94,16.66-147.45,52.59-189.85,82.65-63.25,140.14-60.94,104,27.14,139.65,76.43,53.64,123.24,54.2,220.08-17,166.14-52.64,206S5358.3,3917.23,5301.52,3906.52Zm-3-399.67c-19.47-1.55-35.72,8.26-48.7,29.06s-19.32,50.8-19,90.26,6.9,70.48,19.64,93.41,29.33,36,49.78,39.05,36.94-5.37,49.52-25.61,18.73-51.07,18.42-92.3-7.13-73.62-20.47-96.85S5318,3508.4,5298.55,3506.85Z"/><path class="cls-3" d="M5873.26,4000.29c0,12.5-18.86,14.23-56.58,5.44s-58.26-17.68-61.48-27q-50.61-145.55-101.67-283,.45,130.09.92,260.18c0,10.06-18.55,11-55.8,3s-55.93-16.62-56-26.34q-1.4-271.12-2.8-542.24-.07-12.13,48-9.85,18.87.92,44.15,6.73t30.79,18.77Q5712,3538,5760.66,3677.28l-.51-270.87q0-16.34,56.54-13.41t56.57,20Z"/><path class="cls-17" d="M394.65,4055V3520.29c0-14.85,2.53-26.76,7.6-35.65s11.66-13.53,19.77-14q50.79-2.73,101.59-5.37c64.49-3.26,113.42,16.91,146.68,58.5,33.26,41.75,49.61,108.28,49.14,201.32-1,198.18-64.92,310.41-191.07,339.95q-51.56,11.61-103,23.68Q394.65,4096,394.65,4055Zm116.47-425.33q-.24,128.82-.5,257.66,0,18.09,1.77,22.51t10.87,2.76c22.15-4,39-18.67,50.57-43.73s17.44-64.23,17.61-117.82-5.69-87.83-17.57-103-30.79-21.54-56.68-19C515.17,3629.27,513.14,3629.47,511.12,3629.68Z"/><path class="cls-17" d="M962.69,3655.63q11.55-1.14,11.12,51.86a311.8,311.8,0,0,1-3,37.83q-2.89,21.94-10.2,22.91-38.58,5-77.12,10.22-.29,38.81-.56,77.61,55.8-8.73,111.68-17c6.88-1,11.44,9.33,13.68,30.94a234.12,234.12,0,0,1,1.56,30.09q-.13,16.13-4,42.25t-12.35,27.74q-103.74,19-207.2,39.93c-15.33,3.1-22.94-3.6-22.85-20.19l2.94-515.64c.08-13.89,4.78-21.08,14.12-21.5q109-5.09,218.06-9.7,12.79-.51,12.22,65.86t-13.35,67.39q-56.29,4.38-112.56,9l-.57,78.38Q923.47,3659.54,962.69,3655.63ZM845.77,3426.91c-3.65.14-8.29-4.89-13.9-15.2-7.22-14.44-10.79-26.73-10.73-36.74s1.32-16.62,3.78-19.83c66.55-48.48,100.52-70.89,101.73-71,4.06,0,9.11,6.14,15.11,18.35,9.21,17.81,13.76,34.46,13.63,50.2q-.06,8.39-3.14,12.26C882,3405.19,846.58,3427,845.77,3426.91Z"/><path class="cls-17" d="M1319.35,3438.39c22.46,8.63,33.6,20.87,33.41,36.9s-5.8,36.11-16.83,60.47-20.21,36.95-27.53,37.47c-2,.13-4.35-1-7-3.33s-8.69-4.73-18.19-7.1-17.73-3.34-24.63-2.85c-23.57,1.61-42.66,12.61-57.27,33.25s-22.13,51.33-22.54,91.79,6.67,69.66,21.29,87.31,33.26,24.87,56,22c9.33-1.18,19.8-4,31.4-8.51s19.88-9.74,24.81-15.88q1.23-1.53,4.89-2t13.53,13.92q9.87,14.32,18.12,38.33t8.08,37.66c-.2,17.84-12.55,33.73-37,48.06s-53.35,24.31-86.59,29.78c-53.52,8.82-97.25-5.67-131.24-45.63s-50.63-102.56-49.88-186.44,19.1-151.48,55.09-200.75,80.62-74,133.88-75.9C1270.82,3425.87,1296.9,3429.78,1319.35,3438.39Z"/><path class="cls-17" d="M1584.57,3883.44c-57.16,7.65-103.46-5.81-138.94-42.35s-52.74-95.41-51.81-175.54,19.82-142.22,56.69-184.61,84.09-63.77,141.65-65.43,103.8,16.34,138.73,52.61,51.94,91.71,51,167.21-19.77,133.17-56.48,174.42S1641.73,3875.79,1584.57,3883.44Zm4.53-343c-19.53,1.1-36,11.63-49.47,31.79s-20.39,47.88-20.82,82.92,5.55,61.33,17.94,78.69,28.84,24.83,49.38,22.66,37.35-13.17,50.4-32.85,19.78-46.48,20.21-80.66-5.87-60-18.86-77.63S1608.63,3539.37,1589.1,3540.49Z"/><path class="cls-17" d="M2163.69,3802.25c-.08,8.16-19.35,13.78-57.72,17.1s-59.17,2.34-62.37-3.32q-50-88.07-99.93-179.1l-2.28,188.21c-.09,7.27-19,12.76-56.73,16.76s-56.53,2.45-56.43-5q2.55-206.83,5.12-413.66.12-9.3,48.34-10.48a340.86,340.86,0,0,1,44.22,2.27q25.29,2.71,30.68,11.64,47.73,91.74,95.57,180.42,1.08-93.21,2.17-186.42.14-11.27,56.92-12.46t56.68,10Q2165.8,3610.2,2163.69,3802.25Z"/><path class="cls-17" d="M2409.49,3788.44c-.07,7.53-20.35,12.47-60.83,15.16s-60.67.41-60.59-7.24q1.45-143.66,2.9-287.31-36.67,1.13-73.36,2.36-10.4.36-14.38-26.16a181,181,0,0,1-1.55-26,183,183,0,0,1,2.11-26.13q4.56-26.73,14.95-26.93,132.83-2.4,265.71-4.1,10.38-.14,14.45,25.48a169.74,169.74,0,0,1,1.63,25.08,171.91,171.91,0,0,1-2,25.14q-4.5,25.76-14.89,26-35.78.86-71.55,1.8Q2410.76,3647,2409.49,3788.44Z"/><path class="cls-17" d="M2821.29,3780.52c-35.62.95-54.84-3.5-57.65-13.61q-9.94-34.87-19.89-69.83-48.77,1.34-97.52,3L2628,3769c-2.53,11.49-22.21,18-59,19.74-19.64.94-34.17.67-43.55-.9s-14.09-2.89-14.08-4q55.82-191.4,111.17-378.44c0-2.93,27.91-4.72,83.73-5.19s83.7.82,83.69,3.71q52,184.29,104.5,366.74c0,2.53-9.44,4.69-28.27,6.56S2832.35,3780.23,2821.29,3780.52ZM2662,3629.77q32.16-.89,64.34-1.65-13.48-56.28-26.91-112.75l-3.67.06Q2678.91,3572.45,2662,3629.77Z"/><path class="cls-17" d="M3364.93,3778.1c-36.45-.71-54.68-4.53-54.69-11.75q-6.72-108.49-13.39-216.89-37.11,109.42-74.44,218.63c-1.64,4.3-15.56,6.34-41.76,6.23s-39.73-2.05-40.55-6q-38.71-110.82-77.17-221.49-4.39,107.64-8.82,215.28-.63,8.1-23.35,11.24a308.88,308.88,0,0,1-37.79,3.36,261.94,261.94,0,0,1-29.17-1.24q-29.48-3.33-28.83-13.08,7.55-175.93,15-351.72,0-13,74.58-13.19,22,0,53.77,2.88t35.44,11.57q34.2,84.9,68.57,169.89,30-85.12,59.78-170.31c3.65-9.32,31.76-14,84.3-13.78q22.61.09,54.09,3.21t31.51,10.75q9.55,178.1,19.18,356.5c0,4-7.95,6.68-23.92,8.12A392.4,392.4,0,0,1,3364.93,3778.1Z"/><path class="cls-17" d="M3532.09,3688,3531,3493.44q-21.72-.32-43.44-.58-10.41-.14-14.79-23.6a150.72,150.72,0,0,1-.22-46.83c2.78-15.57,7.63-23.37,14.56-23.32q102.64.72,205.29,1.85,10.39.11,14.23,24a117.18,117.18,0,0,1,2.63,23.89,115,115,0,0,1-2.27,23.8q-3.5,23.78-13.89,23.56-20.49-.4-41-.79l1.35,196.41q21.45.77,42.92,1.59,10.41.4,14.89,24.43a118.1,118.1,0,0,1,2.63,24,113.46,113.46,0,0,1-2.27,23.74c-2.75,15.77-7.6,23.46-14.55,23.14q-103.43-4.92-206.91-8-10.44-.3-14.23-23.83a112.73,112.73,0,0,1-.22-46.84q3.57-23.31,14-23.08Q3510.92,3687.44,3532.09,3688Z"/><path class="cls-17" d="M4091.35,3801.23c.1,8.16-19.07,10.63-57.47,7.69s-59.3-7.22-62.62-13.16q-52.1-92.75-104-182.71.8,87.72,1.6,175.46c.07,6.79-18.82,8.95-56.65,6.77s-56.79-6.45-56.84-13.15q-1.48-186.33-3-372.67-.07-8.34,48.19-7.75a371.57,371.57,0,0,1,44.32,3.69q25.36,3.46,30.95,12,49.68,87.79,99.53,177.92-.9-89.82-1.81-179.65-.12-10.85,56.69-9.9c37.86.66,56.84,4.73,56.92,12.09Q4089.26,3609.57,4091.35,3801.23Z"/><path class="cls-17" d="M4440.44,3848.72c-35.47-3.94-54.71-11.67-57.7-23.37q-10.58-40.48-21.15-80.65-48.61-4.2-97.26-8.08-8.43,36.4-16.86,72.6c-2.32,12.13-21.82,16.39-58.57,13.1q-29.38-2.64-43.53-7c-9.43-2.95-14.13-5-14.14-6.17q52-193.62,103.65-393.91c0-3.16,27.82-4.18,83.59-2.87s83.66,3.67,83.7,6.95q55.36,209.67,110.9,428.32,0,4.41-28,3.65T4440.44,3848.72Zm-161.72-187.09q32.1,2.14,64.2,4.43-14.52-63.82-29-127l-3.67-.17Q4294.5,3600.63,4278.72,3661.63Z"/><path class="cls-17" d="M4737.13,3873.63c.1,8.82-20,10.39-60.25,5.06s-60.5-12.09-60.6-20.63q-2-161-4-321.92-36.61-2-73.25-3.89-10.38-.54-15-29.71a220.87,220.87,0,0,1-.71-56.65q3.91-28.8,14.29-28.55,132.73,3.69,265.42,8.06c6.91.23,11.91,10.67,15,31.4a247.36,247.36,0,0,1,2.19,30.32,242.25,242.25,0,0,1-1.47,30.15c-2.61,20.46-7.36,30.43-14.27,30q-35.69-2.19-71.37-4.29Q4735.11,3708.31,4737.13,3873.63Z"/><path class="cls-17" d="M4898.66,3789.83q-1.41-121.82-2.8-243.62-21.64-1.36-43.3-2.7-10.38-.66-15-29.92a228.38,228.38,0,0,1-2.17-29.11,223.61,223.61,0,0,1,1.48-28.94q3.93-28.83,14.3-28.52,102.47,3.48,204.89,7.38,10.35.38,14.34,31.27a195.5,195.5,0,0,1,2.75,30.86,188.56,188.56,0,0,1-2.12,30.61q-3.35,30.49-13.69,29.76-20.41-1.41-40.83-2.79,1.35,125.47,2.69,250.95,21.32,2.79,42.6,5.63,10.35,1.38,14.92,32.72a199.2,199.2,0,0,1,2.75,31.12,185.51,185.51,0,0,1-2.11,30.38q-4,30.09-14.28,28.34-102.46-16.89-205.14-32-10.36-1.53-14.36-31.09a176.69,176.69,0,0,1-2.78-29.35,165.5,165.5,0,0,1,2.1-28.72c2.22-19,6.77-28.19,13.68-27.37Q4877.64,3787.26,4898.66,3789.83Z"/><path class="cls-17" d="M5301.52,3982.63c-56.81-10.71-103.34-42.05-139.63-92.51S5107,3773,5106.16,3688.18s16.66-147.45,52.59-189.84,82.65-63.25,140.14-60.94,104,27.14,139.65,76.42,53.64,123.24,54.2,220.08-17,166.14-52.64,206S5358.3,3993.35,5301.52,3982.63Zm-3-399.67c-19.47-1.55-35.72,8.27-48.7,29.06s-19.32,50.8-19,90.26,6.9,70.48,19.64,93.41,29.33,36,49.78,39,36.94-5.37,49.52-25.6,18.73-51.08,18.42-92.31-7.13-73.62-20.47-96.85S5318,3584.52,5298.55,3583Z"/><path class="cls-17" d="M5873.26,4076.4c0,12.5-18.86,14.23-56.58,5.44s-58.26-17.67-61.48-27q-50.61-145.55-101.67-283,.45,130.08.92,260.18c0,10.06-18.55,11-55.8,3s-55.93-16.61-56-26.34q-1.4-271.11-2.8-542.24-.07-12.14,48-9.85,18.87.91,44.15,6.74t30.79,18.76q49.11,131.94,97.82,271.27-.26-135.43-.51-270.87,0-16.35,56.54-13.41t56.57,20Z"/><path class="cls-17" d="M394.65,3978.9V3444.17c0-14.84,2.53-26.75,7.6-35.64s11.66-13.53,19.77-14q50.79-2.75,101.59-5.37c64.49-3.26,113.42,16.91,146.68,58.5C703.55,3489.45,719.9,3556,719.43,3649c-1,198.19-64.92,310.41-191.07,340q-51.56,11.61-103,23.68Q394.65,4019.9,394.65,3978.9Zm116.47-425.34q-.24,128.83-.5,257.66c0,12.06.57,19.58,1.77,22.51s4.83,3.87,10.87,2.77c22.15-4,39-18.68,50.57-43.74s17.44-64.22,17.61-117.82-5.69-87.82-17.57-103-30.79-21.54-56.68-19Z"/><path class="cls-17" d="M962.69,3579.51q11.55-1.12,11.12,51.87a311.8,311.8,0,0,1-3,37.83q-2.89,21.95-10.2,22.9-38.58,5-77.12,10.23-.29,38.8-.56,77.6,55.8-8.71,111.68-17c6.88-1,11.44,9.32,13.68,30.94a234,234,0,0,1,1.56,30.08q-.13,16.14-4,42.25T993.45,3894q-103.74,19-207.2,39.93c-15.33,3.11-22.94-3.59-22.85-20.19l2.94-515.63q.12-20.85,14.12-21.51,109-5.09,218.06-9.7,12.79-.49,12.22,65.86t-13.35,67.39q-56.29,4.4-112.56,9l-.57,78.38Q923.47,3583.43,962.69,3579.51ZM845.77,3350.8c-3.65.13-8.29-4.89-13.9-15.2-7.22-14.44-10.79-26.74-10.73-36.75s1.32-16.62,3.78-19.82c66.55-48.49,100.52-70.89,101.73-71,4.06,0,9.11,6.15,15.11,18.35,9.21,17.81,13.76,34.47,13.63,50.21q-.06,8.39-3.14,12.25C882,3329.07,846.58,3350.9,845.77,3350.8Z"/><path class="cls-17" d="M1319.35,3362.28c22.46,8.62,33.6,20.86,33.41,36.89s-5.8,36.11-16.83,60.47-20.21,37-27.53,37.47c-2,.14-4.35-1-7-3.33s-8.69-4.72-18.19-7.09-17.73-3.34-24.63-2.86c-23.57,1.62-42.66,12.61-57.27,33.26s-22.13,51.33-22.54,91.78,6.67,69.66,21.29,87.31,33.26,24.88,56,22q14-1.79,31.4-8.51t24.81-15.88q1.23-1.53,4.89-2t13.53,13.92q9.87,14.31,18.12,38.32t8.08,37.66c-.2,17.85-12.55,33.74-37,48.07s-53.35,24.31-86.59,29.78c-53.52,8.81-97.25-5.67-131.24-45.64s-50.63-102.55-49.88-186.44,19.1-151.48,55.09-200.75,80.62-74,133.88-75.9C1270.82,3349.76,1296.9,3353.67,1319.35,3362.28Z"/><path class="cls-17" d="M1584.57,3807.32c-57.16,7.66-103.46-5.81-138.94-42.35s-52.74-95.4-51.81-175.54,19.82-142.21,56.69-184.6,84.09-63.77,141.65-65.43,103.8,16.33,138.73,52.61,51.94,91.71,51,167.21-19.77,133.17-56.48,174.42S1641.73,3799.68,1584.57,3807.32Zm4.53-343c-19.53,1.1-36,11.63-49.47,31.79s-20.39,47.89-20.82,82.93,5.55,61.33,17.94,78.68,28.84,24.83,49.38,22.66,37.35-13.17,50.4-32.84,19.78-46.49,20.21-80.66-5.87-60-18.86-77.63S1608.63,3463.26,1589.1,3464.37Z"/><path class="cls-17" d="M2163.69,3726.14c-.08,8.16-19.35,13.77-57.72,17.1s-59.17,2.34-62.37-3.32q-50-88.08-99.93-179.1l-2.28,188.2c-.09,7.27-19,12.76-56.73,16.76s-56.53,2.45-56.43-5q2.55-206.84,5.12-413.66.12-9.3,48.34-10.49a342.65,342.65,0,0,1,44.22,2.27q25.29,2.73,30.68,11.64,47.73,91.75,95.57,180.42,1.08-93.19,2.17-186.42.14-11.27,56.92-12.46t56.68,10Q2165.8,3534.1,2163.69,3726.14Z"/><path class="cls-17" d="M2409.49,3712.33c-.07,7.52-20.35,12.46-60.83,15.16s-60.67.41-60.59-7.25q1.45-143.65,2.9-287.31-36.67,1.14-73.36,2.37-10.4.35-14.38-26.17a180.79,180.79,0,0,1-1.55-26,182.88,182.88,0,0,1,2.11-26.13q4.56-26.74,14.95-26.93,132.83-2.4,265.71-4.11,10.38-.13,14.45,25.49a169.51,169.51,0,0,1,1.63,25.07,171.93,171.93,0,0,1-2,25.15q-4.5,25.76-14.89,26-35.78.85-71.55,1.81Q2410.76,3570.9,2409.49,3712.33Z"/><path class="cls-17" d="M2821.29,3704.4c-35.62,1-54.84-3.5-57.65-13.6q-9.94-34.89-19.89-69.84-48.77,1.34-97.52,3L2628,3692.91c-2.53,11.5-22.21,18-59,19.75-19.64.94-34.17.67-43.55-.9s-14.09-2.89-14.08-4q55.82-191.4,111.17-378.44c0-2.93,27.91-4.71,83.73-5.19s83.7.83,83.69,3.72q52,184.29,104.5,366.73c0,2.54-9.44,4.7-28.27,6.57S2832.35,3704.11,2821.29,3704.4ZM2662,3553.66q32.16-.88,64.34-1.66-13.48-56.27-26.91-112.75l-3.67.06Q2678.91,3496.33,2662,3553.66Z"/><path class="cls-17" d="M3364.93,3702c-36.45-.71-54.68-4.53-54.69-11.76q-6.72-108.48-13.39-216.88-37.11,109.43-74.44,218.62c-1.64,4.31-15.56,6.34-41.76,6.24s-39.73-2.05-40.55-6q-38.71-110.82-77.17-221.49-4.39,107.63-8.82,215.28-.63,8.1-23.35,11.24t-37.79,3.35a262,262,0,0,1-29.17-1.23q-29.48-3.35-28.83-13.08,7.55-176,15-351.72c0-8.64,24.87-13.09,74.58-13.19q22-.06,53.77,2.88t35.44,11.56q34.2,84.91,68.57,169.9,30-85.14,59.78-170.31,5.47-14,84.3-13.79,22.61.09,54.09,3.22t31.51,10.75q9.55,178.09,19.18,356.5c0,4-7.95,6.67-23.92,8.12A392.4,392.4,0,0,1,3364.93,3702Z"/><path class="cls-17" d="M3532.09,3611.89,3531,3417.33q-21.72-.32-43.44-.59-10.41-.13-14.79-23.59a150.73,150.73,0,0,1-.22-46.83q4.17-23.37,14.56-23.32,102.64.72,205.29,1.85,10.39.11,14.23,24a117.08,117.08,0,0,1,2.63,23.88,115.14,115.14,0,0,1-2.27,23.81q-3.5,23.76-13.89,23.56-20.49-.42-41-.79l1.35,196.4q21.45.76,42.92,1.6,10.41.41,14.89,24.42a118.25,118.25,0,0,1,2.63,24,113.46,113.46,0,0,1-2.27,23.74q-4.12,23.66-14.55,23.14-103.43-4.91-206.91-8-10.44-.32-14.23-23.84a112.68,112.68,0,0,1-.22-46.83q3.57-23.31,14-23.08Q3510.92,3611.31,3532.09,3611.89Z"/><path class="cls-17" d="M4091.35,3725.11c.1,8.16-19.07,10.63-57.47,7.7s-59.3-7.23-62.62-13.17q-52.1-92.73-104-182.71.8,87.74,1.6,175.47c.07,6.79-18.82,8.95-56.65,6.76s-56.79-6.45-56.84-13.14q-1.48-186.34-3-372.68-.07-8.33,48.19-7.74a367.43,367.43,0,0,1,44.32,3.69q25.36,3.47,30.95,12,49.68,87.79,99.53,177.93-.9-89.82-1.81-179.65-.12-10.86,56.69-9.9t56.92,12.09Q4089.26,3533.45,4091.35,3725.11Z"/><path class="cls-17" d="M4440.44,3772.6c-35.47-3.94-54.71-11.66-57.7-23.36q-10.58-40.48-21.15-80.66-48.61-4.2-97.26-8.07-8.43,36.4-16.86,72.59c-2.32,12.14-21.82,16.4-58.57,13.1q-29.38-2.62-43.53-7c-9.43-2.94-14.13-5-14.14-6.16q52-193.62,103.65-393.91c0-3.17,27.82-4.18,83.59-2.87s83.66,3.67,83.7,6.95q55.36,209.67,110.9,428.32c0,2.94-9.31,4.13-28,3.65S4451.44,3773.82,4440.44,3772.6Zm-161.72-187.09q32.1,2.16,64.2,4.44-14.52-63.82-29-127l-3.67-.17Q4294.5,3524.5,4278.72,3585.51Z"/><path class="cls-17" d="M4737.13,3797.52c.1,8.81-20,10.39-60.25,5.05s-60.5-12.08-60.6-20.63q-2-161-4-321.92-36.61-2-73.25-3.88-10.38-.55-15-29.71a220.88,220.88,0,0,1-.71-56.65q3.91-28.82,14.29-28.55,132.73,3.67,265.42,8.06,10.36.35,15,31.39a247.67,247.67,0,0,1,2.19,30.33,242.08,242.08,0,0,1-1.47,30.14c-2.61,20.46-7.36,30.43-14.27,30q-35.69-2.2-71.37-4.3Q4735.11,3632.19,4737.13,3797.52Z"/><path class="cls-17" d="M4898.66,3713.71q-1.41-121.8-2.8-243.61-21.64-1.38-43.3-2.71-10.38-.64-15-29.92a228.11,228.11,0,0,1-2.17-29.11,223.46,223.46,0,0,1,1.48-28.93c2.62-19.22,7.38-28.76,14.3-28.53q102.47,3.48,204.89,7.38,10.35.39,14.34,31.27a195.74,195.74,0,0,1,2.75,30.87,188.43,188.43,0,0,1-2.12,30.6q-3.35,30.51-13.69,29.76-20.41-1.41-40.83-2.79,1.35,125.49,2.69,251,21.32,2.79,42.6,5.63,10.35,1.38,14.92,32.71a199.42,199.42,0,0,1,2.75,31.12,185.71,185.71,0,0,1-2.11,30.39c-2.64,20.06-7.38,29.48-14.28,28.34q-102.46-16.89-205.14-32-10.36-1.53-14.36-31.08a176.71,176.71,0,0,1-2.78-29.36,165.46,165.46,0,0,1,2.1-28.71q3.33-28.58,13.68-27.37Q4877.64,3711.15,4898.66,3713.71Z"/><path class="cls-17" d="M5301.52,3906.52c-56.81-10.72-103.34-42.05-139.63-92.51s-54.87-117.16-55.73-201.94,16.66-147.45,52.59-189.85,82.65-63.25,140.14-60.94,104,27.14,139.65,76.43,53.64,123.24,54.2,220.08-17,166.14-52.64,206S5358.3,3917.23,5301.52,3906.52Zm-3-399.67c-19.47-1.55-35.72,8.26-48.7,29.06s-19.32,50.8-19,90.26,6.9,70.48,19.64,93.41,29.33,36,49.78,39.05,36.94-5.37,49.52-25.61,18.73-51.07,18.42-92.3-7.13-73.62-20.47-96.85S5318,3508.4,5298.55,3506.85Z"/><path class="cls-17" d="M5873.26,4000.29c0,12.5-18.86,14.23-56.58,5.44s-58.26-17.68-61.48-27q-50.61-145.55-101.67-283,.45,130.09.92,260.18c0,10.06-18.55,11-55.8,3s-55.93-16.62-56-26.34q-1.4-271.12-2.8-542.24-.07-12.13,48-9.85,18.87.92,44.15,6.73t30.79,18.77Q5712,3538,5760.66,3677.28l-.51-270.87q0-16.34,56.54-13.41t56.57,20Z"/><path class="cls-18" d="M394.65,3978.9V3444.17c0-14.84,2.53-26.75,7.6-35.64s11.66-13.53,19.77-14q50.79-2.75,101.59-5.37c64.49-3.26,113.42,16.91,146.68,58.5C703.55,3489.45,719.9,3556,719.43,3649c-1,198.19-64.92,310.41-191.07,340q-51.56,11.61-103,23.68Q394.65,4019.9,394.65,3978.9Zm116.47-425.34q-.24,128.83-.5,257.66c0,12.06.57,19.58,1.77,22.51s4.83,3.87,10.87,2.77c22.15-4,39-18.68,50.57-43.74s17.44-64.22,17.61-117.82-5.69-87.82-17.57-103-30.79-21.54-56.68-19Z"/><path class="cls-18" d="M962.69,3579.51q11.55-1.12,11.12,51.87a311.8,311.8,0,0,1-3,37.83q-2.89,21.95-10.2,22.9-38.58,5-77.12,10.23-.29,38.8-.56,77.6,55.8-8.71,111.68-17c6.88-1,11.44,9.32,13.68,30.94a234,234,0,0,1,1.56,30.08q-.13,16.14-4,42.25T993.45,3894q-103.74,19-207.2,39.93c-15.33,3.11-22.94-3.59-22.85-20.19l2.94-515.63q.12-20.85,14.12-21.51,109-5.09,218.06-9.7,12.79-.49,12.22,65.86t-13.35,67.39q-56.29,4.4-112.56,9l-.57,78.38Q923.47,3583.43,962.69,3579.51ZM845.77,3350.8c-3.65.13-8.29-4.89-13.9-15.2-7.22-14.44-10.79-26.74-10.73-36.75s1.32-16.62,3.78-19.82c66.55-48.49,100.52-70.89,101.73-71,4.06,0,9.11,6.15,15.11,18.35,9.21,17.81,13.76,34.47,13.63,50.21q-.06,8.39-3.14,12.25C882,3329.07,846.58,3350.9,845.77,3350.8Z"/><path class="cls-18" d="M1319.35,3362.28c22.46,8.62,33.6,20.86,33.41,36.89s-5.8,36.11-16.83,60.47-20.21,37-27.53,37.47c-2,.14-4.35-1-7-3.33s-8.69-4.72-18.19-7.09-17.73-3.34-24.63-2.86c-23.57,1.62-42.66,12.61-57.27,33.26s-22.13,51.33-22.54,91.78,6.67,69.66,21.29,87.31,33.26,24.88,56,22q14-1.79,31.4-8.51t24.81-15.88q1.23-1.53,4.89-2t13.53,13.92q9.87,14.31,18.12,38.32t8.08,37.66c-.2,17.85-12.55,33.74-37,48.07s-53.35,24.31-86.59,29.78c-53.52,8.81-97.25-5.67-131.24-45.64s-50.63-102.55-49.88-186.44,19.1-151.48,55.09-200.75,80.62-74,133.88-75.9C1270.82,3349.76,1296.9,3353.67,1319.35,3362.28Z"/><path class="cls-18" d="M1584.57,3807.32c-57.16,7.66-103.46-5.81-138.94-42.35s-52.74-95.4-51.81-175.54,19.82-142.21,56.69-184.6,84.09-63.77,141.65-65.43,103.8,16.33,138.73,52.61,51.94,91.71,51,167.21-19.77,133.17-56.48,174.42S1641.73,3799.68,1584.57,3807.32Zm4.53-343c-19.53,1.1-36,11.63-49.47,31.79s-20.39,47.89-20.82,82.93,5.55,61.33,17.94,78.68,28.84,24.83,49.38,22.66,37.35-13.17,50.4-32.84,19.78-46.49,20.21-80.66-5.87-60-18.86-77.63S1608.63,3463.26,1589.1,3464.37Z"/><path class="cls-18" d="M2163.69,3726.14c-.08,8.16-19.35,13.77-57.72,17.1s-59.17,2.34-62.37-3.32q-50-88.08-99.93-179.1l-2.28,188.2c-.09,7.27-19,12.76-56.73,16.76s-56.53,2.45-56.43-5q2.55-206.84,5.12-413.66.12-9.3,48.34-10.49a342.65,342.65,0,0,1,44.22,2.27q25.29,2.73,30.68,11.64,47.73,91.75,95.57,180.42,1.08-93.19,2.17-186.42.14-11.27,56.92-12.46t56.68,10Q2165.8,3534.1,2163.69,3726.14Z"/><path class="cls-18" d="M2409.49,3712.33c-.07,7.52-20.35,12.46-60.83,15.16s-60.67.41-60.59-7.25q1.45-143.65,2.9-287.31-36.67,1.14-73.36,2.37-10.4.35-14.38-26.17a180.79,180.79,0,0,1-1.55-26,182.88,182.88,0,0,1,2.11-26.13q4.56-26.74,14.95-26.93,132.83-2.4,265.71-4.11,10.38-.13,14.45,25.49a169.51,169.51,0,0,1,1.63,25.07,171.93,171.93,0,0,1-2,25.15q-4.5,25.76-14.89,26-35.78.85-71.55,1.81Q2410.76,3570.9,2409.49,3712.33Z"/><path class="cls-18" d="M2821.29,3704.4c-35.62,1-54.84-3.5-57.65-13.6q-9.94-34.89-19.89-69.84-48.77,1.34-97.52,3L2628,3692.91c-2.53,11.5-22.21,18-59,19.75-19.64.94-34.17.67-43.55-.9s-14.09-2.89-14.08-4q55.82-191.4,111.17-378.44c0-2.93,27.91-4.71,83.73-5.19s83.7.83,83.69,3.72q52,184.29,104.5,366.73c0,2.54-9.44,4.7-28.27,6.57S2832.35,3704.11,2821.29,3704.4ZM2662,3553.66q32.16-.88,64.34-1.66-13.48-56.27-26.91-112.75l-3.67.06Q2678.91,3496.33,2662,3553.66Z"/><path class="cls-18" d="M3364.93,3702c-36.45-.71-54.68-4.53-54.69-11.76q-6.72-108.48-13.39-216.88-37.11,109.43-74.44,218.62c-1.64,4.31-15.56,6.34-41.76,6.24s-39.73-2.05-40.55-6q-38.71-110.82-77.17-221.49-4.39,107.63-8.82,215.28-.63,8.1-23.35,11.24t-37.79,3.35a262,262,0,0,1-29.17-1.23q-29.48-3.35-28.83-13.08,7.55-176,15-351.72c0-8.64,24.87-13.09,74.58-13.19q22-.06,53.77,2.88t35.44,11.56q34.2,84.91,68.57,169.9,30-85.14,59.78-170.31,5.47-14,84.3-13.79,22.61.09,54.09,3.22t31.51,10.75q9.55,178.09,19.18,356.5c0,4-7.95,6.67-23.92,8.12A392.4,392.4,0,0,1,3364.93,3702Z"/><path class="cls-18" d="M3532.09,3611.89,3531,3417.33q-21.72-.32-43.44-.59-10.41-.13-14.79-23.59a150.73,150.73,0,0,1-.22-46.83q4.17-23.37,14.56-23.32,102.64.72,205.29,1.85,10.39.11,14.23,24a117.08,117.08,0,0,1,2.63,23.88,115.14,115.14,0,0,1-2.27,23.81q-3.5,23.76-13.89,23.56-20.49-.42-41-.79l1.35,196.4q21.45.76,42.92,1.6,10.41.41,14.89,24.42a118.25,118.25,0,0,1,2.63,24,113.46,113.46,0,0,1-2.27,23.74q-4.12,23.66-14.55,23.14-103.43-4.91-206.91-8-10.44-.32-14.23-23.84a112.68,112.68,0,0,1-.22-46.83q3.57-23.31,14-23.08Q3510.92,3611.31,3532.09,3611.89Z"/><path class="cls-18" d="M4091.35,3725.11c.1,8.16-19.07,10.63-57.47,7.7s-59.3-7.23-62.62-13.17q-52.1-92.73-104-182.71.8,87.74,1.6,175.47c.07,6.79-18.82,8.95-56.65,6.76s-56.79-6.45-56.84-13.14q-1.48-186.34-3-372.68-.07-8.33,48.19-7.74a367.43,367.43,0,0,1,44.32,3.69q25.36,3.47,30.95,12,49.68,87.79,99.53,177.93-.9-89.82-1.81-179.65-.12-10.86,56.69-9.9t56.92,12.09Q4089.26,3533.45,4091.35,3725.11Z"/><path class="cls-18" d="M4440.44,3772.6c-35.47-3.94-54.71-11.66-57.7-23.36q-10.58-40.48-21.15-80.66-48.61-4.2-97.26-8.07-8.43,36.4-16.86,72.59c-2.32,12.14-21.82,16.4-58.57,13.1q-29.38-2.62-43.53-7c-9.43-2.94-14.13-5-14.14-6.16q52-193.62,103.65-393.91c0-3.17,27.82-4.18,83.59-2.87s83.66,3.67,83.7,6.95q55.36,209.67,110.9,428.32c0,2.94-9.31,4.13-28,3.65S4451.44,3773.82,4440.44,3772.6Zm-161.72-187.09q32.1,2.16,64.2,4.44-14.52-63.82-29-127l-3.67-.17Q4294.5,3524.5,4278.72,3585.51Z"/><path class="cls-18" d="M4737.13,3797.52c.1,8.81-20,10.39-60.25,5.05s-60.5-12.08-60.6-20.63q-2-161-4-321.92-36.61-2-73.25-3.88-10.38-.55-15-29.71a220.88,220.88,0,0,1-.71-56.65q3.91-28.82,14.29-28.55,132.73,3.67,265.42,8.06,10.36.35,15,31.39a247.67,247.67,0,0,1,2.19,30.33,242.08,242.08,0,0,1-1.47,30.14c-2.61,20.46-7.36,30.43-14.27,30q-35.69-2.2-71.37-4.3Q4735.11,3632.19,4737.13,3797.52Z"/><path class="cls-18" d="M4898.66,3713.71q-1.41-121.8-2.8-243.61-21.64-1.38-43.3-2.71-10.38-.64-15-29.92a228.11,228.11,0,0,1-2.17-29.11,223.46,223.46,0,0,1,1.48-28.93c2.62-19.22,7.38-28.76,14.3-28.53q102.47,3.48,204.89,7.38,10.35.39,14.34,31.27a195.74,195.74,0,0,1,2.75,30.87,188.43,188.43,0,0,1-2.12,30.6q-3.35,30.51-13.69,29.76-20.41-1.41-40.83-2.79,1.35,125.49,2.69,251,21.32,2.79,42.6,5.63,10.35,1.38,14.92,32.71a199.42,199.42,0,0,1,2.75,31.12,185.71,185.71,0,0,1-2.11,30.39c-2.64,20.06-7.38,29.48-14.28,28.34q-102.46-16.89-205.14-32-10.36-1.53-14.36-31.08a176.71,176.71,0,0,1-2.78-29.36,165.46,165.46,0,0,1,2.1-28.71q3.33-28.58,13.68-27.37Q4877.64,3711.15,4898.66,3713.71Z"/><path class="cls-18" d="M5301.52,3906.52c-56.81-10.72-103.34-42.05-139.63-92.51s-54.87-117.16-55.73-201.94,16.66-147.45,52.59-189.85,82.65-63.25,140.14-60.94,104,27.14,139.65,76.43,53.64,123.24,54.2,220.08-17,166.14-52.64,206S5358.3,3917.23,5301.52,3906.52Zm-3-399.67c-19.47-1.55-35.72,8.26-48.7,29.06s-19.32,50.8-19,90.26,6.9,70.48,19.64,93.41,29.33,36,49.78,39.05,36.94-5.37,49.52-25.61,18.73-51.07,18.42-92.3-7.13-73.62-20.47-96.85S5318,3508.4,5298.55,3506.85Z"/><path class="cls-18" d="M5873.26,4000.29c0,12.5-18.86,14.23-56.58,5.44s-58.26-17.68-61.48-27q-50.61-145.55-101.67-283,.45,130.09.92,260.18c0,10.06-18.55,11-55.8,3s-55.93-16.62-56-26.34q-1.4-271.12-2.8-542.24-.07-12.13,48-9.85,18.87.92,44.15,6.73t30.79,18.77Q5712,3538,5760.66,3677.28l-.51-270.87q0-16.34,56.54-13.41t56.57,20Z"/><path class="cls-19" d="M394.65,3978.9V3444.17c0-14.84,2.53-26.75,7.6-35.64s11.66-13.53,19.77-14q50.79-2.75,101.59-5.37c64.49-3.26,113.42,16.91,146.68,58.5C703.55,3489.45,719.9,3556,719.43,3649c-1,198.19-64.92,310.41-191.07,340q-51.56,11.61-103,23.68Q394.65,4019.9,394.65,3978.9Zm116.47-425.34q-.24,128.83-.5,257.66c0,12.06.57,19.58,1.77,22.51s4.83,3.87,10.87,2.77c22.15-4,39-18.68,50.57-43.74s17.44-64.22,17.61-117.82-5.69-87.82-17.57-103-30.79-21.54-56.68-19Z"/><path class="cls-19" d="M962.69,3579.51q11.55-1.12,11.12,51.87a311.8,311.8,0,0,1-3,37.83q-2.89,21.95-10.2,22.9-38.58,5-77.12,10.23-.29,38.8-.56,77.6,55.8-8.71,111.68-17c6.88-1,11.44,9.32,13.68,30.94a234,234,0,0,1,1.56,30.08q-.13,16.14-4,42.25T993.45,3894q-103.74,19-207.2,39.93c-15.33,3.11-22.94-3.59-22.85-20.19l2.94-515.63q.12-20.85,14.12-21.51,109-5.09,218.06-9.7,12.79-.49,12.22,65.86t-13.35,67.39q-56.29,4.4-112.56,9l-.57,78.38Q923.47,3583.43,962.69,3579.51ZM845.77,3350.8c-3.65.13-8.29-4.89-13.9-15.2-7.22-14.44-10.79-26.74-10.73-36.75s1.32-16.62,3.78-19.82c66.55-48.49,100.52-70.89,101.73-71,4.06,0,9.11,6.15,15.11,18.35,9.21,17.81,13.76,34.47,13.63,50.21q-.06,8.39-3.14,12.25C882,3329.07,846.58,3350.9,845.77,3350.8Z"/><path class="cls-19" d="M1319.35,3362.28c22.46,8.62,33.6,20.86,33.41,36.89s-5.8,36.11-16.83,60.47-20.21,37-27.53,37.47c-2,.14-4.35-1-7-3.33s-8.69-4.72-18.19-7.09-17.73-3.34-24.63-2.86c-23.57,1.62-42.66,12.61-57.27,33.26s-22.13,51.33-22.54,91.78,6.67,69.66,21.29,87.31,33.26,24.88,56,22q14-1.79,31.4-8.51t24.81-15.88q1.23-1.53,4.89-2t13.53,13.92q9.87,14.31,18.12,38.32t8.08,37.66c-.2,17.85-12.55,33.74-37,48.07s-53.35,24.31-86.59,29.78c-53.52,8.81-97.25-5.67-131.24-45.64s-50.63-102.55-49.88-186.44,19.1-151.48,55.09-200.75,80.62-74,133.88-75.9C1270.82,3349.76,1296.9,3353.67,1319.35,3362.28Z"/><path class="cls-19" d="M1584.57,3807.32c-57.16,7.66-103.46-5.81-138.94-42.35s-52.74-95.4-51.81-175.54,19.82-142.21,56.69-184.6,84.09-63.77,141.65-65.43,103.8,16.33,138.73,52.61,51.94,91.71,51,167.21-19.77,133.17-56.48,174.42S1641.73,3799.68,1584.57,3807.32Zm4.53-343c-19.53,1.1-36,11.63-49.47,31.79s-20.39,47.89-20.82,82.93,5.55,61.33,17.94,78.68,28.84,24.83,49.38,22.66,37.35-13.17,50.4-32.84,19.78-46.49,20.21-80.66-5.87-60-18.86-77.63S1608.63,3463.26,1589.1,3464.37Z"/><path class="cls-19" d="M2163.69,3726.14c-.08,8.16-19.35,13.77-57.72,17.1s-59.17,2.34-62.37-3.32q-50-88.08-99.93-179.1l-2.28,188.2c-.09,7.27-19,12.76-56.73,16.76s-56.53,2.45-56.43-5q2.55-206.84,5.12-413.66.12-9.3,48.34-10.49a342.65,342.65,0,0,1,44.22,2.27q25.29,2.73,30.68,11.64,47.73,91.75,95.57,180.42,1.08-93.19,2.17-186.42.14-11.27,56.92-12.46t56.68,10Q2165.8,3534.1,2163.69,3726.14Z"/><path class="cls-19" d="M2409.49,3712.33c-.07,7.52-20.35,12.46-60.83,15.16s-60.67.41-60.59-7.25q1.45-143.65,2.9-287.31-36.67,1.14-73.36,2.37-10.4.35-14.38-26.17a180.79,180.79,0,0,1-1.55-26,182.88,182.88,0,0,1,2.11-26.13q4.56-26.74,14.95-26.93,132.83-2.4,265.71-4.11,10.38-.13,14.45,25.49a169.51,169.51,0,0,1,1.63,25.07,171.93,171.93,0,0,1-2,25.15q-4.5,25.76-14.89,26-35.78.85-71.55,1.81Q2410.76,3570.9,2409.49,3712.33Z"/><path class="cls-19" d="M2821.29,3704.4c-35.62,1-54.84-3.5-57.65-13.6q-9.94-34.89-19.89-69.84-48.77,1.34-97.52,3L2628,3692.91c-2.53,11.5-22.21,18-59,19.75-19.64.94-34.17.67-43.55-.9s-14.09-2.89-14.08-4q55.82-191.4,111.17-378.44c0-2.93,27.91-4.71,83.73-5.19s83.7.83,83.69,3.72q52,184.29,104.5,366.73c0,2.54-9.44,4.7-28.27,6.57S2832.35,3704.11,2821.29,3704.4ZM2662,3553.66q32.16-.88,64.34-1.66-13.48-56.27-26.91-112.75l-3.67.06Q2678.91,3496.33,2662,3553.66Z"/><path class="cls-19" d="M3364.93,3702c-36.45-.71-54.68-4.53-54.69-11.76q-6.72-108.48-13.39-216.88-37.11,109.43-74.44,218.62c-1.64,4.31-15.56,6.34-41.76,6.24s-39.73-2.05-40.55-6q-38.71-110.82-77.17-221.49-4.39,107.63-8.82,215.28-.63,8.1-23.35,11.24t-37.79,3.35a262,262,0,0,1-29.17-1.23q-29.48-3.35-28.83-13.08,7.55-176,15-351.72c0-8.64,24.87-13.09,74.58-13.19q22-.06,53.77,2.88t35.44,11.56q34.2,84.91,68.57,169.9,30-85.14,59.78-170.31,5.47-14,84.3-13.79,22.61.09,54.09,3.22t31.51,10.75q9.55,178.09,19.18,356.5c0,4-7.95,6.67-23.92,8.12A392.4,392.4,0,0,1,3364.93,3702Z"/><path class="cls-19" d="M3532.09,3611.89,3531,3417.33q-21.72-.32-43.44-.59-10.41-.13-14.79-23.59a150.73,150.73,0,0,1-.22-46.83q4.17-23.37,14.56-23.32,102.64.72,205.29,1.85,10.39.11,14.23,24a117.08,117.08,0,0,1,2.63,23.88,115.14,115.14,0,0,1-2.27,23.81q-3.5,23.76-13.89,23.56-20.49-.42-41-.79l1.35,196.4q21.45.76,42.92,1.6,10.41.41,14.89,24.42a118.25,118.25,0,0,1,2.63,24,113.46,113.46,0,0,1-2.27,23.74q-4.12,23.66-14.55,23.14-103.43-4.91-206.91-8-10.44-.32-14.23-23.84a112.68,112.68,0,0,1-.22-46.83q3.57-23.31,14-23.08Q3510.92,3611.31,3532.09,3611.89Z"/><path class="cls-19" d="M4091.35,3725.11c.1,8.16-19.07,10.63-57.47,7.7s-59.3-7.23-62.62-13.17q-52.1-92.73-104-182.71.8,87.74,1.6,175.47c.07,6.79-18.82,8.95-56.65,6.76s-56.79-6.45-56.84-13.14q-1.48-186.34-3-372.68-.07-8.33,48.19-7.74a367.43,367.43,0,0,1,44.32,3.69q25.36,3.47,30.95,12,49.68,87.79,99.53,177.93-.9-89.82-1.81-179.65-.12-10.86,56.69-9.9t56.92,12.09Q4089.26,3533.45,4091.35,3725.11Z"/><path class="cls-19" d="M4440.44,3772.6c-35.47-3.94-54.71-11.66-57.7-23.36q-10.58-40.48-21.15-80.66-48.61-4.2-97.26-8.07-8.43,36.4-16.86,72.59c-2.32,12.14-21.82,16.4-58.57,13.1q-29.38-2.62-43.53-7c-9.43-2.94-14.13-5-14.14-6.16q52-193.62,103.65-393.91c0-3.17,27.82-4.18,83.59-2.87s83.66,3.67,83.7,6.95q55.36,209.67,110.9,428.32c0,2.94-9.31,4.13-28,3.65S4451.44,3773.82,4440.44,3772.6Zm-161.72-187.09q32.1,2.16,64.2,4.44-14.52-63.82-29-127l-3.67-.17Q4294.5,3524.5,4278.72,3585.51Z"/><path class="cls-19" d="M4737.13,3797.52c.1,8.81-20,10.39-60.25,5.05s-60.5-12.08-60.6-20.63q-2-161-4-321.92-36.61-2-73.25-3.88-10.38-.55-15-29.71a220.88,220.88,0,0,1-.71-56.65q3.91-28.82,14.29-28.55,132.73,3.67,265.42,8.06,10.36.35,15,31.39a247.67,247.67,0,0,1,2.19,30.33,242.08,242.08,0,0,1-1.47,30.14c-2.61,20.46-7.36,30.43-14.27,30q-35.69-2.2-71.37-4.3Q4735.11,3632.19,4737.13,3797.52Z"/><path class="cls-19" d="M4898.66,3713.71q-1.41-121.8-2.8-243.61-21.64-1.38-43.3-2.71-10.38-.64-15-29.92a228.11,228.11,0,0,1-2.17-29.11,223.46,223.46,0,0,1,1.48-28.93c2.62-19.22,7.38-28.76,14.3-28.53q102.47,3.48,204.89,7.38,10.35.39,14.34,31.27a195.74,195.74,0,0,1,2.75,30.87,188.43,188.43,0,0,1-2.12,30.6q-3.35,30.51-13.69,29.76-20.41-1.41-40.83-2.79,1.35,125.49,2.69,251,21.32,2.79,42.6,5.63,10.35,1.38,14.92,32.71a199.42,199.42,0,0,1,2.75,31.12,185.71,185.71,0,0,1-2.11,30.39c-2.64,20.06-7.38,29.48-14.28,28.34q-102.46-16.89-205.14-32-10.36-1.53-14.36-31.08a176.71,176.71,0,0,1-2.78-29.36,165.46,165.46,0,0,1,2.1-28.71q3.33-28.58,13.68-27.37Q4877.64,3711.15,4898.66,3713.71Z"/><path class="cls-19" d="M5301.52,3906.52c-56.81-10.72-103.34-42.05-139.63-92.51s-54.87-117.16-55.73-201.94,16.66-147.45,52.59-189.85,82.65-63.25,140.14-60.94,104,27.14,139.65,76.43,53.64,123.24,54.2,220.08-17,166.14-52.64,206S5358.3,3917.23,5301.52,3906.52Zm-3-399.67c-19.47-1.55-35.72,8.26-48.7,29.06s-19.32,50.8-19,90.26,6.9,70.48,19.64,93.41,29.33,36,49.78,39.05,36.94-5.37,49.52-25.61,18.73-51.07,18.42-92.3-7.13-73.62-20.47-96.85S5318,3508.4,5298.55,3506.85Z"/><path class="cls-19" d="M5873.26,4000.29c0,12.5-18.86,14.23-56.58,5.44s-58.26-17.68-61.48-27q-50.61-145.55-101.67-283,.45,130.09.92,260.18c0,10.06-18.55,11-55.8,3s-55.93-16.62-56-26.34q-1.4-271.12-2.8-542.24-.07-12.13,48-9.85,18.87.92,44.15,6.73t30.79,18.77Q5712,3538,5760.66,3677.28l-.51-270.87q0-16.34,56.54-13.41t56.57,20Z"/><path class="cls-19" d="M930.12,4394c-24.84,1.91-37.25.18-37.25-5.29V4123q0-13.93,12.69-14.94,36-2.82,72.06-5.55,60.58-4.59,87.43,18.52t26.82,70.64q0,39.34-25.39,74-12.7,17.32-37.27,29t-57.32,14.14v73.4q0,4.91-15.36,7.93A229.38,229.38,0,0,1,930.12,4394Zm41.77-219.7v64.79l5.32-.41a37,37,0,0,0,24.16-10.84q9.82-9.75,9.82-26.16t-6.75-22.86q-6.75-6.48-24-5.17Z"/><path class="cls-19" d="M1206.14,4367.39q0,6.55-38.91,9.23-39.32,2.72-39.32-3.41V4105.88q0-14.35,15.15-15.42,39.12-2.74,78.24-5.38c71.83-4.82,107.75,21,107.75,77q0,25.42-9.84,46.76a89.2,89.2,0,0,1-27.86,34.8q25.82,41.37,51.63,82.8-3.29,10-21.31,23.91-24.59,19.2-40.56,20.25t-23.76-9.92q-19.26-43.64-38.51-87.23l-12.7.86Zm0-208.71v61.51l2-.14q38.93-2.62,38.92-35,0-14.74-7.58-21.43t-24.78-5.51Z"/><path class="cls-19" d="M1500.74,4181.6q7.79-.47,7.79,28.25a134.52,134.52,0,0,1-1.85,20.4q-1.83,11.79-6.76,12.08-26,1.5-52,3.05v41q37.69-2.23,75.4-4.39,7-.39,9.43,17.51a105.11,105.11,0,0,1,1.23,16.53,138.94,138.94,0,0,1-2.46,22.9q-2.46,14.08-8.2,14.4-70.08,4-140.15,8.33c-10.38.62-15.57-3.26-15.57-11.75V4086.26q0-10.66,9.43-11.25,73.34-4.55,146.7-8.72,8.61-.48,8.61,35.8t-8.61,36.78q-37.9,2.16-75.81,4.41v41.41Q1474.31,4183.12,1500.74,4181.6Zm-79.91-121.16q-3.69.22-9.42-7.63-7.38-11-7.38-18.82t2.46-10.4q66.78-41,68-41,4.1-.24,10.25,9.24,9.42,13.8,9.43,26.51c0,3-.69,5.23-2,6.68Q1421.64,4060.31,1420.83,4060.44Z"/><path class="cls-19" d="M1739.5,4059.52q22.76,7.29,22.76,21.64t-10.87,36q-10.86,21.66-18.24,22-2.06.09-4.71-2t-12.3-4.31a62.8,62.8,0,0,0-16.61-1.82q-23.77,1.22-38.32,18.78T1646.65,4202q0,34.65,15,50.67t37.91,14.86a98.75,98.75,0,0,0,21.12-3.73q11.68-3.27,16.6-8.42c.54-.57,1.64-.9,3.28-1s4.71,2.84,9.22,8.77,8.68,13.8,12.51,23.58,5.74,17.42,5.74,22.89q0,16-24.6,26.62t-58.21,12.37q-54.11,2.78-89-33.43t-34.84-105.72q0-69.5,35.86-111.24t89.57-44.51Q1716.74,4052.24,1739.5,4059.52Z"/><path class="cls-19" d="M1826.62,4267.12v-146q-14.55.68-29.11,1.37-7,.33-9.84-17.17a123.3,123.3,0,0,1-1.23-17.57,125.83,125.83,0,0,1,1.23-17.69q2.86-17.76,9.84-18.1,68.88-3.27,137.77-6.22,7-.3,9.43,17.23a93.19,93.19,0,0,1,1.65,17.56,96.25,96.25,0,0,1-1.65,17.7q-2.46,17.74-9.43,18l-27.47,1.19v146l28.7-1.25q7-.28,9.85,17.22A94.79,94.79,0,0,1,1948,4297a97,97,0,0,1-1.64,17.7q-2.88,17.76-9.85,18.05-69.09,3-138.18,6.23-7,.34-9.43-17.18a92.92,92.92,0,0,1-1.64-17.55,95.57,95.57,0,0,1,1.64-17.71q2.47-17.74,9.43-18.08Z"/><path class="cls-19" d="M1986.13,4230.62q7.78,5.82,26.86,15.72t36.5,9.22q17.41-.68,17.43-14.21a14.06,14.06,0,0,0-4.93-10.67c-3.27-3-9.29-6.42-18-10.17s-15.32-6.71-19.69-8.86a146.07,146.07,0,0,1-17.42-10.78q-10.87-7.56-16.61-15.94-16.41-22.68-16.41-58.78t26.86-62q26.86-25.87,70.34-27.57a217.75,217.75,0,0,1,54.54,4.33q25,5.45,25.84,15.68v2.46q0,14.37-9,36.61t-12.71,24.85q-26.27-12.57-47-11.8T2062,4124.27q0,9,15.18,15.41,3.28,1.53,9.43,4.16t14.15,6.24a162.27,162.27,0,0,1,17.23,9.2,142.28,142.28,0,0,1,19.89,15.07q21.74,19.74,21.74,53.35,0,43.88-24.2,72.62t-74.65,31.48a221.07,221.07,0,0,1-44.49-2.36,76.59,76.59,0,0,1-34.65-14.58q-14.77-11.28-14.77-28.09a97.73,97.73,0,0,1,6.15-33.68Q1979.15,4236.23,1986.13,4230.62Z"/><path class="cls-19" d="M2220.31,4251.47v-146l-29.12,1q-7,.26-9.85-17.29a123.68,123.68,0,0,1-1.23-17.59,125.44,125.44,0,0,1,1.23-17.67q2.86-17.73,9.85-18,68.89-2.34,137.82-4.36,7-.2,9.43,17.36a92.73,92.73,0,0,1,1.64,17.58,94,94,0,0,1-1.64,17.68q-2.46,17.72-9.43,17.91l-27.49.81v146l28.72-.85q7-.2,9.84,17.35a91.92,91.92,0,0,1,1.64,17.58,95.09,95.09,0,0,1-1.64,17.68q-2.88,17.72-9.84,17.92-69.12,2-138.24,4.36-7,.24-9.43-17.31a93.45,93.45,0,0,1-1.64-17.57,95.36,95.36,0,0,1,1.64-17.69q2.47-17.71,9.43-17.95Z"/><path class="cls-19" d="M2491.25,4318.42q-57.64,1.36-93.95-35.35T2361,4174q0-72.36,36.71-110.7t94.77-39.7q58-1.36,93.75,34.63t35.69,110.41q0,74.41-36.51,111.43T2491.25,4318.42Zm.2-216.09q-19.68.47-33,18.84t-13.33,51q0,32.59,12.71,49.71t33.44,16.61q20.72-.48,33.64-18.41t12.92-50.72q0-32.81-13.33-50.14T2491.45,4102.33Z"/><path class="cls-19" d="M2879.59,4298.68q0,8.63-38.57,9t-41.85-5.63q-34.26-63.53-68.52-126.95v127.52q0,7.36-38,8t-38-6.72V4029.62q0-6.15,32.42-6.72a230.76,230.76,0,0,1,29.74,1.77q17,2,20.73,8.08,32.82,62.64,65.64,125.36V4029.36c0-5.18,12.73-8,38.16-8.26s38.16,2.18,38.16,7.37Z"/><path class="cls-19" d="M2993.66,4282.55v-255c0-5.73,13.88-8.71,41.65-8.85s41.65,2.7,41.65,8.43V4228q31.59-.12,63.19-.16,7.38,0,10.26,19.25a149.12,149.12,0,0,1,1.23,19.27,168.55,168.55,0,0,1-1.23,20.1q-3.28,19.68-10.67,19.69-63.19.09-126.38.46a16.74,16.74,0,0,1-14.37-7.29A27.87,27.87,0,0,1,2993.66,4282.55Z"/><path class="cls-19" d="M3369.12,4307.55q-35.7-.23-38.57-11.7-6.78-26.49-13.54-53-32.62-.15-65.25-.23-5.94,25.41-11.9,50.82-2.46,12.7-39.39,12.66-19.69,0-29.13-2.26c-6.3-1.49-9.45-2.67-9.44-3.48q36.32-138.82,72.63-277.55,0-3.29,56.22-3.13c37.47.14,56.21,1.37,56.21,3.54q35.49,139.21,71,278.49,0,2.88-18.88,4.36T3369.12,4307.55ZM3262,4190.61q21.54.06,43.09.15-9.24-42.48-18.47-84.95h-2.46Q3273.1,4148.21,3262,4190.61Z"/><path class="cls-19" d="M3615.11,4027q22.77,8.74,22.77,23.11c0,9.57-3.64,21.33-10.87,35.3s-13.34,20.91-18.26,20.84c-1.37,0-2.94-.8-4.72-2.32s-5.89-3.23-12.31-5.1a64.4,64.4,0,0,0-16.62-2.89q-23.79-.33-38.36,16.32t-14.57,51.28q0,34.67,15,51.64t37.95,17.3a95.82,95.82,0,0,0,21.13-2.38q11.7-2.49,16.62-7.34c.55-.54,1.64-.79,3.28-.77s4.73,3.15,9.24,9.36,8.68,14.35,12.51,24.39,5.74,17.79,5.75,23.25q0,16-24.62,25t-58.27,8.61q-54.16-.69-89-39.15t-34.88-108q0-69.49,35.91-108.93t89.65-38.75Q3592.34,4018.31,3615.11,4027Z"/><path class="cls-19" d="M3753.58,4306c0,4.39-13,6.3-39,5.82-26.25-.48-39.39-2.73-39.39-6.84V4037.62q0-14.34,15.19-14.09,39.18.67,78.36,1.47c71.93,1.46,107.9,30.41,107.9,86.43q0,25.42-9.85,45.89a78.71,78.71,0,0,1-27.89,32.37q25.85,43.64,51.69,87.31-3.29,9.77-21.33,22-24.63,17.07-40.62,16.71t-23.8-12q-19.28-45.32-38.56-90.59l-12.72-.26Zm0-208.7v61.5l2.05,0q39,.78,39-31.6,0-14.76-7.59-22.1t-24.82-7.67Z"/><path class="cls-19" d="M4039.32,4322.82q-57.63-1.71-94-40.34t-36.3-111q0-72.36,36.72-108.74t94.76-34.68q58,1.7,93.73,39.61T4170,4180q0,74.42-36.5,109.5T4039.32,4322.82Zm.2-216.08q-19.7-.57-33,17.08t-13.33,50.27q0,32.58,12.72,50.38t33.43,18.39q20.7.62,33.63-16.62t12.93-50q0-32.8-13.34-50.85T4039.52,4106.74Z"/><path class="cls-19" d="M4229.85,4254.41v-146l-29.13-1q-7-.24-9.84-18a125.44,125.44,0,0,1-1.23-17.67,122.33,122.33,0,0,1,1.23-17.59q2.86-17.52,9.84-17.29,68.91,2.4,137.81,5.14,7,.27,9.43,18a95.44,95.44,0,0,1,1.64,17.69,93.29,93.29,0,0,1-1.64,17.57q-2.47,17.53-9.43,17.26-13.74-.55-27.48-1.08v146l28.71,1.12q7,.28,9.84,18a95.47,95.47,0,0,1,1.64,17.7,93.19,93.19,0,0,1-1.64,17.56q-2.88,17.52-9.84,17.24-69.11-2.74-138.22-5.16-7-.23-9.43-18a95.2,95.2,0,0,1-1.64-17.69,93.45,93.45,0,0,1,1.64-17.57q2.46-17.55,9.43-17.3Z"/><path class="cls-19" d="M4530.84,4061.35q4.92-12.07,51.25-9.88a289.24,289.24,0,0,1,29.31,3.26q17.43,2.71,17.42,4.35-34.84,69.21-69.69,138.49,36.07,69.57,72.15,139.22,1.23,2.11-17.62,3t-32,.3c-34.72-1.68-53.72-7.17-57-16.62l-30.75-79.72q-13.95,39.76-27.89,79.54-4.11,11.31-52.48,9.21-11.89-.5-29.53-2.87c-11.77-1.56-17.08-3.3-16-5.16q32-69.64,64-139.2-33.21-69.09-66.43-138.08c-.82-1.4,4.85-2.48,17-3.2s22.49-.91,31-.56q51.66,2.19,56.58,17.21,14.16,35.07,28.3,70.15Q4514.64,4096.07,4530.84,4061.35Z"/><path class="cls-19" d="M4762.87,4278.43v-146l-29.11-1.56q-7-.36-9.83-18.15a127,127,0,0,1,0-35.26q2.85-17.47,9.83-17.11,68.86,3.66,137.72,7.65c4.63.27,7.79,6.34,9.42,18.18a95.87,95.87,0,0,1,1.64,17.73,92.82,92.82,0,0,1-1.64,17.54q-2.46,17.49-9.42,17.08L4844,4137v146l28.69,1.65q7,.4,9.83,18.21a95.07,95.07,0,0,1,1.64,17.72,92,92,0,0,1-1.64,17.54q-2.86,17.44-9.83,17.06-69.06-4-138.13-7.69-7-.36-9.43-18.13a94.83,94.83,0,0,1-1.63-17.72,92.9,92.9,0,0,1,1.63-17.54q2.46-17.49,9.43-17.14Z"/><path class="cls-19" d="M5136.17,4362.59q0,8.61-38.51,6.05t-41.79-8.87q-34.21-66.17-68.43-132.25V4355q0,7.38-37.9,5.06t-37.9-9.66V4076.13q0-6.15,32.37-4.21a234,234,0,0,1,29.71,4.07q17,3.3,20.69,9.68,32.78,65.19,65.56,130.44V4087.37c0-5.18,12.69-7,38.1-5.31s38.09,5.13,38.1,10.32Z"/><path class="cls-19" d="M5346.89,4104.21q22.72,10.09,22.73,24.46t-10.86,34.65q-10.86,20.31-18.22,19.76c-1.36-.11-2.93-1-4.71-2.61s-5.88-3.57-12.28-5.82a66.2,66.2,0,0,0-16.59-3.88q-23.74-1.74-38.29,14t-14.54,50.42q0,34.64,14.95,52.52t37.88,19.56a94.21,94.21,0,0,0,21.09-1.12q11.69-1.81,16.59-6.36c.54-.5,1.64-.7,3.27-.58s4.71,3.42,9.22,9.92,8.65,14.87,12.49,25.13,5.73,18.14,5.73,23.59q0,16-24.57,23.58t-58.15,5.16q-54.07-3.91-88.88-44.44t-34.82-110q0-69.51,35.85-106.8t89.49-33.42Q5324.16,4094.1,5346.89,4104.21Z"/><path class="cls-19" d="M5472,4397.32q0,2.86-38.69-.15t-38.69-5.43v-73.8c0-2.46,12.9-2.73,38.69-.73s38.69,3.71,38.69,5.07Z"/><path class="cls-20" d="M930.12,4450.59c-24.84,1.92-37.25.19-37.25-5.29V4179.6q0-13.92,12.69-14.93,36-2.82,72.06-5.55,60.58-4.6,87.43,18.52t26.82,70.63q0,39.36-25.39,74-12.7,17.32-37.27,29t-57.32,14.13v73.4q0,4.91-15.36,7.94A231.32,231.32,0,0,1,930.12,4450.59Zm41.77-219.69v64.78l5.32-.4a37.14,37.14,0,0,0,24.16-10.84q9.82-9.75,9.82-26.16t-6.75-22.87q-6.75-6.46-24-5.17Z"/><path class="cls-20" d="M1206.14,4424q0,6.56-38.91,9.23-39.32,2.73-39.32-3.4V4162.47q0-14.36,15.15-15.42,39.12-2.73,78.24-5.37c71.83-4.82,107.75,21,107.75,77q0,25.42-9.84,46.76a89.23,89.23,0,0,1-27.86,34.81q25.82,41.37,51.63,82.79-3.29,10.05-21.31,23.91-24.59,19.22-40.56,20.25t-23.76-9.92q-19.26-43.62-38.51-87.22l-12.7.86Zm0-208.7v61.5l2-.14q38.93-2.62,38.92-35,0-14.76-7.58-21.43t-24.78-5.51Z"/><path class="cls-20" d="M1500.74,4238.19q7.79-.45,7.79,28.25a134.41,134.41,0,0,1-1.85,20.4q-1.83,11.81-6.76,12.08-26,1.5-52,3.05v41q37.69-2.25,75.4-4.4,7-.39,9.43,17.51a105.24,105.24,0,0,1,1.23,16.54,139,139,0,0,1-2.46,22.89q-2.46,14.08-8.2,14.41-70.08,4-140.15,8.32c-10.38.63-15.57-3.26-15.57-11.75V4142.86q0-10.66,9.43-11.25,73.34-4.54,146.7-8.72,8.61-.49,8.61,35.8t-8.61,36.77q-37.9,2.16-75.81,4.42v41.41Q1474.31,4239.72,1500.74,4238.19ZM1420.83,4117c-2.46.15-5.6-2.38-9.42-7.62q-7.38-11-7.38-18.83t2.46-10.4q66.78-41,68-41,4.1-.24,10.25,9.24,9.42,13.82,9.43,26.52c0,3-.69,5.23-2,6.68Q1421.64,4116.92,1420.83,4117Z"/><path class="cls-20" d="M1739.5,4116.12q22.76,7.28,22.76,21.63t-10.87,36q-10.86,21.66-18.24,22-2.06.09-4.71-2t-12.3-4.3a62.44,62.44,0,0,0-16.61-1.83q-23.77,1.22-38.32,18.79t-14.56,52.22q0,34.65,15,50.67t37.91,14.86a98.13,98.13,0,0,0,21.12-3.73q11.68-3.26,16.6-8.41a4.93,4.93,0,0,1,3.28-1q2.46-.12,9.22,8.77t12.51,23.58q5.74,14.71,5.74,22.89,0,16-24.6,26.63t-58.21,12.36q-54.11,2.77-89-33.43t-34.84-105.71q0-69.51,35.86-111.25t89.57-44.5Q1716.74,4108.83,1739.5,4116.12Z"/><path class="cls-20" d="M1826.62,4323.71v-146l-29.11,1.37q-7,.33-9.84-17.16a123.4,123.4,0,0,1-1.23-17.57,125.73,125.73,0,0,1,1.23-17.69q2.86-17.77,9.84-18.1,68.88-3.29,137.77-6.22,7-.3,9.43,17.23a93.19,93.19,0,0,1,1.65,17.56,96.34,96.34,0,0,1-1.65,17.7q-2.46,17.74-9.43,18l-27.47,1.19v146l28.7-1.24q7-.3,9.85,17.21a94.87,94.87,0,0,1,1.64,17.56,97,97,0,0,1-1.64,17.7q-2.88,17.78-9.85,18.05-69.09,3-138.18,6.24-7,.33-9.43-17.18a93.11,93.11,0,0,1-1.64-17.56,95.65,95.65,0,0,1,1.64-17.71q2.47-17.74,9.43-18.08Z"/><path class="cls-20" d="M1986.13,4287.21q7.78,5.82,26.86,15.72t36.5,9.22q17.41-.67,17.43-14.2a14.08,14.08,0,0,0-4.93-10.68c-3.27-3-9.29-6.41-18-10.17s-15.32-6.7-19.69-8.86a144.76,144.76,0,0,1-17.42-10.78q-10.87-7.56-16.61-15.93-16.41-22.7-16.41-58.78t26.86-62q26.86-25.89,70.34-27.57a217.76,217.76,0,0,1,54.54,4.32q25,5.44,25.84,15.69v2.46q0,14.35-9,36.6t-12.71,24.86q-26.27-12.57-47-11.8T2062,4180.87q0,9,15.18,15.41,3.28,1.53,9.43,4.15t14.15,6.24a162.47,162.47,0,0,1,17.23,9.21,140.73,140.73,0,0,1,19.89,15.07q21.74,19.73,21.74,53.35,0,43.88-24.2,72.61t-74.65,31.48a221.12,221.12,0,0,1-44.49-2.35,76.6,76.6,0,0,1-34.65-14.59q-14.77-11.28-14.77-28.09a97.68,97.68,0,0,1,6.15-33.67Q1979.15,4292.83,1986.13,4287.21Z"/><path class="cls-20" d="M2220.31,4308.07v-146l-29.12,1q-7,.24-9.85-17.3a123.65,123.65,0,0,1-1.23-17.58,125.58,125.58,0,0,1,1.23-17.68q2.86-17.72,9.85-18,68.89-2.34,137.82-4.35c4.65-.14,7.79,5.66,9.43,17.35a92.83,92.83,0,0,1,1.64,17.59,94,94,0,0,1-1.64,17.67q-2.46,17.71-9.43,17.91l-27.49.82v146q14.37-.43,28.72-.85,7-.21,9.84,17.34a92,92,0,0,1,1.64,17.59,94.91,94.91,0,0,1-1.64,17.67q-2.88,17.73-9.84,17.92-69.12,2-138.24,4.37-7,.22-9.43-17.31a93.48,93.48,0,0,1-1.64-17.58,95.17,95.17,0,0,1,1.64-17.68q2.47-17.73,9.43-18Z"/><path class="cls-20" d="M2491.25,4375q-57.64,1.36-93.95-35.34t-36.3-109.1q0-72.34,36.71-110.69t94.77-39.71q58-1.35,93.75,34.63t35.69,110.41q0,74.41-36.51,111.44T2491.25,4375Zm.2-216.09q-19.68.46-33,18.84t-13.33,51q0,32.6,12.71,49.7t33.44,16.62q20.72-.5,33.64-18.41t12.92-50.72q0-32.81-13.33-50.14T2491.45,4158.92Z"/><path class="cls-20" d="M2879.59,4355.28q0,8.61-38.57,9t-41.85-5.63q-34.26-63.51-68.52-127v127.52q0,7.36-38,8t-38-6.72V4086.22q0-6.16,32.42-6.72a228.79,228.79,0,0,1,29.74,1.76q17,2,20.73,8.09,32.82,62.64,65.64,125.36V4086q0-7.78,38.16-8.26t38.16,7.37Z"/><path class="cls-20" d="M2993.66,4339.14v-255q0-8.61,41.65-8.85t41.65,8.43V4284.6q31.59-.12,63.19-.16,7.38,0,10.26,19.26a148.89,148.89,0,0,1,1.23,19.27,168.51,168.51,0,0,1-1.23,20.09q-3.28,19.68-10.67,19.7-63.19.09-126.38.45a16.72,16.72,0,0,1-14.37-7.29A27.87,27.87,0,0,1,2993.66,4339.14Z"/><path class="cls-20" d="M3369.12,4364.14c-23.8-.15-36.67-4-38.57-11.7q-6.78-26.47-13.54-53-32.62-.15-65.25-.23-5.94,25.41-11.9,50.82-2.46,12.7-39.39,12.66-19.69,0-29.13-2.26c-6.3-1.49-9.45-2.67-9.44-3.48q36.32-138.83,72.63-277.55c0-2.18,18.73-3.26,56.22-3.12s56.21,1.36,56.21,3.54q35.49,139.2,71,278.49,0,2.86-18.88,4.36T3369.12,4364.14ZM3262,4247.21q21.54.06,43.09.15-9.24-42.48-18.47-84.95h-2.46Q3273.1,4204.79,3262,4247.21Z"/><path class="cls-20" d="M3615.11,4083.63q22.77,8.74,22.77,23.1c0,9.57-3.64,21.34-10.87,35.3s-13.34,20.92-18.26,20.84c-1.37,0-2.94-.79-4.72-2.32s-5.89-3.22-12.31-5.09a64.47,64.47,0,0,0-16.62-2.9q-23.79-.31-38.36,16.32t-14.57,51.29q0,34.65,15,51.63t37.95,17.3a96.37,96.37,0,0,0,21.13-2.37q11.7-2.49,16.62-7.35c.55-.54,1.64-.79,3.28-.77s4.73,3.15,9.24,9.37,8.68,14.34,12.51,24.38,5.74,17.8,5.75,23.26q0,16-24.62,25t-58.27,8.62q-54.16-.7-89-39.15t-34.88-108q0-69.51,35.91-108.94t89.65-38.74Q3592.34,4074.9,3615.11,4083.63Z"/><path class="cls-20" d="M3753.58,4362.58q0,6.57-39,5.82-39.37-.72-39.39-6.84V4094.22q0-14.35,15.19-14.09,39.18.67,78.36,1.47c71.93,1.45,107.9,30.41,107.9,86.42q0,25.42-9.85,45.9a78.69,78.69,0,0,1-27.89,32.36q25.85,43.64,51.69,87.32-3.29,9.75-21.33,22-24.63,17.05-40.62,16.7t-23.8-12q-19.28-45.3-38.56-90.59l-12.72-.25Zm0-208.71v61.5l2.05,0q39,.78,39-31.6,0-14.76-7.59-22.09T3762.2,4154Z"/><path class="cls-20" d="M4039.32,4379.41q-57.63-1.69-94-40.33t-36.3-111q0-72.36,36.72-108.75t94.76-34.68q58,1.71,93.73,39.61t35.68,112.3q0,74.43-36.5,109.5T4039.32,4379.41Zm.2-216.08q-19.7-.57-33,17.09t-13.33,50.27q0,32.58,12.72,50.37t33.43,18.39q20.7.61,33.63-16.62t12.93-50q0-32.8-13.34-50.84T4039.52,4163.33Z"/><path class="cls-20" d="M4229.85,4311V4165l-29.13-1q-7-.22-9.84-18a125.55,125.55,0,0,1-1.23-17.67,122.13,122.13,0,0,1,1.23-17.59q2.86-17.54,9.84-17.29,68.91,2.4,137.81,5.14,7,.26,9.43,18a95.47,95.47,0,0,1,1.64,17.7,93.19,93.19,0,0,1-1.64,17.56q-2.47,17.55-9.43,17.26l-27.48-1.08v146l28.71,1.13q7,.27,9.84,18a95.47,95.47,0,0,1,1.64,17.7,93.29,93.29,0,0,1-1.64,17.57q-2.88,17.51-9.84,17.23-69.11-2.73-138.22-5.15-7-.24-9.43-18a95.28,95.28,0,0,1-1.64-17.69,93.63,93.63,0,0,1,1.64-17.58q2.46-17.54,9.43-17.3Z"/><path class="cls-20" d="M4530.84,4118q4.92-12.07,51.25-9.89a286.77,286.77,0,0,1,29.31,3.27q17.43,2.7,17.42,4.34-34.84,69.21-69.69,138.5,36.07,69.56,72.15,139.22,1.23,2.1-17.62,3t-32,.29q-52.08-2.51-57-16.62-15.37-39.87-30.75-79.71-13.95,39.75-27.89,79.53c-2.74,7.55-20.24,10.58-52.48,9.22q-11.89-.51-29.53-2.87c-11.77-1.57-17.08-3.3-16-5.17q32-69.63,64-139.2-33.21-69.07-66.43-138.08-1.23-2.1,17-3.2t31-.55q51.66,2.19,56.58,17.2,14.16,35.07,28.3,70.15Q4514.64,4152.66,4530.84,4118Z"/><path class="cls-20" d="M4762.87,4335v-146l-29.11-1.56q-7-.37-9.83-18.16a127,127,0,0,1,0-35.26q2.85-17.47,9.83-17.11,68.86,3.66,137.72,7.66c4.63.26,7.79,6.33,9.42,18.18a95.87,95.87,0,0,1,1.64,17.73,92.71,92.71,0,0,1-1.64,17.53q-2.46,17.49-9.42,17.08l-27.46-1.58v146l28.69,1.66q7,.41,9.83,18.2a95.07,95.07,0,0,1,1.64,17.72,92,92,0,0,1-1.64,17.54q-2.86,17.44-9.83,17.06-69.06-4-138.13-7.69-7-.36-9.43-18.13a94.83,94.83,0,0,1-1.63-17.72,93,93,0,0,1,1.63-17.54q2.46-17.49,9.43-17.13Z"/><path class="cls-20" d="M5136.17,4419.18q0,8.63-38.51,6t-41.79-8.87q-34.21-66.16-68.43-132.24v127.51c0,4.93-12.63,6.59-37.9,5.06s-37.9-4.73-37.9-9.66v-274.3q0-6.16,32.37-4.22a235.8,235.8,0,0,1,29.71,4.07q17,3.32,20.69,9.69,32.78,65.17,65.56,130.44V4144c0-5.18,12.69-7,38.1-5.31s38.09,5.14,38.1,10.32Z"/><path class="cls-20" d="M5346.89,4160.8q22.72,10.09,22.73,24.46t-10.86,34.65q-10.86,20.31-18.22,19.76c-1.36-.11-2.93-1-4.71-2.6s-5.88-3.58-12.28-5.83a66.2,66.2,0,0,0-16.59-3.88q-23.74-1.72-38.29,14t-14.54,50.42q0,34.65,14.95,52.53T5307,4363.9a93.62,93.62,0,0,0,21.09-1.12q11.69-1.81,16.59-6.36c.54-.5,1.64-.7,3.27-.57s4.71,3.42,9.22,9.91,8.65,14.87,12.49,25.13,5.73,18.14,5.73,23.6q0,16-24.57,23.58t-58.15,5.15q-54.07-3.92-88.88-44.44t-34.82-110q0-69.49,35.85-106.8t89.49-33.42Q5324.16,4150.71,5346.89,4160.8Z"/><path class="cls-20" d="M5472,4453.91q0,2.88-38.69-.15t-38.69-5.42v-73.81q0-3.69,38.69-.72t38.69,5.07Z"/><path class="cls-21" d="M930.12,4394c-24.84,1.91-37.25.18-37.25-5.29V4123q0-13.93,12.69-14.94,36-2.82,72.06-5.55,60.58-4.59,87.43,18.52t26.82,70.64q0,39.34-25.39,74-12.7,17.32-37.27,29t-57.32,14.14v73.4q0,4.91-15.36,7.93A229.38,229.38,0,0,1,930.12,4394Zm41.77-219.7v64.79l5.32-.41a37,37,0,0,0,24.16-10.84q9.82-9.75,9.82-26.16t-6.75-22.86q-6.75-6.48-24-5.17Z"/><path class="cls-21" d="M1206.14,4367.39q0,6.55-38.91,9.23-39.32,2.72-39.32-3.41V4105.88q0-14.35,15.15-15.42,39.12-2.74,78.24-5.38c71.83-4.82,107.75,21,107.75,77q0,25.42-9.84,46.76a89.2,89.2,0,0,1-27.86,34.8q25.82,41.37,51.63,82.8-3.29,10-21.31,23.91-24.59,19.2-40.56,20.25t-23.76-9.92q-19.26-43.64-38.51-87.23l-12.7.86Zm0-208.71v61.51l2-.14q38.93-2.62,38.92-35,0-14.74-7.58-21.43t-24.78-5.51Z"/><path class="cls-21" d="M1500.74,4181.6q7.79-.47,7.79,28.25a134.52,134.52,0,0,1-1.85,20.4q-1.83,11.79-6.76,12.08-26,1.5-52,3.05v41q37.69-2.23,75.4-4.39,7-.39,9.43,17.51a105.11,105.11,0,0,1,1.23,16.53,138.94,138.94,0,0,1-2.46,22.9q-2.46,14.08-8.2,14.4-70.08,4-140.15,8.33c-10.38.62-15.57-3.26-15.57-11.75V4086.26q0-10.66,9.43-11.25,73.34-4.55,146.7-8.72,8.61-.48,8.61,35.8t-8.61,36.78q-37.9,2.16-75.81,4.41v41.41Q1474.31,4183.12,1500.74,4181.6Zm-79.91-121.16q-3.69.22-9.42-7.63-7.38-11-7.38-18.82t2.46-10.4q66.78-41,68-41,4.1-.24,10.25,9.24,9.42,13.8,9.43,26.51c0,3-.69,5.23-2,6.68Q1421.64,4060.31,1420.83,4060.44Z"/><path class="cls-21" d="M1739.5,4059.52q22.76,7.29,22.76,21.64t-10.87,36q-10.86,21.66-18.24,22-2.06.09-4.71-2t-12.3-4.31a62.8,62.8,0,0,0-16.61-1.82q-23.77,1.22-38.32,18.78T1646.65,4202q0,34.65,15,50.67t37.91,14.86a98.75,98.75,0,0,0,21.12-3.73q11.68-3.27,16.6-8.42c.54-.57,1.64-.9,3.28-1s4.71,2.84,9.22,8.77,8.68,13.8,12.51,23.58,5.74,17.42,5.74,22.89q0,16-24.6,26.62t-58.21,12.37q-54.11,2.78-89-33.43t-34.84-105.72q0-69.5,35.86-111.24t89.57-44.51Q1716.74,4052.24,1739.5,4059.52Z"/><path class="cls-21" d="M1826.62,4267.12v-146q-14.55.68-29.11,1.37-7,.33-9.84-17.17a123.3,123.3,0,0,1-1.23-17.57,125.83,125.83,0,0,1,1.23-17.69q2.86-17.76,9.84-18.1,68.88-3.27,137.77-6.22,7-.3,9.43,17.23a93.19,93.19,0,0,1,1.65,17.56,96.25,96.25,0,0,1-1.65,17.7q-2.46,17.74-9.43,18l-27.47,1.19v146l28.7-1.25q7-.28,9.85,17.22A94.79,94.79,0,0,1,1948,4297a97,97,0,0,1-1.64,17.7q-2.88,17.76-9.85,18.05-69.09,3-138.18,6.23-7,.34-9.43-17.18a92.92,92.92,0,0,1-1.64-17.55,95.57,95.57,0,0,1,1.64-17.71q2.47-17.74,9.43-18.08Z"/><path class="cls-21" d="M1986.13,4230.62q7.78,5.82,26.86,15.72t36.5,9.22q17.41-.68,17.43-14.21a14.06,14.06,0,0,0-4.93-10.67c-3.27-3-9.29-6.42-18-10.17s-15.32-6.71-19.69-8.86a146.07,146.07,0,0,1-17.42-10.78q-10.87-7.56-16.61-15.94-16.41-22.68-16.41-58.78t26.86-62q26.86-25.87,70.34-27.57a217.75,217.75,0,0,1,54.54,4.33q25,5.45,25.84,15.68v2.46q0,14.37-9,36.61t-12.71,24.85q-26.27-12.57-47-11.8T2062,4124.27q0,9,15.18,15.41,3.28,1.53,9.43,4.16t14.15,6.24a162.27,162.27,0,0,1,17.23,9.2,142.28,142.28,0,0,1,19.89,15.07q21.74,19.74,21.74,53.35,0,43.88-24.2,72.62t-74.65,31.48a221.07,221.07,0,0,1-44.49-2.36,76.59,76.59,0,0,1-34.65-14.58q-14.77-11.28-14.77-28.09a97.73,97.73,0,0,1,6.15-33.68Q1979.15,4236.23,1986.13,4230.62Z"/><path class="cls-21" d="M2220.31,4251.47v-146l-29.12,1q-7,.26-9.85-17.29a123.68,123.68,0,0,1-1.23-17.59,125.44,125.44,0,0,1,1.23-17.67q2.86-17.73,9.85-18,68.89-2.34,137.82-4.36,7-.2,9.43,17.36a92.73,92.73,0,0,1,1.64,17.58,94,94,0,0,1-1.64,17.68q-2.46,17.72-9.43,17.91l-27.49.81v146l28.72-.85q7-.2,9.84,17.35a91.92,91.92,0,0,1,1.64,17.58,95.09,95.09,0,0,1-1.64,17.68q-2.88,17.72-9.84,17.92-69.12,2-138.24,4.36-7,.24-9.43-17.31a93.45,93.45,0,0,1-1.64-17.57,95.36,95.36,0,0,1,1.64-17.69q2.47-17.71,9.43-17.95Z"/><path class="cls-21" d="M2491.25,4318.42q-57.64,1.36-93.95-35.35T2361,4174q0-72.36,36.71-110.7t94.77-39.7q58-1.36,93.75,34.63t35.69,110.41q0,74.41-36.51,111.43T2491.25,4318.42Zm.2-216.09q-19.68.47-33,18.84t-13.33,51q0,32.59,12.71,49.71t33.44,16.61q20.72-.48,33.64-18.41t12.92-50.72q0-32.81-13.33-50.14T2491.45,4102.33Z"/><path class="cls-21" d="M2879.59,4298.68q0,8.63-38.57,9t-41.85-5.63q-34.26-63.53-68.52-126.95v127.52q0,7.36-38,8t-38-6.72V4029.62q0-6.15,32.42-6.72a230.76,230.76,0,0,1,29.74,1.77q17,2,20.73,8.08,32.82,62.64,65.64,125.36V4029.36c0-5.18,12.73-8,38.16-8.26s38.16,2.18,38.16,7.37Z"/><path class="cls-21" d="M2993.66,4282.55v-255c0-5.73,13.88-8.71,41.65-8.85s41.65,2.7,41.65,8.43V4228q31.59-.12,63.19-.16,7.38,0,10.26,19.25a149.12,149.12,0,0,1,1.23,19.27,168.55,168.55,0,0,1-1.23,20.1q-3.28,19.68-10.67,19.69-63.19.09-126.38.46a16.74,16.74,0,0,1-14.37-7.29A27.87,27.87,0,0,1,2993.66,4282.55Z"/><path class="cls-21" d="M3369.12,4307.55q-35.7-.23-38.57-11.7-6.78-26.49-13.54-53-32.62-.15-65.25-.23-5.94,25.41-11.9,50.82-2.46,12.7-39.39,12.66-19.69,0-29.13-2.26c-6.3-1.49-9.45-2.67-9.44-3.48q36.32-138.82,72.63-277.55,0-3.29,56.22-3.13c37.47.14,56.21,1.37,56.21,3.54q35.49,139.21,71,278.49,0,2.88-18.88,4.36T3369.12,4307.55ZM3262,4190.61q21.54.06,43.09.15-9.24-42.48-18.47-84.95h-2.46Q3273.1,4148.21,3262,4190.61Z"/><path class="cls-21" d="M3615.11,4027q22.77,8.74,22.77,23.11c0,9.57-3.64,21.33-10.87,35.3s-13.34,20.91-18.26,20.84c-1.37,0-2.94-.8-4.72-2.32s-5.89-3.23-12.31-5.1a64.4,64.4,0,0,0-16.62-2.89q-23.79-.33-38.36,16.32t-14.57,51.28q0,34.67,15,51.64t37.95,17.3a95.82,95.82,0,0,0,21.13-2.38q11.7-2.49,16.62-7.34c.55-.54,1.64-.79,3.28-.77s4.73,3.15,9.24,9.36,8.68,14.35,12.51,24.39,5.74,17.79,5.75,23.25q0,16-24.62,25t-58.27,8.61q-54.16-.69-89-39.15t-34.88-108q0-69.49,35.91-108.93t89.65-38.75Q3592.34,4018.31,3615.11,4027Z"/><path class="cls-21" d="M3753.58,4306c0,4.39-13,6.3-39,5.82-26.25-.48-39.39-2.73-39.39-6.84V4037.62q0-14.34,15.19-14.09,39.18.67,78.36,1.47c71.93,1.46,107.9,30.41,107.9,86.43q0,25.42-9.85,45.89a78.71,78.71,0,0,1-27.89,32.37q25.85,43.64,51.69,87.31-3.29,9.77-21.33,22-24.63,17.07-40.62,16.71t-23.8-12q-19.28-45.32-38.56-90.59l-12.72-.26Zm0-208.7v61.5l2.05,0q39,.78,39-31.6,0-14.76-7.59-22.1t-24.82-7.67Z"/><path class="cls-21" d="M4039.32,4322.82q-57.63-1.71-94-40.34t-36.3-111q0-72.36,36.72-108.74t94.76-34.68q58,1.7,93.73,39.61T4170,4180q0,74.42-36.5,109.5T4039.32,4322.82Zm.2-216.08q-19.7-.57-33,17.08t-13.33,50.27q0,32.58,12.72,50.38t33.43,18.39q20.7.62,33.63-16.62t12.93-50q0-32.8-13.34-50.85T4039.52,4106.74Z"/><path class="cls-21" d="M4229.85,4254.41v-146l-29.13-1q-7-.24-9.84-18a125.44,125.44,0,0,1-1.23-17.67,122.33,122.33,0,0,1,1.23-17.59q2.86-17.52,9.84-17.29,68.91,2.4,137.81,5.14,7,.27,9.43,18a95.44,95.44,0,0,1,1.64,17.69,93.29,93.29,0,0,1-1.64,17.57q-2.47,17.53-9.43,17.26-13.74-.55-27.48-1.08v146l28.71,1.12q7,.28,9.84,18a95.47,95.47,0,0,1,1.64,17.7,93.19,93.19,0,0,1-1.64,17.56q-2.88,17.52-9.84,17.24-69.11-2.74-138.22-5.16-7-.23-9.43-18a95.2,95.2,0,0,1-1.64-17.69,93.45,93.45,0,0,1,1.64-17.57q2.46-17.55,9.43-17.3Z"/><path class="cls-21" d="M4530.84,4061.35q4.92-12.07,51.25-9.88a289.24,289.24,0,0,1,29.31,3.26q17.43,2.71,17.42,4.35-34.84,69.21-69.69,138.49,36.07,69.57,72.15,139.22,1.23,2.11-17.62,3t-32,.3c-34.72-1.68-53.72-7.17-57-16.62l-30.75-79.72q-13.95,39.76-27.89,79.54-4.11,11.31-52.48,9.21-11.89-.5-29.53-2.87c-11.77-1.56-17.08-3.3-16-5.16q32-69.64,64-139.2-33.21-69.09-66.43-138.08c-.82-1.4,4.85-2.48,17-3.2s22.49-.91,31-.56q51.66,2.19,56.58,17.21,14.16,35.07,28.3,70.15Q4514.64,4096.07,4530.84,4061.35Z"/><path class="cls-21" d="M4762.87,4278.43v-146l-29.11-1.56q-7-.36-9.83-18.15a127,127,0,0,1,0-35.26q2.85-17.47,9.83-17.11,68.86,3.66,137.72,7.65c4.63.27,7.79,6.34,9.42,18.18a95.87,95.87,0,0,1,1.64,17.73,92.82,92.82,0,0,1-1.64,17.54q-2.46,17.49-9.42,17.08L4844,4137v146l28.69,1.65q7,.4,9.83,18.21a95.07,95.07,0,0,1,1.64,17.72,92,92,0,0,1-1.64,17.54q-2.86,17.44-9.83,17.06-69.06-4-138.13-7.69-7-.36-9.43-18.13a94.83,94.83,0,0,1-1.63-17.72,92.9,92.9,0,0,1,1.63-17.54q2.46-17.49,9.43-17.14Z"/><path class="cls-21" d="M5136.17,4362.59q0,8.61-38.51,6.05t-41.79-8.87q-34.21-66.17-68.43-132.25V4355q0,7.38-37.9,5.06t-37.9-9.66V4076.13q0-6.15,32.37-4.21a234,234,0,0,1,29.71,4.07q17,3.3,20.69,9.68,32.78,65.19,65.56,130.44V4087.37c0-5.18,12.69-7,38.1-5.31s38.09,5.13,38.1,10.32Z"/><path class="cls-21" d="M5346.89,4104.21q22.72,10.09,22.73,24.46t-10.86,34.65q-10.86,20.31-18.22,19.76c-1.36-.11-2.93-1-4.71-2.61s-5.88-3.57-12.28-5.82a66.2,66.2,0,0,0-16.59-3.88q-23.74-1.74-38.29,14t-14.54,50.42q0,34.64,14.95,52.52t37.88,19.56a94.21,94.21,0,0,0,21.09-1.12q11.69-1.81,16.59-6.36c.54-.5,1.64-.7,3.27-.58s4.71,3.42,9.22,9.92,8.65,14.87,12.49,25.13,5.73,18.14,5.73,23.59q0,16-24.57,23.58t-58.15,5.16q-54.07-3.91-88.88-44.44t-34.82-110q0-69.51,35.85-106.8t89.49-33.42Q5324.16,4094.1,5346.89,4104.21Z"/><path class="cls-21" d="M5472,4397.32q0,2.86-38.69-.15t-38.69-5.43v-73.8c0-2.46,12.9-2.73,38.69-.73s38.69,3.71,38.69,5.07Z"/><path class="cls-22" d="M930.12,4394c-24.84,1.91-37.25.18-37.25-5.29V4123q0-13.93,12.69-14.94,36-2.82,72.06-5.55,60.58-4.59,87.43,18.52t26.82,70.64q0,39.34-25.39,74-12.7,17.32-37.27,29t-57.32,14.14v73.4q0,4.91-15.36,7.93A229.38,229.38,0,0,1,930.12,4394Zm41.77-219.7v64.79l5.32-.41a37,37,0,0,0,24.16-10.84q9.82-9.75,9.82-26.16t-6.75-22.86q-6.75-6.48-24-5.17Z"/><path class="cls-22" d="M1206.14,4367.39q0,6.55-38.91,9.23-39.32,2.72-39.32-3.41V4105.88q0-14.35,15.15-15.42,39.12-2.74,78.24-5.38c71.83-4.82,107.75,21,107.75,77q0,25.42-9.84,46.76a89.2,89.2,0,0,1-27.86,34.8q25.82,41.37,51.63,82.8-3.29,10-21.31,23.91-24.59,19.2-40.56,20.25t-23.76-9.92q-19.26-43.64-38.51-87.23l-12.7.86Zm0-208.71v61.51l2-.14q38.93-2.62,38.92-35,0-14.74-7.58-21.43t-24.78-5.51Z"/><path class="cls-22" d="M1500.74,4181.6q7.79-.47,7.79,28.25a134.52,134.52,0,0,1-1.85,20.4q-1.83,11.79-6.76,12.08-26,1.5-52,3.05v41q37.69-2.23,75.4-4.39,7-.39,9.43,17.51a105.11,105.11,0,0,1,1.23,16.53,138.94,138.94,0,0,1-2.46,22.9q-2.46,14.08-8.2,14.4-70.08,4-140.15,8.33c-10.38.62-15.57-3.26-15.57-11.75V4086.26q0-10.66,9.43-11.25,73.34-4.55,146.7-8.72,8.61-.48,8.61,35.8t-8.61,36.78q-37.9,2.16-75.81,4.41v41.41Q1474.31,4183.12,1500.74,4181.6Zm-79.91-121.16q-3.69.22-9.42-7.63-7.38-11-7.38-18.82t2.46-10.4q66.78-41,68-41,4.1-.24,10.25,9.24,9.42,13.8,9.43,26.51c0,3-.69,5.23-2,6.68Q1421.64,4060.31,1420.83,4060.44Z"/><path class="cls-22" d="M1739.5,4059.52q22.76,7.29,22.76,21.64t-10.87,36q-10.86,21.66-18.24,22-2.06.09-4.71-2t-12.3-4.31a62.8,62.8,0,0,0-16.61-1.82q-23.77,1.22-38.32,18.78T1646.65,4202q0,34.65,15,50.67t37.91,14.86a98.75,98.75,0,0,0,21.12-3.73q11.68-3.27,16.6-8.42c.54-.57,1.64-.9,3.28-1s4.71,2.84,9.22,8.77,8.68,13.8,12.51,23.58,5.74,17.42,5.74,22.89q0,16-24.6,26.62t-58.21,12.37q-54.11,2.78-89-33.43t-34.84-105.72q0-69.5,35.86-111.24t89.57-44.51Q1716.74,4052.24,1739.5,4059.52Z"/><path class="cls-22" d="M1826.62,4267.12v-146q-14.55.68-29.11,1.37-7,.33-9.84-17.17a123.3,123.3,0,0,1-1.23-17.57,125.83,125.83,0,0,1,1.23-17.69q2.86-17.76,9.84-18.1,68.88-3.27,137.77-6.22,7-.3,9.43,17.23a93.19,93.19,0,0,1,1.65,17.56,96.25,96.25,0,0,1-1.65,17.7q-2.46,17.74-9.43,18l-27.47,1.19v146l28.7-1.25q7-.28,9.85,17.22A94.79,94.79,0,0,1,1948,4297a97,97,0,0,1-1.64,17.7q-2.88,17.76-9.85,18.05-69.09,3-138.18,6.23-7,.34-9.43-17.18a92.92,92.92,0,0,1-1.64-17.55,95.57,95.57,0,0,1,1.64-17.71q2.47-17.74,9.43-18.08Z"/><path class="cls-22" d="M1986.13,4230.62q7.78,5.82,26.86,15.72t36.5,9.22q17.41-.68,17.43-14.21a14.06,14.06,0,0,0-4.93-10.67c-3.27-3-9.29-6.42-18-10.17s-15.32-6.71-19.69-8.86a146.07,146.07,0,0,1-17.42-10.78q-10.87-7.56-16.61-15.94-16.41-22.68-16.41-58.78t26.86-62q26.86-25.87,70.34-27.57a217.75,217.75,0,0,1,54.54,4.33q25,5.45,25.84,15.68v2.46q0,14.37-9,36.61t-12.71,24.85q-26.27-12.57-47-11.8T2062,4124.27q0,9,15.18,15.41,3.28,1.53,9.43,4.16t14.15,6.24a162.27,162.27,0,0,1,17.23,9.2,142.28,142.28,0,0,1,19.89,15.07q21.74,19.74,21.74,53.35,0,43.88-24.2,72.62t-74.65,31.48a221.07,221.07,0,0,1-44.49-2.36,76.59,76.59,0,0,1-34.65-14.58q-14.77-11.28-14.77-28.09a97.73,97.73,0,0,1,6.15-33.68Q1979.15,4236.23,1986.13,4230.62Z"/><path class="cls-22" d="M2220.31,4251.47v-146l-29.12,1q-7,.26-9.85-17.29a123.68,123.68,0,0,1-1.23-17.59,125.44,125.44,0,0,1,1.23-17.67q2.86-17.73,9.85-18,68.89-2.34,137.82-4.36,7-.2,9.43,17.36a92.73,92.73,0,0,1,1.64,17.58,94,94,0,0,1-1.64,17.68q-2.46,17.72-9.43,17.91l-27.49.81v146l28.72-.85q7-.2,9.84,17.35a91.92,91.92,0,0,1,1.64,17.58,95.09,95.09,0,0,1-1.64,17.68q-2.88,17.72-9.84,17.92-69.12,2-138.24,4.36-7,.24-9.43-17.31a93.45,93.45,0,0,1-1.64-17.57,95.36,95.36,0,0,1,1.64-17.69q2.47-17.71,9.43-17.95Z"/><path class="cls-22" d="M2491.25,4318.42q-57.64,1.36-93.95-35.35T2361,4174q0-72.36,36.71-110.7t94.77-39.7q58-1.36,93.75,34.63t35.69,110.41q0,74.41-36.51,111.43T2491.25,4318.42Zm.2-216.09q-19.68.47-33,18.84t-13.33,51q0,32.59,12.71,49.71t33.44,16.61q20.72-.48,33.64-18.41t12.92-50.72q0-32.81-13.33-50.14T2491.45,4102.33Z"/><path class="cls-22" d="M2879.59,4298.68q0,8.63-38.57,9t-41.85-5.63q-34.26-63.53-68.52-126.95v127.52q0,7.36-38,8t-38-6.72V4029.62q0-6.15,32.42-6.72a230.76,230.76,0,0,1,29.74,1.77q17,2,20.73,8.08,32.82,62.64,65.64,125.36V4029.36c0-5.18,12.73-8,38.16-8.26s38.16,2.18,38.16,7.37Z"/><path class="cls-22" d="M2993.66,4282.55v-255c0-5.73,13.88-8.71,41.65-8.85s41.65,2.7,41.65,8.43V4228q31.59-.12,63.19-.16,7.38,0,10.26,19.25a149.12,149.12,0,0,1,1.23,19.27,168.55,168.55,0,0,1-1.23,20.1q-3.28,19.68-10.67,19.69-63.19.09-126.38.46a16.74,16.74,0,0,1-14.37-7.29A27.87,27.87,0,0,1,2993.66,4282.55Z"/><path class="cls-22" d="M3369.12,4307.55q-35.7-.23-38.57-11.7-6.78-26.49-13.54-53-32.62-.15-65.25-.23-5.94,25.41-11.9,50.82-2.46,12.7-39.39,12.66-19.69,0-29.13-2.26c-6.3-1.49-9.45-2.67-9.44-3.48q36.32-138.82,72.63-277.55,0-3.29,56.22-3.13c37.47.14,56.21,1.37,56.21,3.54q35.49,139.21,71,278.49,0,2.88-18.88,4.36T3369.12,4307.55ZM3262,4190.61q21.54.06,43.09.15-9.24-42.48-18.47-84.95h-2.46Q3273.1,4148.21,3262,4190.61Z"/><path class="cls-22" d="M3615.11,4027q22.77,8.74,22.77,23.11c0,9.57-3.64,21.33-10.87,35.3s-13.34,20.91-18.26,20.84c-1.37,0-2.94-.8-4.72-2.32s-5.89-3.23-12.31-5.1a64.4,64.4,0,0,0-16.62-2.89q-23.79-.33-38.36,16.32t-14.57,51.28q0,34.67,15,51.64t37.95,17.3a95.82,95.82,0,0,0,21.13-2.38q11.7-2.49,16.62-7.34c.55-.54,1.64-.79,3.28-.77s4.73,3.15,9.24,9.36,8.68,14.35,12.51,24.39,5.74,17.79,5.75,23.25q0,16-24.62,25t-58.27,8.61q-54.16-.69-89-39.15t-34.88-108q0-69.49,35.91-108.93t89.65-38.75Q3592.34,4018.31,3615.11,4027Z"/><path class="cls-22" d="M3753.58,4306c0,4.39-13,6.3-39,5.82-26.25-.48-39.39-2.73-39.39-6.84V4037.62q0-14.34,15.19-14.09,39.18.67,78.36,1.47c71.93,1.46,107.9,30.41,107.9,86.43q0,25.42-9.85,45.89a78.71,78.71,0,0,1-27.89,32.37q25.85,43.64,51.69,87.31-3.29,9.77-21.33,22-24.63,17.07-40.62,16.71t-23.8-12q-19.28-45.32-38.56-90.59l-12.72-.26Zm0-208.7v61.5l2.05,0q39,.78,39-31.6,0-14.76-7.59-22.1t-24.82-7.67Z"/><path class="cls-22" d="M4039.32,4322.82q-57.63-1.71-94-40.34t-36.3-111q0-72.36,36.72-108.74t94.76-34.68q58,1.7,93.73,39.61T4170,4180q0,74.42-36.5,109.5T4039.32,4322.82Zm.2-216.08q-19.7-.57-33,17.08t-13.33,50.27q0,32.58,12.72,50.38t33.43,18.39q20.7.62,33.63-16.62t12.93-50q0-32.8-13.34-50.85T4039.52,4106.74Z"/><path class="cls-22" d="M4229.85,4254.41v-146l-29.13-1q-7-.24-9.84-18a125.44,125.44,0,0,1-1.23-17.67,122.33,122.33,0,0,1,1.23-17.59q2.86-17.52,9.84-17.29,68.91,2.4,137.81,5.14,7,.27,9.43,18a95.44,95.44,0,0,1,1.64,17.69,93.29,93.29,0,0,1-1.64,17.57q-2.47,17.53-9.43,17.26-13.74-.55-27.48-1.08v146l28.71,1.12q7,.28,9.84,18a95.47,95.47,0,0,1,1.64,17.7,93.19,93.19,0,0,1-1.64,17.56q-2.88,17.52-9.84,17.24-69.11-2.74-138.22-5.16-7-.23-9.43-18a95.2,95.2,0,0,1-1.64-17.69,93.45,93.45,0,0,1,1.64-17.57q2.46-17.55,9.43-17.3Z"/><path class="cls-22" d="M4530.84,4061.35q4.92-12.07,51.25-9.88a289.24,289.24,0,0,1,29.31,3.26q17.43,2.71,17.42,4.35-34.84,69.21-69.69,138.49,36.07,69.57,72.15,139.22,1.23,2.11-17.62,3t-32,.3c-34.72-1.68-53.72-7.17-57-16.62l-30.75-79.72q-13.95,39.76-27.89,79.54-4.11,11.31-52.48,9.21-11.89-.5-29.53-2.87c-11.77-1.56-17.08-3.3-16-5.16q32-69.64,64-139.2-33.21-69.09-66.43-138.08c-.82-1.4,4.85-2.48,17-3.2s22.49-.91,31-.56q51.66,2.19,56.58,17.21,14.16,35.07,28.3,70.15Q4514.64,4096.07,4530.84,4061.35Z"/><path class="cls-22" d="M4762.87,4278.43v-146l-29.11-1.56q-7-.36-9.83-18.15a127,127,0,0,1,0-35.26q2.85-17.47,9.83-17.11,68.86,3.66,137.72,7.65c4.63.27,7.79,6.34,9.42,18.18a95.87,95.87,0,0,1,1.64,17.73,92.82,92.82,0,0,1-1.64,17.54q-2.46,17.49-9.42,17.08L4844,4137v146l28.69,1.65q7,.4,9.83,18.21a95.07,95.07,0,0,1,1.64,17.72,92,92,0,0,1-1.64,17.54q-2.86,17.44-9.83,17.06-69.06-4-138.13-7.69-7-.36-9.43-18.13a94.83,94.83,0,0,1-1.63-17.72,92.9,92.9,0,0,1,1.63-17.54q2.46-17.49,9.43-17.14Z"/><path class="cls-22" d="M5136.17,4362.59q0,8.61-38.51,6.05t-41.79-8.87q-34.21-66.17-68.43-132.25V4355q0,7.38-37.9,5.06t-37.9-9.66V4076.13q0-6.15,32.37-4.21a234,234,0,0,1,29.71,4.07q17,3.3,20.69,9.68,32.78,65.19,65.56,130.44V4087.37c0-5.18,12.69-7,38.1-5.31s38.09,5.13,38.1,10.32Z"/><path class="cls-22" d="M5346.89,4104.21q22.72,10.09,22.73,24.46t-10.86,34.65q-10.86,20.31-18.22,19.76c-1.36-.11-2.93-1-4.71-2.61s-5.88-3.57-12.28-5.82a66.2,66.2,0,0,0-16.59-3.88q-23.74-1.74-38.29,14t-14.54,50.42q0,34.64,14.95,52.52t37.88,19.56a94.21,94.21,0,0,0,21.09-1.12q11.69-1.81,16.59-6.36c.54-.5,1.64-.7,3.27-.58s4.71,3.42,9.22,9.92,8.65,14.87,12.49,25.13,5.73,18.14,5.73,23.59q0,16-24.57,23.58t-58.15,5.16q-54.07-3.91-88.88-44.44t-34.82-110q0-69.51,35.85-106.8t89.49-33.42Q5324.16,4094.1,5346.89,4104.21Z"/><path class="cls-22" d="M5472,4397.32q0,2.86-38.69-.15t-38.69-5.43v-73.8c0-2.46,12.9-2.73,38.69-.73s38.69,3.71,38.69,5.07Z"/><path class="cls-19" d="M930.12,4394c-24.84,1.91-37.25.18-37.25-5.29V4123q0-13.93,12.69-14.94,36-2.82,72.06-5.55,60.58-4.59,87.43,18.52t26.82,70.64q0,39.34-25.39,74-12.7,17.32-37.27,29t-57.32,14.14v73.4q0,4.91-15.36,7.93A229.38,229.38,0,0,1,930.12,4394Zm41.77-219.7v64.79l5.32-.41a37,37,0,0,0,24.16-10.84q9.82-9.75,9.82-26.16t-6.75-22.86q-6.75-6.48-24-5.17Z"/><path class="cls-19" d="M1206.14,4367.39q0,6.55-38.91,9.23-39.32,2.72-39.32-3.41V4105.88q0-14.35,15.15-15.42,39.12-2.74,78.24-5.38c71.83-4.82,107.75,21,107.75,77q0,25.42-9.84,46.76a89.2,89.2,0,0,1-27.86,34.8q25.82,41.37,51.63,82.8-3.29,10-21.31,23.91-24.59,19.2-40.56,20.25t-23.76-9.92q-19.26-43.64-38.51-87.23l-12.7.86Zm0-208.71v61.51l2-.14q38.93-2.62,38.92-35,0-14.74-7.58-21.43t-24.78-5.51Z"/><path class="cls-19" d="M1500.74,4181.6q7.79-.47,7.79,28.25a134.52,134.52,0,0,1-1.85,20.4q-1.83,11.79-6.76,12.08-26,1.5-52,3.05v41q37.69-2.23,75.4-4.39,7-.39,9.43,17.51a105.11,105.11,0,0,1,1.23,16.53,138.94,138.94,0,0,1-2.46,22.9q-2.46,14.08-8.2,14.4-70.08,4-140.15,8.33c-10.38.62-15.57-3.26-15.57-11.75V4086.26q0-10.66,9.43-11.25,73.34-4.55,146.7-8.72,8.61-.48,8.61,35.8t-8.61,36.78q-37.9,2.16-75.81,4.41v41.41Q1474.31,4183.12,1500.74,4181.6Zm-79.91-121.16q-3.69.22-9.42-7.63-7.38-11-7.38-18.82t2.46-10.4q66.78-41,68-41,4.1-.24,10.25,9.24,9.42,13.8,9.43,26.51c0,3-.69,5.23-2,6.68Q1421.64,4060.31,1420.83,4060.44Z"/><path class="cls-19" d="M1739.5,4059.52q22.76,7.29,22.76,21.64t-10.87,36q-10.86,21.66-18.24,22-2.06.09-4.71-2t-12.3-4.31a62.8,62.8,0,0,0-16.61-1.82q-23.77,1.22-38.32,18.78T1646.65,4202q0,34.65,15,50.67t37.91,14.86a98.75,98.75,0,0,0,21.12-3.73q11.68-3.27,16.6-8.42c.54-.57,1.64-.9,3.28-1s4.71,2.84,9.22,8.77,8.68,13.8,12.51,23.58,5.74,17.42,5.74,22.89q0,16-24.6,26.62t-58.21,12.37q-54.11,2.78-89-33.43t-34.84-105.72q0-69.5,35.86-111.24t89.57-44.51Q1716.74,4052.24,1739.5,4059.52Z"/><path class="cls-19" d="M1826.62,4267.12v-146q-14.55.68-29.11,1.37-7,.33-9.84-17.17a123.3,123.3,0,0,1-1.23-17.57,125.83,125.83,0,0,1,1.23-17.69q2.86-17.76,9.84-18.1,68.88-3.27,137.77-6.22,7-.3,9.43,17.23a93.19,93.19,0,0,1,1.65,17.56,96.25,96.25,0,0,1-1.65,17.7q-2.46,17.74-9.43,18l-27.47,1.19v146l28.7-1.25q7-.28,9.85,17.22A94.79,94.79,0,0,1,1948,4297a97,97,0,0,1-1.64,17.7q-2.88,17.76-9.85,18.05-69.09,3-138.18,6.23-7,.34-9.43-17.18a92.92,92.92,0,0,1-1.64-17.55,95.57,95.57,0,0,1,1.64-17.71q2.47-17.74,9.43-18.08Z"/><path class="cls-19" d="M1986.13,4230.62q7.78,5.82,26.86,15.72t36.5,9.22q17.41-.68,17.43-14.21a14.06,14.06,0,0,0-4.93-10.67c-3.27-3-9.29-6.42-18-10.17s-15.32-6.71-19.69-8.86a146.07,146.07,0,0,1-17.42-10.78q-10.87-7.56-16.61-15.94-16.41-22.68-16.41-58.78t26.86-62q26.86-25.87,70.34-27.57a217.75,217.75,0,0,1,54.54,4.33q25,5.45,25.84,15.68v2.46q0,14.37-9,36.61t-12.71,24.85q-26.27-12.57-47-11.8T2062,4124.27q0,9,15.18,15.41,3.28,1.53,9.43,4.16t14.15,6.24a162.27,162.27,0,0,1,17.23,9.2,142.28,142.28,0,0,1,19.89,15.07q21.74,19.74,21.74,53.35,0,43.88-24.2,72.62t-74.65,31.48a221.07,221.07,0,0,1-44.49-2.36,76.59,76.59,0,0,1-34.65-14.58q-14.77-11.28-14.77-28.09a97.73,97.73,0,0,1,6.15-33.68Q1979.15,4236.23,1986.13,4230.62Z"/><path class="cls-19" d="M2220.31,4251.47v-146l-29.12,1q-7,.26-9.85-17.29a123.68,123.68,0,0,1-1.23-17.59,125.44,125.44,0,0,1,1.23-17.67q2.86-17.73,9.85-18,68.89-2.34,137.82-4.36,7-.2,9.43,17.36a92.73,92.73,0,0,1,1.64,17.58,94,94,0,0,1-1.64,17.68q-2.46,17.72-9.43,17.91l-27.49.81v146l28.72-.85q7-.2,9.84,17.35a91.92,91.92,0,0,1,1.64,17.58,95.09,95.09,0,0,1-1.64,17.68q-2.88,17.72-9.84,17.92-69.12,2-138.24,4.36-7,.24-9.43-17.31a93.45,93.45,0,0,1-1.64-17.57,95.36,95.36,0,0,1,1.64-17.69q2.47-17.71,9.43-17.95Z"/><path class="cls-19" d="M2491.25,4318.42q-57.64,1.36-93.95-35.35T2361,4174q0-72.36,36.71-110.7t94.77-39.7q58-1.36,93.75,34.63t35.69,110.41q0,74.41-36.51,111.43T2491.25,4318.42Zm.2-216.09q-19.68.47-33,18.84t-13.33,51q0,32.59,12.71,49.71t33.44,16.61q20.72-.48,33.64-18.41t12.92-50.72q0-32.81-13.33-50.14T2491.45,4102.33Z"/><path class="cls-19" d="M2879.59,4298.68q0,8.63-38.57,9t-41.85-5.63q-34.26-63.53-68.52-126.95v127.52q0,7.36-38,8t-38-6.72V4029.62q0-6.15,32.42-6.72a230.76,230.76,0,0,1,29.74,1.77q17,2,20.73,8.08,32.82,62.64,65.64,125.36V4029.36c0-5.18,12.73-8,38.16-8.26s38.16,2.18,38.16,7.37Z"/><path class="cls-19" d="M2993.66,4282.55v-255c0-5.73,13.88-8.71,41.65-8.85s41.65,2.7,41.65,8.43V4228q31.59-.12,63.19-.16,7.38,0,10.26,19.25a149.12,149.12,0,0,1,1.23,19.27,168.55,168.55,0,0,1-1.23,20.1q-3.28,19.68-10.67,19.69-63.19.09-126.38.46a16.74,16.74,0,0,1-14.37-7.29A27.87,27.87,0,0,1,2993.66,4282.55Z"/><path class="cls-19" d="M3369.12,4307.55q-35.7-.23-38.57-11.7-6.78-26.49-13.54-53-32.62-.15-65.25-.23-5.94,25.41-11.9,50.82-2.46,12.7-39.39,12.66-19.69,0-29.13-2.26c-6.3-1.49-9.45-2.67-9.44-3.48q36.32-138.82,72.63-277.55,0-3.29,56.22-3.13c37.47.14,56.21,1.37,56.21,3.54q35.49,139.21,71,278.49,0,2.88-18.88,4.36T3369.12,4307.55ZM3262,4190.61q21.54.06,43.09.15-9.24-42.48-18.47-84.95h-2.46Q3273.1,4148.21,3262,4190.61Z"/><path class="cls-19" d="M3615.11,4027q22.77,8.74,22.77,23.11c0,9.57-3.64,21.33-10.87,35.3s-13.34,20.91-18.26,20.84c-1.37,0-2.94-.8-4.72-2.32s-5.89-3.23-12.31-5.1a64.4,64.4,0,0,0-16.62-2.89q-23.79-.33-38.36,16.32t-14.57,51.28q0,34.67,15,51.64t37.95,17.3a95.82,95.82,0,0,0,21.13-2.38q11.7-2.49,16.62-7.34c.55-.54,1.64-.79,3.28-.77s4.73,3.15,9.24,9.36,8.68,14.35,12.51,24.39,5.74,17.79,5.75,23.25q0,16-24.62,25t-58.27,8.61q-54.16-.69-89-39.15t-34.88-108q0-69.49,35.91-108.93t89.65-38.75Q3592.34,4018.31,3615.11,4027Z"/><path class="cls-19" d="M3753.58,4306c0,4.39-13,6.3-39,5.82-26.25-.48-39.39-2.73-39.39-6.84V4037.62q0-14.34,15.19-14.09,39.18.67,78.36,1.47c71.93,1.46,107.9,30.41,107.9,86.43q0,25.42-9.85,45.89a78.71,78.71,0,0,1-27.89,32.37q25.85,43.64,51.69,87.31-3.29,9.77-21.33,22-24.63,17.07-40.62,16.71t-23.8-12q-19.28-45.32-38.56-90.59l-12.72-.26Zm0-208.7v61.5l2.05,0q39,.78,39-31.6,0-14.76-7.59-22.1t-24.82-7.67Z"/><path class="cls-19" d="M4039.32,4322.82q-57.63-1.71-94-40.34t-36.3-111q0-72.36,36.72-108.74t94.76-34.68q58,1.7,93.73,39.61T4170,4180q0,74.42-36.5,109.5T4039.32,4322.82Zm.2-216.08q-19.7-.57-33,17.08t-13.33,50.27q0,32.58,12.72,50.38t33.43,18.39q20.7.62,33.63-16.62t12.93-50q0-32.8-13.34-50.85T4039.52,4106.74Z"/><path class="cls-19" d="M4229.85,4254.41v-146l-29.13-1q-7-.24-9.84-18a125.44,125.44,0,0,1-1.23-17.67,122.33,122.33,0,0,1,1.23-17.59q2.86-17.52,9.84-17.29,68.91,2.4,137.81,5.14,7,.27,9.43,18a95.44,95.44,0,0,1,1.64,17.69,93.29,93.29,0,0,1-1.64,17.57q-2.47,17.53-9.43,17.26-13.74-.55-27.48-1.08v146l28.71,1.12q7,.28,9.84,18a95.47,95.47,0,0,1,1.64,17.7,93.19,93.19,0,0,1-1.64,17.56q-2.88,17.52-9.84,17.24-69.11-2.74-138.22-5.16-7-.23-9.43-18a95.2,95.2,0,0,1-1.64-17.69,93.45,93.45,0,0,1,1.64-17.57q2.46-17.55,9.43-17.3Z"/><path class="cls-19" d="M4530.84,4061.35q4.92-12.07,51.25-9.88a289.24,289.24,0,0,1,29.31,3.26q17.43,2.71,17.42,4.35-34.84,69.21-69.69,138.49,36.07,69.57,72.15,139.22,1.23,2.11-17.62,3t-32,.3c-34.72-1.68-53.72-7.17-57-16.62l-30.75-79.72q-13.95,39.76-27.89,79.54-4.11,11.31-52.48,9.21-11.89-.5-29.53-2.87c-11.77-1.56-17.08-3.3-16-5.16q32-69.64,64-139.2-33.21-69.09-66.43-138.08c-.82-1.4,4.85-2.48,17-3.2s22.49-.91,31-.56q51.66,2.19,56.58,17.21,14.16,35.07,28.3,70.15Q4514.64,4096.07,4530.84,4061.35Z"/><path class="cls-19" d="M4762.87,4278.43v-146l-29.11-1.56q-7-.36-9.83-18.15a127,127,0,0,1,0-35.26q2.85-17.47,9.83-17.11,68.86,3.66,137.72,7.65c4.63.27,7.79,6.34,9.42,18.18a95.87,95.87,0,0,1,1.64,17.73,92.82,92.82,0,0,1-1.64,17.54q-2.46,17.49-9.42,17.08L4844,4137v146l28.69,1.65q7,.4,9.83,18.21a95.07,95.07,0,0,1,1.64,17.72,92,92,0,0,1-1.64,17.54q-2.86,17.44-9.83,17.06-69.06-4-138.13-7.69-7-.36-9.43-18.13a94.83,94.83,0,0,1-1.63-17.72,92.9,92.9,0,0,1,1.63-17.54q2.46-17.49,9.43-17.14Z"/><path class="cls-19" d="M5136.17,4362.59q0,8.61-38.51,6.05t-41.79-8.87q-34.21-66.17-68.43-132.25V4355q0,7.38-37.9,5.06t-37.9-9.66V4076.13q0-6.15,32.37-4.21a234,234,0,0,1,29.71,4.07q17,3.3,20.69,9.68,32.78,65.19,65.56,130.44V4087.37c0-5.18,12.69-7,38.1-5.31s38.09,5.13,38.1,10.32Z"/><path class="cls-19" d="M5346.89,4104.21q22.72,10.09,22.73,24.46t-10.86,34.65q-10.86,20.31-18.22,19.76c-1.36-.11-2.93-1-4.71-2.61s-5.88-3.57-12.28-5.82a66.2,66.2,0,0,0-16.59-3.88q-23.74-1.74-38.29,14t-14.54,50.42q0,34.64,14.95,52.52t37.88,19.56a94.21,94.21,0,0,0,21.09-1.12q11.69-1.81,16.59-6.36c.54-.5,1.64-.7,3.27-.58s4.71,3.42,9.22,9.92,8.65,14.87,12.49,25.13,5.73,18.14,5.73,23.59q0,16-24.57,23.58t-58.15,5.16q-54.07-3.91-88.88-44.44t-34.82-110q0-69.51,35.85-106.8t89.49-33.42Q5324.16,4094.1,5346.89,4104.21Z"/><path class="cls-19" d="M5472,4397.32q0,2.86-38.69-.15t-38.69-5.43v-73.8c0-2.46,12.9-2.73,38.69-.73s38.69,3.71,38.69,5.07Z"/></svg>