<svg width="251" height="152" viewBox="0 0 251 152" fill="none" xmlns="http://www.w3.org/2000/svg">
<path d="M40.0989 70.2006L28.839 77.6141C24.2008 70.6335 21.3553 53.5354 27.5345 49.5097C33.7137 45.4839 46.7206 55.8066 51.3588 62.7871L51.664 63.2656L40.0989 70.2006Z" fill="#121212" stroke="white" stroke-width="5" stroke-miterlimit="10"/>
<path d="M15.0159 128.908L5.31982 121.966L16.6713 94.1805L19.9669 96.6871L18.525 104.594L19.9669 107.785V110.39L15.8474 112.122L16.8773 115.889L18.731 117.91L15.0159 128.908Z" fill="white"/>
<path d="M34.3469 137.081L35.5828 132.159L37.2305 130.131V126.66V118.267L18.876 131.293L23.827 144.601L34.3469 137.081Z" fill="white"/>
<path d="M40.2972 115.775V99.5659H29.6171L25.7036 105.065L26.9395 110.276L25.7036 115.775H40.2972Z" fill="white"/>
<path d="M64.5793 135.258V119.604H53.8534L51.1681 122.498V126.257L49.3144 128.863V131.18L44.5693 134.362L64.5793 135.258Z" fill="white"/>
<path d="M86.1535 98.3354H47.2168V115.312H86.1535V98.3354Z" fill="white"/>
<path d="M131.025 98.3354H92.0884V115.312H131.025V98.3354Z" fill="white"/>
<path d="M86.1535 141.753H47.2168V158.729H86.1535V141.753Z" fill="white"/>
<path d="M131.025 141.753H92.0884V158.729H131.025V141.753Z" fill="white"/>
<path d="M112.38 120.348H71.7959V137.325H112.38V120.348Z" fill="white"/>
<path d="M109.581 74.8112H70.644V91.7878H109.581V74.8112Z" fill="white"/>
<path d="M157.756 120.348H117.171V137.325H157.756V120.348Z" fill="white"/>
<path d="M153.293 74.8112H114.356V91.7878H153.293V74.8112Z" fill="white"/>
<path d="M175.889 98.3354H136.953V115.312H175.889V98.3354Z" fill="white"/>
<path d="M175.889 141.753H136.953V158.729H175.889V141.753Z" fill="white"/>
<path d="M202.62 98.3354H180.84V115.312H202.62V98.3354Z" fill="white"/>
<path d="M221.371 74.8112H199.591V91.7878H221.371V74.8112Z" fill="white"/>
<path d="M228.71 120.348H206.93V137.325H228.71V120.348Z" fill="white"/>
<path d="M202.62 141.753H180.84V158.729H202.62V141.753Z" fill="white"/>
<path d="M272.712 141.753H250.933V158.729H272.712V141.753Z" fill="white"/>
<path d="M202.612 120.348H162.028V137.325H202.612V120.348Z" fill="white"/>
<path d="M247.515 141.753H206.93V158.729H247.515V141.753Z" fill="white"/>
<path d="M197.021 74.8112H158.084V91.7878H197.021V74.8112Z" fill="white"/>
<path d="M272.712 98.3354H250.933V115.312H272.712V98.3354Z" fill="white"/>
<path d="M272.712 120.348H232.128V137.325H272.712V120.348Z" fill="white"/>
<path d="M265.923 74.8112H226.986V91.7878H265.923V74.8112Z" fill="white"/>
<path d="M246.5 98.3354H207.563V115.312H246.5V98.3354Z" fill="white"/>
<path d="M22.8354 41.9974C24.7883 45.6966 26.6497 48.5678 27.0464 48.3779C27.4431 48.188 26.1157 44.9977 24.1628 41.3062L7.28054 9.38868C5.3276 5.69713 3.42806 2.82592 3.06189 3.00822C2.69571 3.19052 3.99258 6.38835 5.94552 10.0875L22.8354 41.9974Z" stroke="white" stroke-width="6" stroke-miterlimit="10"/>
<path d="M45.424 79.9915L68.455 66.1748C72.1363 72.2557 73.2407 79.5435 71.5254 86.4352C69.81 93.3269 65.4154 99.2578 59.3082 102.923C56.2843 104.738 52.9309 105.942 49.4395 106.467C45.9482 106.991 42.3873 106.826 38.9601 105.98C32.0386 104.272 26.082 99.8967 22.4007 93.8159C22.3626 93.7551 22.3245 93.6943 22.2939 93.6336L45.424 79.9915Z" fill="#121212"/>
<path d="M44.8744 103.933C58.7864 103.933 70.0643 92.7042 70.0643 78.8522C70.0643 65.0002 58.7864 53.7709 44.8744 53.7709C30.9624 53.7709 19.6846 65.0002 19.6846 78.8522C19.6846 92.7042 30.9624 103.933 44.8744 103.933Z" fill="white"/>
</svg>
