<svg xmlns="http://www.w3.org/2000/svg" viewBox="0 0 442.19 294.8"><defs><style>.cls-1,.cls-2{fill:#fff;}.cls-1,.cls-2,.cls-3,.cls-4{stroke:#fff;stroke-miterlimit:10;}.cls-1{stroke-width:0.75px;}.cls-3,.cls-4{fill:none;}.cls-3{stroke-width:6px;}.cls-4{stroke-width:8px;}</style></defs><title>WetBlast</title><g id="Layer_2" data-name="Layer 2"><g id="Layer_1-2" data-name="Layer 1"><g id="Calque_1" data-name="Calque 1"><polygon class="cls-1" points="208.93 114.33 98.05 160.32 94.3 150.78 205.19 104.8 208.93 114.33"/><polygon class="cls-2" points="15.92 215.59 0.57 199.82 9.09 175.3 96 145.53 104.52 164.79 84.08 194.58 31.25 220.84 15.92 215.59"/><path class="cls-3" d="M311.57,290.92l-286.3.87q-.84-41.16-1.69-82.34l.84-148H311.57Z"/><path class="cls-2" d="M220.91,107.86,357.35.39,269.46,74.7,396.56.77,271.74,82.11,442,4.19,285.43,83.79,427.6,35,275.85,92.57,410,59.07,266.4,99.72,389.48,86.83Z"/><polygon class="cls-2" points="234.83 96.47 240 105.33 212.85 117.5 202.51 96.47 234.83 96.47"/><path class="cls-4" d="M25.29,279.53c15.56-15,33.33-26.68,50.38-24.53,22.63,2.86,28.37,28.11,48.1,28s24.82-25.6,45.82-26.28c21.28-.72,28.76,25.13,50.39,24.52,19.74-.55,24.85-22.38,45.82-24.52,17.63-1.8,34.53,11.56,45.82,22.78"/><path class="cls-4" d="M25.29,248c15.56-15,33.33-26.65,50.38-24.51,22.63,2.87,28.37,28.12,48.1,28s24.82-25.59,45.82-26.27c21.28-.72,28.76,25.13,50.39,24.52,19.74-.55,24.85-22.38,45.82-24.52,17.63-1.81,34.53,11.55,45.82,22.77"/><path class="cls-4" d="M25.29,218.22c15.56-15,33.33-26.66,50.38-24.52,22.63,2.86,28.37,28.11,48.1,28s24.82-25.61,45.82-26.28c21.28-.72,28.76,25.13,50.39,24.52,19.74-.55,24.85-22.38,45.82-24.52,17.63-1.8,34.53,11.56,45.82,22.77"/></g></g></g></svg>